<svg width="33" height="33" viewBox="0 0 33 33" fill="none" xmlns="http://www.w3.org/2000/svg">
<path opacity="0.2" d="M29.8911 16.6436L22.8911 27.6436H10.8911L3.89111 16.6436L10.8911 5.64355H22.8911L29.8911 16.6436Z" fill="black"/>
<path d="M11.7349 6.18103L5.07612 16.6435L11.7349 27.106C11.8054 27.2169 11.8535 27.3406 11.8762 27.47C11.899 27.5995 11.896 27.7321 11.8674 27.8604C11.8389 27.9887 11.7853 28.1101 11.7098 28.2176C11.6343 28.3252 11.5383 28.4168 11.4274 28.4873C11.2673 28.5898 11.0812 28.6441 10.8911 28.6435C10.7226 28.6437 10.5568 28.6013 10.4091 28.5202C10.2613 28.4391 10.1365 28.322 10.0461 28.1798L3.04612 17.1798C2.94401 17.0193 2.88978 16.8331 2.88978 16.6429C2.88978 16.4527 2.94401 16.2665 3.04612 16.106L10.0461 5.10603C10.1885 4.88225 10.414 4.7242 10.6729 4.66665C10.9318 4.6091 11.203 4.65676 11.4267 4.79915C11.6505 4.94154 11.8086 5.16699 11.8661 5.42591C11.9237 5.68482 11.876 5.956 11.7336 6.17978L11.7349 6.18103ZM30.7349 16.1073L23.7349 5.10728C23.6644 4.99647 23.5727 4.90064 23.4652 4.82525C23.3576 4.74987 23.2363 4.6964 23.1081 4.6679C22.8492 4.61035 22.578 4.65801 22.3542 4.8004C22.1305 4.94279 21.9724 5.16824 21.9149 5.42716C21.8573 5.68607 21.905 5.95725 22.0474 6.18103L28.7061 16.6435L22.0474 27.106C21.9768 27.2169 21.9287 27.3406 21.906 27.47C21.8833 27.5995 21.8862 27.7321 21.9148 27.8604C21.9434 27.9887 21.9969 28.1101 22.0724 28.2176C22.1479 28.3252 22.2439 28.4168 22.3549 28.4873C22.5149 28.5898 22.7011 28.6441 22.8911 28.6435C23.0596 28.6437 23.2255 28.6013 23.3732 28.5202C23.5209 28.4391 23.6458 28.322 23.7361 28.1798L30.7361 17.1798C30.8378 17.0193 30.8917 16.8333 30.8914 16.6433C30.8912 16.4534 30.8369 16.2675 30.7349 16.1073Z" fill="black"/>
</svg>
