<svg width="24" height="24" viewBox="0 0 24 24" fill="none" xmlns="http://www.w3.org/2000/svg">
<rect width="24" height="24" rx="12" fill="#EBF1FF"/>
<path d="M17.8956 8.27021L10.4114 16.8799C10.3451 16.9568 10.2549 17 10.1607 17C10.0666 17 9.97636 16.9568 9.91007 16.8799L6.10443 12.5019C6.03759 12.4257 6 12.3219 6 12.2136C6 12.1053 6.03759 12.0015 6.10443 11.9252L6.59867 11.3567C6.66495 11.2798 6.75518 11.2365 6.84932 11.2365C6.94345 11.2365 7.03368 11.2798 7.09997 11.3567L10.1572 14.8736L16.9 7.11683C17.0397 6.96106 17.2617 6.96106 17.4013 7.11683L17.8956 7.69352C17.9624 7.76977 18 7.87358 18 7.98186C18 8.09015 17.9624 8.19395 17.8956 8.27021Z" fill="#1236B9"/>
</svg>
