<svg width="836" height="568" viewBox="0 0 836 568" fill="none" xmlns="http://www.w3.org/2000/svg">
<path fill-rule="evenodd" clip-rule="evenodd" d="M123.142 213.015L112.665 220.126C112.665 220.126 107.958 211.868 102.112 216.608C96.2664 221.349 97.4811 215.385 88.0672 220.126C78.6534 224.866 74.0983 229.377 68.2525 229.377H62.4069C54.2077 224.713 51.8542 226.472 47.2232 231.441C43.9851 235.096 41.2293 239.156 39.024 243.522V251.703L33.1783 258.814C1.67224 296.432 1.67223 290.621 1.67223 296.432C1.67223 302.242 -0.681241 312.947 1.67223 317.687C2.78018 321.609 2.40138 325.806 0.609375 329.462C1.5881 331.473 2.09693 333.683 2.09693 335.923C2.09693 338.162 1.5881 340.372 0.609375 342.383L6.30325 351.711L14.5024 368.303L26.1938 384.665L34.393 391.7H78.8052L97.4811 387.036L112.665 391.7H123.142L130.202 397.663H138.401C138.401 397.663 143.032 409.362 138.401 415.249C133.77 421.136 140.451 427.024 140.451 427.024L150.017 448.279V456.46L155.938 467.318V494.384L151.307 508.452L155.938 517.933C156.586 521.42 156.586 524.998 155.938 528.485C155.471 533.992 155.65 539.535 156.47 545L161.86 555.551L169.983 575.583C169.983 575.583 164.137 577.954 169.983 588.505C175.21 597.189 181.072 605.47 187.52 613.278H207.411C207.411 613.278 217.888 621.459 219.102 613.278C220.317 605.097 212.118 624.976 228.44 600.28C244.763 575.583 252.962 567.326 252.962 563.809V555.551L262.224 547.37C262.224 547.37 264.577 545 262.224 539.113C259.87 533.225 263.439 528.485 270.423 521.45C274.576 517.25 279.306 513.671 284.468 510.823C295.021 493.161 298.513 489.644 297.298 486.126C296.083 482.609 292.591 483.756 289.175 474.046C285.759 464.336 286.821 472.899 285.683 464.641C285.85 457.212 287.832 449.938 291.452 443.462L292.667 439.945L303.144 424.653L312.558 414.714L325.388 397.587L335.865 383.442C338.688 378.578 341.052 373.459 342.925 368.15V360.198L346.417 354.311L331.234 360.198C322.994 359.547 314.804 358.372 306.712 356.681L299.652 340.166L291.452 331.909L283.329 320.21L275.13 309.583L269.284 302.472C267.978 299.211 266.403 296.065 264.577 293.067C261.932 288.123 259.599 283.016 257.593 277.776L254.101 263.707C254.172 262.042 254.782 260.447 255.838 259.163C256.893 257.879 258.336 256.978 259.946 256.596C264.115 259.547 267.673 263.286 270.423 267.607L279.761 279.305L285.683 290.544L292.591 303.695L294.945 311.953C298.437 320.21 303.068 329.615 303.068 329.615L308.914 342.536L321.82 344.907L333.511 340.166L346.341 335.426L355.679 327.245L367.371 316.617L376.709 308.359L383.693 298.955L377.771 278.923L369.648 276.629C363.803 275.405 363.954 278.081 360.31 280.146L349.758 286.033L341.558 281.293C338.624 278.224 336.258 274.65 334.574 270.741L332.22 261.337L327.589 251.856L331.082 243.675L340.42 253.079L350.896 260.114L359.096 267.224L370.787 270.741L383.693 271.888L390.678 278.923L424.537 280.146L440.936 283.663L447.92 291.921V304.842L455.056 313.482V322.886C456.669 328.89 458.646 334.789 460.978 340.548C463.255 344.066 470.316 352.323 470.316 352.323C472.816 355.487 474.767 359.055 476.086 362.875C478.118 367.25 480.892 371.235 484.285 374.649C487.087 372.715 489.468 370.226 491.283 367.334C493.097 364.442 494.307 361.207 494.837 357.828V344.907L500.683 334.279V327.245C507.041 323.661 512.932 319.294 518.22 314.247L529.912 301.325L543.957 293.067L553.295 294.291L560.279 301.325L569.617 313.482V320.593C569.626 321.433 569.841 322.258 570.241 322.995C570.642 323.732 571.216 324.358 571.914 324.819C572.611 325.28 573.41 325.561 574.241 325.637C575.072 325.713 575.909 325.583 576.677 325.257L584.801 326.404L591.861 344.066V368.532C592.523 372.378 592.523 376.309 591.861 380.154L598.846 391.929C601.778 395.628 604.895 399.175 608.184 402.557L617.521 415.02H622.228C623.532 411.362 623.532 407.361 622.228 403.704C619.875 399.04 614.029 388.412 614.029 388.412C610.034 384.31 606.611 379.68 603.856 374.649L602.641 368.532V353.241L603.856 347.353C609.056 350.543 613.677 354.602 617.521 359.357L623.215 368.838C627.888 368.308 632.366 366.656 636.273 364.021C639.194 358.72 642.965 353.94 647.433 349.876V342.536C647.532 340.77 647.071 339.018 646.115 337.533C645.16 336.049 643.76 334.909 642.119 334.279C638.236 331.917 635.408 328.137 634.224 323.727L626.632 311.953L630.124 302.472L641.815 293.067H647.13C654.466 293.176 661.763 291.985 668.69 289.55L679.774 282.898L685.62 275.788L689.188 268.753V257.82C688.541 254.307 688.541 250.705 689.188 247.192C689.822 244.477 689.822 241.65 689.188 238.934L684.178 229.377C681.841 227.416 680.143 224.793 679.303 221.848C678.464 218.904 678.522 215.773 679.471 212.862H672.183L665.198 210.568C658.138 201.087 654.646 195.276 654.646 195.276L661.63 187.019C665.417 190.854 670.353 193.326 675.675 194.053C680.436 195.807 684.952 198.171 689.112 201.087V209.498C699.058 214.238 702.55 215.385 702.55 218.902C702.55 222.419 708.396 226.013 708.396 226.013L716.595 221.272L711.888 204.834L703.689 196.576L706.118 187.172L710.749 176.544H716.595V162.475L723.579 151.848V143.59L716.595 134.186C716.595 134.186 710.142 122.334 706.422 121.264C702.934 120.611 699.357 120.611 695.869 121.264L688.885 117.67L682.963 108.266C684.178 98.8615 707.561 85.9399 707.561 85.9399H737.928L748.481 75.3121H766.018V117.67L783.479 129.522L792.893 134.186C793.48 129.105 793.48 123.974 792.893 118.894C790.823 114.435 788.464 110.119 785.832 105.972C786.189 104.401 786.043 102.756 785.416 101.273C784.789 99.79 783.712 98.5446 782.34 97.7146C780.784 96.628 779.463 95.234 778.458 93.6173C777.453 92.0006 776.785 90.195 776.494 88.3102C781.823 85.7558 787.551 84.1518 793.424 83.5697L798.738 82.4228L822.121 75.3121L806.938 65.9077H803.445L817.49 60.0203H835.027C834.159 58.1692 832.854 56.5603 831.227 55.3341C829.599 54.108 827.698 53.3018 825.689 52.9861C818.629 51.7628 818.629 43.5816 810.506 43.5816H789.476L782.492 39.9881C774.369 37.6943 770.8 42.3583 767.308 39.9881C762.739 38.6806 757.928 38.4711 753.263 39.3764C746.158 40.2379 739.128 41.6438 732.234 43.5816C722.896 37.6943 724.035 41.0585 713.558 38.7647C706.359 37.0727 699.322 34.7444 692.529 31.8069H671.499C663.3 28.2134 657.606 20.0323 647.585 21.1791C637.564 22.326 630.579 25.9196 627.087 25.9196H617.521L609.398 31.8069C595.353 31.8069 593 29.4367 588.369 31.8069C583.738 34.1772 581.308 29.4367 577.816 31.8069C574.324 34.1772 566.125 37.6943 563.771 31.8069C561.418 25.9196 577.816 25.6902 550.941 21.1027C524.066 16.5151 521.713 23.32 517.006 21.1027L512.375 18.8089H499.544C495.679 19.5192 491.718 19.5192 487.853 18.8089H478.515L489.979 10.6278C487.701 18.8089 478.363 10.6278 478.363 10.6278H470.164C463.954 7.82486 458.114 4.25486 452.779 0L437.595 10.6278L429.396 12.9216C429.396 12.9216 418.995 9.40446 417.78 10.6278C411.643 12.9163 405.382 14.8563 399.029 16.4387L387.337 20.0323C380.353 27.0665 380.353 31.8069 380.353 31.8069V50.6159L370.939 55.3563L368.509 42.3583L365.017 31.8069L358.033 22.4025L348.695 25.9196L349.834 31.8069L358.033 44.7285C349.834 44.7285 334.65 31.8069 334.65 31.8069C328.835 35.1927 322.496 37.5706 315.898 38.8412C310.052 44.7285 310.052 42.3583 300.714 43.5816C292.811 45.3828 285.282 48.5659 278.47 52.9861C271.509 54.2419 264.793 56.617 258.58 60.0203L241.043 67.0546L232.919 64.7608L229.351 57.6501L227.074 51.7628L243.396 54.133C249.242 54.133 249.242 49.469 249.242 49.469L243.396 43.5816L225.859 41.2114L211.89 38.8412C211.89 38.8412 204.981 28.2134 201.489 31.8069C197.997 35.4005 192.151 24.6963 188.659 31.8069C185.167 38.9176 171.122 41.2114 171.122 41.2114L158.292 49.469L150.017 55.3563L143.032 62.3906C132.555 71.795 139.54 68.2779 132.555 71.795C125.495 75.3121 122.003 88.3102 122.003 88.3102C127.486 88.1947 132.96 87.7863 138.401 87.0868C139.839 87.575 141.075 88.5313 141.913 89.8049C142.752 91.0786 143.145 92.5971 143.032 94.1211V100.085L158.216 102.379L172.185 90.6039C172.731 85.1028 172.372 79.5486 171.122 74.1652L178.106 68.2779L187.444 57.6501C194.505 55.3563 192.151 62.3906 190.937 65.9077L189.798 69.4248C197.979 73.8738 206.606 77.4364 215.534 80.0526L217.812 87.0868C217.812 87.0868 213.181 94.1211 209.688 94.1211C206.196 94.1211 198.452 88.3102 197.01 91.8273L195.643 95.3444L188.659 104.749C184.529 108.648 179.782 111.826 174.614 114.153H167.63L157.077 113.006L139.54 114.153C139.54 114.153 141.893 109.489 133.694 115.377C128.605 119.751 123.143 123.666 117.372 127.075C113.999 128.659 110.836 130.663 107.958 133.039C103.593 137.192 98.4238 140.393 92.7742 142.443C90.3802 142.987 88.0419 143.755 85.7897 144.737L76.4517 148.33C76.4517 148.33 82.2974 152.994 81.0828 156.588C79.8681 160.182 85.7897 142.443 79.944 160.105C74.0983 177.767 65.8991 176.544 65.8991 176.544H55.4224C52.2576 176.704 49.1099 177.113 46.0085 177.767L37.8852 195.429L36.6706 203.61L44.8698 213.015H53.0689L69.3913 210.721C69.3913 210.721 82.2975 201.24 82.2975 197.723C82.2975 194.206 89.282 187.172 89.282 187.172L98.6199 177.767C105.68 176.544 124.356 173.027 124.356 173.027L134.833 165.993L141.893 170.657L146.524 180.061C149.953 185.393 153.095 190.906 155.938 196.576L160.645 204.834L169.907 198.793C168.768 190.536 157.077 181.131 157.077 181.131L151.231 166.986C146.524 161.099 153.585 159.952 153.585 159.952L173.399 172.874C173.371 176.551 174.176 180.186 175.753 183.502C178.491 186.741 180.86 190.281 182.813 194.053C184.006 196.991 185.562 199.765 187.444 202.311L192.151 209.345L197.01 207.051L202.628 201.087L209.688 191.683C212.518 188.189 216.101 185.392 220.165 183.502C224.07 181.774 227.642 179.367 230.718 176.391V168.21L240.056 156.435L245.901 157.582L264.577 145.807L272.776 151.695V163.622L278.622 173.027L280.976 182.431C276.046 185.398 270.279 186.635 264.577 185.948L256.454 184.801C252.127 184.81 247.809 185.194 243.548 185.948L235.349 189.542L227.225 195.429C224.43 200.42 223.59 206.285 224.872 211.868C230.58 214.224 236.439 216.19 242.409 217.755L250.532 218.902C254.94 218.163 259.263 216.985 263.439 215.385V224.866L259.946 233.047L257.593 240.158C255.337 241.53 252.835 242.44 250.229 242.833C247.623 243.227 244.965 243.097 242.409 242.452L234.21 240.158L227.225 241.305L217.812 242.452L203.843 236.564L192.151 231.9C190.764 236.083 188.796 240.048 186.306 243.675C181.356 245.061 176.257 245.831 171.122 245.969C162.866 244.119 155.447 239.577 150.017 233.047C147.834 229.257 145.906 225.323 144.247 221.272L140.755 210.721L132.631 209.498L123.142 213.015Z" fill="url(#paint0_linear_404_2799)" fill-opacity="0.3"/>
<defs>
<linearGradient id="paint0_linear_404_2799" x1="-305.797" y1="-835.391" x2="1252.65" y2="1372.06" gradientUnits="userSpaceOnUse">
<stop stop-color="white"/>
<stop offset="1" stop-opacity="0"/>
</linearGradient>
</defs>
</svg>
