<svg width="56" height="55" viewBox="0 0 56 55" fill="none" xmlns="http://www.w3.org/2000/svg">
<circle cx="28" cy="27.5" r="27" stroke="white"/>
<path d="M39.7039 29.4339V37.7353H34.8911V29.9897C34.8911 28.0434 34.1947 26.7159 32.4532 26.7159C31.1235 26.7159 30.3315 27.6114 29.9839 28.4765C29.8568 28.7859 29.8241 29.2168 29.8241 29.6499V37.7353H25.0091C25.0091 37.7353 25.0744 24.6178 25.0091 23.2577H29.8241V25.3097L29.7926 25.3569H29.8241V25.3097C30.4631 24.3253 31.605 22.9179 34.1621 22.9179C37.329 22.9179 39.7039 24.9879 39.7039 29.4339ZM19.9736 16.2793C18.3277 16.2793 17.25 17.3593 17.25 18.7802C17.25 20.1695 18.2963 21.2822 19.9106 21.2822H19.9421C21.6217 21.2822 22.6646 20.1695 22.6646 18.7802C22.6354 17.3593 21.6217 16.2793 19.9736 16.2793ZM17.5358 37.7353H22.3485V23.2577H17.5358V37.7353Z" fill="white"/>
</svg>
