<svg width="23" height="22" viewBox="0 0 23 22" fill="none" xmlns="http://www.w3.org/2000/svg">
<path d="M21.7085 8.92875L12.9422 12.4287L19.126 20.38C19.2088 20.4835 19.2702 20.6023 19.3067 20.7297C19.3431 20.8571 19.3539 20.9905 19.3384 21.1221C19.3228 21.2537 19.2813 21.3809 19.2162 21.4963C19.1511 21.6117 19.0637 21.713 18.9591 21.7943C18.8545 21.8756 18.7347 21.9354 18.6068 21.97C18.4789 22.0047 18.3454 22.0136 18.2141 21.9962C18.0827 21.9788 17.9561 21.9355 17.8416 21.8688C17.7272 21.8021 17.6271 21.7132 17.5472 21.6075L11.3335 13.625L5.12349 21.6138C4.95929 21.8189 4.72094 21.9512 4.45997 21.982C4.199 22.0128 3.9364 21.9396 3.72895 21.7783C3.52149 21.617 3.38587 21.3806 3.3514 21.1201C3.31693 20.8596 3.38638 20.596 3.54474 20.3862L9.72849 12.435L0.958493 8.92875C0.712174 8.82929 0.515451 8.63606 0.411603 8.39156C0.307755 8.14706 0.305287 7.87132 0.404743 7.625C0.504199 7.37868 0.697432 7.18196 0.941933 7.07811C1.18643 6.97426 1.46217 6.97179 1.70849 7.07125L10.3335 10.5225V1C10.3335 0.734784 10.4388 0.48043 10.6264 0.292893C10.8139 0.105357 11.0683 0 11.3335 0C11.5987 0 11.8531 0.105357 12.0406 0.292893C12.2281 0.48043 12.3335 0.734784 12.3335 1V10.5225L20.9585 7.07125C21.0805 7.022 21.2109 6.99726 21.3425 6.99844C21.474 6.99962 21.604 7.02669 21.7251 7.07811C21.8461 7.12953 21.9559 7.20429 22.048 7.29813C22.1402 7.39196 22.213 7.50303 22.2622 7.625C22.3115 7.74697 22.3362 7.87744 22.3351 8.00896C22.3339 8.14049 22.3068 8.2705 22.2554 8.39156C22.204 8.51262 22.1292 8.62238 22.0354 8.71455C21.9415 8.80672 21.8305 8.8795 21.7085 8.92875Z" fill="white"/>
</svg>
