<svg width="29" height="29" viewBox="0 0 29 29" fill="none" xmlns="http://www.w3.org/2000/svg">
<path d="M22.6969 15.1325L16.2494 12.75L13.8744 6.2975C13.7338 5.91541 13.4793 5.58566 13.1454 5.35273C12.8114 5.11981 12.4141 4.99492 12.0069 4.99492C11.5998 4.99492 11.2024 5.11981 10.8685 5.35273C10.5345 5.58566 10.2801 5.91541 10.1394 6.2975L7.74941 12.75L1.29691 15.125C0.914817 15.2656 0.585063 15.5201 0.352138 15.854C0.119212 16.188 -0.00567627 16.5853 -0.00567627 16.9925C-0.00567627 17.3997 0.119212 17.797 0.352138 18.131C0.585063 18.4649 0.914817 18.7194 1.29691 18.86L7.74941 21.25L10.1244 27.7025C10.2651 28.0846 10.5195 28.4143 10.8535 28.6473C11.1874 28.8802 11.5848 29.0051 11.9919 29.0051C12.3991 29.0051 12.7964 28.8802 13.1304 28.6473C13.4643 28.4143 13.7188 28.0846 13.8594 27.7025L16.2494 21.25L22.7019 18.875C23.084 18.7344 23.4137 18.4799 23.6467 18.146C23.8796 17.812 24.0045 17.4147 24.0045 17.0075C24.0045 16.6003 23.8796 16.203 23.6467 15.869C23.4137 15.5351 23.084 15.2806 22.7019 15.14L22.6969 15.1325ZM15.1244 19.5275C14.9887 19.5775 14.8654 19.6564 14.7631 19.7587C14.6608 19.861 14.5819 19.9843 14.5319 20.12L11.9994 26.9813L9.47191 20.125C9.42196 19.9878 9.34259 19.8633 9.23937 19.76C9.13614 19.6568 9.01157 19.5774 8.87441 19.5275L2.01816 17L8.87441 14.4725C9.01157 14.4226 9.13614 14.3432 9.23937 14.24C9.34259 14.1367 9.42196 14.0122 9.47191 13.875L11.9994 7.01875L14.5269 13.875C14.5769 14.0107 14.6558 14.134 14.7581 14.2363C14.8604 14.3386 14.9837 14.4175 15.1194 14.4675L21.9807 17L15.1244 19.5275ZM15.9994 4C15.9994 3.73478 16.1048 3.48043 16.2923 3.29289C16.4798 3.10536 16.7342 3 16.9994 3H18.9994V1C18.9994 0.734784 19.1048 0.48043 19.2923 0.292893C19.4798 0.105357 19.7342 0 19.9994 0C20.2646 0 20.519 0.105357 20.7065 0.292893C20.894 0.48043 20.9994 0.734784 20.9994 1V3H22.9994C23.2646 3 23.519 3.10536 23.7065 3.29289C23.894 3.48043 23.9994 3.73478 23.9994 4C23.9994 4.26522 23.894 4.51957 23.7065 4.70711C23.519 4.89464 23.2646 5 22.9994 5H20.9994V7C20.9994 7.26522 20.894 7.51957 20.7065 7.70711C20.519 7.89464 20.2646 8 19.9994 8C19.7342 8 19.4798 7.89464 19.2923 7.70711C19.1048 7.51957 18.9994 7.26522 18.9994 7V5H16.9994C16.7342 5 16.4798 4.89464 16.2923 4.70711C16.1048 4.51957 15.9994 4.26522 15.9994 4ZM28.9994 10C28.9994 10.2652 28.894 10.5196 28.7065 10.7071C28.519 10.8946 28.2646 11 27.9994 11H26.9994V12C26.9994 12.2652 26.894 12.5196 26.7065 12.7071C26.519 12.8946 26.2646 13 25.9994 13C25.7342 13 25.4798 12.8946 25.2923 12.7071C25.1048 12.5196 24.9994 12.2652 24.9994 12V11H23.9994C23.7342 11 23.4798 10.8946 23.2923 10.7071C23.1048 10.5196 22.9994 10.2652 22.9994 10C22.9994 9.73478 23.1048 9.48043 23.2923 9.29289C23.4798 9.10536 23.7342 9 23.9994 9H24.9994V8C24.9994 7.73478 25.1048 7.48043 25.2923 7.29289C25.4798 7.10536 25.7342 7 25.9994 7C26.2646 7 26.519 7.10536 26.7065 7.29289C26.894 7.48043 26.9994 7.73478 26.9994 8V9H27.9994C28.2646 9 28.519 9.10536 28.7065 9.29289C28.894 9.48043 28.9994 9.73478 28.9994 10Z" fill="#1841D3"/>
</svg>
