<svg width="24" height="24" viewBox="0 0 24 24" fill="none" xmlns="http://www.w3.org/2000/svg">
<path d="M7.19527 2.84464C7.12187 2.49799 6.81588 2.25 6.46154 2.25C6.1072 2.25 5.80121 2.49799 5.72781 2.84464C5.49556 3.94146 5.17754 4.67981 4.73864 5.20636C4.30917 5.72159 3.70944 6.09899 2.7873 6.3717C2.46865 6.46594 2.25 6.75862 2.25 7.09091C2.25 7.4232 2.46865 7.71588 2.7873 7.81012C3.67339 8.07217 4.26847 8.42748 4.70432 8.9349C5.14803 9.45147 5.48579 10.1942 5.72781 11.3372C5.80121 11.6838 6.1072 11.9318 6.46154 11.9318C6.81588 11.9318 7.12187 11.6838 7.19527 11.3372C7.43729 10.1942 7.77502 9.4513 8.21871 8.93468C8.6545 8.42725 9.24952 8.07197 10.1356 7.81017C10.4543 7.716 10.6731 7.42327 10.6731 7.09091C10.6731 6.75854 10.4543 6.46582 10.1356 6.37165C9.24952 6.10985 8.6545 5.75457 8.21871 5.24714C7.77502 4.73052 7.43729 3.98764 7.19527 2.84464Z" fill="#1841D3"/>
<path d="M15.4982 6.09637C15.4168 5.75977 15.1155 5.52269 14.7692 5.52273C14.4228 5.52276 14.1216 5.7599 14.0402 6.09652C13.4864 8.38782 12.8986 9.77014 12.0681 10.7339C11.2481 11.6856 10.1214 12.3098 8.29837 12.9258C7.99358 13.0288 7.78842 13.3147 7.78846 13.6365C7.7885 13.9582 7.99374 14.2441 8.29856 14.347C10.2024 14.9897 11.3435 15.6687 12.1497 16.6393C12.9689 17.6254 13.5124 18.9944 14.0403 21.1764C14.1217 21.513 14.423 21.75 14.7693 21.75C15.1156 21.75 15.4169 21.5128 15.4982 21.1762C16.0521 18.8849 16.6399 17.5026 17.4703 16.5388C18.2904 15.5871 19.4171 14.9629 21.2401 14.3469C21.5449 14.2439 21.75 13.958 21.75 13.6363C21.75 13.3145 21.5447 13.0287 21.2399 12.9258C19.3328 12.2819 18.1928 11.6052 17.3877 10.6363C16.5698 9.65188 16.0274 8.2836 15.4982 6.09637Z" fill="#1841D3"/>
</svg>
