<svg width="58" height="59" viewBox="0 0 58 59" fill="none" xmlns="http://www.w3.org/2000/svg">
<g filter="url(#filter0_ddi_414_10451)">
<g clip-path="url(#clip0_414_10451)">
<rect x="5" y="3" width="48" height="48" rx="9.63636" fill="white"/>
<circle opacity="0.87" cx="5.60227" cy="7.21592" r="0.602273" fill="#F1F1F1"/>
<circle opacity="0.44" cx="9.21604" cy="7.21592" r="0.602273" fill="#F1F1F1"/>
<circle opacity="0.69" cx="12.8293" cy="7.21592" r="0.602273" fill="#F1F1F1"/>
<circle opacity="0.73" cx="16.4436" cy="7.21592" r="0.602273" fill="#F1F1F1"/>
<circle opacity="0.66" cx="20.0569" cy="7.21592" r="0.602273" fill="#F1F1F1"/>
<circle opacity="0.39" cx="23.6706" cy="7.21592" r="0.602273" fill="#F1F1F1"/>
<circle opacity="0.77" cx="27.2839" cy="7.21592" r="0.602273" fill="#F1F1F1"/>
<circle opacity="0.78" cx="30.8977" cy="7.21592" r="0.602273" fill="#F1F1F1"/>
<circle opacity="0.78" cx="52.5793" cy="7.21592" r="0.602273" fill="#F1F1F1"/>
<circle opacity="0.37" cx="34.5115" cy="7.21592" r="0.602273" fill="#F1F1F1"/>
<circle opacity="0.52" cx="38.1252" cy="7.21592" r="0.602273" fill="#F1F1F1"/>
<circle opacity="0.56" cx="41.7385" cy="7.21592" r="0.602273" fill="#F1F1F1"/>
<circle opacity="0.51" cx="45.3523" cy="7.21592" r="0.602273" fill="#F1F1F1"/>
<circle opacity="0.78" cx="48.966" cy="7.21592" r="0.602273" fill="#F1F1F1"/>
<circle opacity="0.72" cx="5.60227" cy="10.8296" r="0.602273" fill="#F1F1F1"/>
<circle opacity="0.85" cx="9.21604" cy="10.8296" r="0.602273" fill="#F1F1F1"/>
<circle opacity="0.79" cx="12.8293" cy="10.8296" r="0.602273" fill="#F1F1F1"/>
<circle opacity="0.52" cx="16.4436" cy="10.8296" r="0.602273" fill="#F1F1F1"/>
<circle opacity="0.74" cx="20.0569" cy="10.8296" r="0.602273" fill="#F1F1F1"/>
<circle opacity="0.53" cx="23.6706" cy="10.8296" r="0.602273" fill="#F1F1F1"/>
<circle opacity="0.51" cx="30.8977" cy="10.8296" r="0.602273" fill="#F1F1F1"/>
<circle opacity="0.23" cx="27.2839" cy="10.8296" r="0.602273" fill="#F1F1F1"/>
<circle opacity="0.51" cx="52.5793" cy="10.8296" r="0.602273" fill="#F1F1F1"/>
<circle opacity="0.27" cx="34.5115" cy="10.8296" r="0.602273" fill="#F1F1F1"/>
<circle opacity="0.87" cx="38.1252" cy="10.8296" r="0.602273" fill="#F1F1F1"/>
<circle opacity="0.51" cx="41.7385" cy="10.8296" r="0.602273" fill="#F1F1F1"/>
<circle opacity="0.2" cx="45.3523" cy="10.8296" r="0.602273" fill="#F1F1F1"/>
<circle opacity="0.74" cx="48.966" cy="10.8296" r="0.602273" fill="#F1F1F1"/>
<circle opacity="0.42" cx="5.60227" cy="14.4432" r="0.602273" fill="#F1F1F1"/>
<circle opacity="0.88" cx="9.21604" cy="14.4432" r="0.602273" fill="#F1F1F1"/>
<circle opacity="0.58" cx="12.8293" cy="14.4432" r="0.602273" fill="#F1F1F1"/>
<circle opacity="0.36" cx="16.4436" cy="14.4432" r="0.602273" fill="#F1F1F1"/>
<circle opacity="0.49" cx="20.0569" cy="14.4432" r="0.602273" fill="#F1F1F1"/>
<circle opacity="0.8" cx="30.8977" cy="14.4432" r="0.602273" fill="#F1F1F1"/>
<circle opacity="0.88" cx="23.6706" cy="14.4432" r="0.602273" fill="#F1F1F1"/>
<circle opacity="0.55" cx="27.2839" cy="14.4432" r="0.602273" fill="#F1F1F1"/>
<circle opacity="0.8" cx="52.5793" cy="14.4432" r="0.602273" fill="#F1F1F1"/>
<circle opacity="0.75" cx="34.5115" cy="14.4432" r="0.602273" fill="#F1F1F1"/>
<circle opacity="0.87" cx="38.1252" cy="14.4432" r="0.602273" fill="#F1F1F1"/>
<circle opacity="0.33" cx="41.7385" cy="14.4432" r="0.602273" fill="#F1F1F1"/>
<circle opacity="0.84" cx="45.3523" cy="14.4432" r="0.602273" fill="#F1F1F1"/>
<circle opacity="0.83" cx="48.966" cy="14.4432" r="0.602273" fill="#F1F1F1"/>
<circle opacity="0.42" cx="5.60227" cy="3.60227" r="0.602273" fill="#F1F1F1"/>
<circle opacity="0.88" cx="9.21604" cy="3.60227" r="0.602273" fill="#F1F1F1"/>
<circle opacity="0.58" cx="12.8293" cy="3.60227" r="0.602273" fill="#F1F1F1"/>
<circle opacity="0.36" cx="16.4436" cy="3.60227" r="0.602273" fill="#F1F1F1"/>
<circle opacity="0.8" cx="30.8977" cy="3.60227" r="0.602273" fill="#F1F1F1"/>
<circle opacity="0.49" cx="20.0569" cy="3.60227" r="0.602273" fill="#F1F1F1"/>
<circle opacity="0.88" cx="23.6706" cy="3.60227" r="0.602273" fill="#F1F1F1"/>
<circle opacity="0.55" cx="27.2839" cy="3.60227" r="0.602273" fill="#F1F1F1"/>
<circle opacity="0.8" cx="52.5793" cy="3.60227" r="0.602273" fill="#F1F1F1"/>
<circle opacity="0.75" cx="34.5115" cy="3.60227" r="0.602273" fill="#F1F1F1"/>
<circle opacity="0.87" cx="38.1252" cy="3.60227" r="0.602273" fill="#F1F1F1"/>
<circle opacity="0.33" cx="41.7385" cy="3.60227" r="0.602273" fill="#F1F1F1"/>
<circle opacity="0.84" cx="45.3523" cy="3.60227" r="0.602273" fill="#F1F1F1"/>
<circle opacity="0.83" cx="48.966" cy="3.60227" r="0.602273" fill="#F1F1F1"/>
<circle opacity="0.62" cx="5.60227" cy="18.0569" r="0.602273" fill="#F1F1F1"/>
<circle opacity="0.62" cx="9.21604" cy="18.0569" r="0.602273" fill="#F1F1F1"/>
<circle opacity="0.35" cx="12.8293" cy="18.0569" r="0.602273" fill="#F1F1F1"/>
<circle opacity="0.65" cx="30.8977" cy="18.0569" r="0.602273" fill="#F1F1F1"/>
<circle opacity="0.53" cx="16.4436" cy="18.0569" r="0.602273" fill="#F1F1F1"/>
<circle opacity="0.4" cx="20.0569" cy="18.0569" r="0.602273" fill="#F1F1F1"/>
<circle opacity="0.67" cx="23.6706" cy="18.0569" r="0.602273" fill="#F1F1F1"/>
<circle opacity="0.64" cx="27.2839" cy="18.0569" r="0.602273" fill="#F1F1F1"/>
<circle opacity="0.65" cx="52.5793" cy="18.0569" r="0.602273" fill="#F1F1F1"/>
<circle opacity="0.53" cx="34.5115" cy="18.0569" r="0.602273" fill="#F1F1F1"/>
<circle opacity="0.76" cx="38.1252" cy="18.0569" r="0.602273" fill="#F1F1F1"/>
<circle opacity="0.54" cx="41.7385" cy="18.0569" r="0.602273" fill="#F1F1F1"/>
<circle opacity="0.36" cx="45.3523" cy="18.0569" r="0.602273" fill="#F1F1F1"/>
<circle opacity="0.27" cx="48.966" cy="18.0569" r="0.602273" fill="#F1F1F1"/>
<circle opacity="0.37" cx="5.60227" cy="21.6704" r="0.602273" fill="#F1F1F1"/>
<circle opacity="0.8" cx="9.21604" cy="21.6704" r="0.602273" fill="#F1F1F1"/>
<circle opacity="0.79" cx="30.8977" cy="21.6704" r="0.602273" fill="#F1F1F1"/>
<circle opacity="0.44" cx="12.8293" cy="21.6704" r="0.602273" fill="#F1F1F1"/>
<circle opacity="0.49" cx="16.4436" cy="21.6704" r="0.602273" fill="#F1F1F1"/>
<circle opacity="0.37" cx="20.0569" cy="21.6704" r="0.602273" fill="#F1F1F1"/>
<circle opacity="0.34" cx="23.6706" cy="21.6704" r="0.602273" fill="#F1F1F1"/>
<circle opacity="0.31" cx="27.2839" cy="21.6704" r="0.602273" fill="#F1F1F1"/>
<circle opacity="0.79" cx="52.5793" cy="21.6704" r="0.602273" fill="#F1F1F1"/>
<circle opacity="0.7" cx="34.5115" cy="21.6704" r="0.602273" fill="#F1F1F1"/>
<circle opacity="0.51" cx="38.1252" cy="21.6704" r="0.602273" fill="#F1F1F1"/>
<circle opacity="0.33" cx="41.7385" cy="21.6704" r="0.602273" fill="#F1F1F1"/>
<circle opacity="0.4" cx="45.3523" cy="21.6704" r="0.602273" fill="#F1F1F1"/>
<circle opacity="0.59" cx="48.966" cy="21.6704" r="0.602273" fill="#F1F1F1"/>
<circle opacity="0.39" cx="5.60227" cy="25.2842" r="0.602273" fill="#F1F1F1"/>
<circle opacity="0.43" cx="30.8977" cy="25.2842" r="0.602273" fill="#F1F1F1"/>
<circle opacity="0.8" cx="9.21604" cy="25.2842" r="0.602273" fill="#F1F1F1"/>
<circle opacity="0.49" cx="12.8293" cy="25.2842" r="0.602273" fill="#F1F1F1"/>
<circle opacity="0.62" cx="16.4436" cy="25.2842" r="0.602273" fill="#F1F1F1"/>
<circle opacity="0.81" cx="20.0569" cy="25.2842" r="0.602273" fill="#F1F1F1"/>
<circle opacity="0.8" cx="23.6706" cy="25.2842" r="0.602273" fill="#F1F1F1"/>
<circle opacity="0.84" cx="27.2839" cy="25.2842" r="0.602273" fill="#F1F1F1"/>
<circle opacity="0.43" cx="52.5793" cy="25.2842" r="0.602273" fill="#F1F1F1"/>
<circle opacity="0.38" cx="34.5115" cy="25.2842" r="0.602273" fill="#F1F1F1"/>
<circle opacity="0.37" cx="38.1252" cy="25.2842" r="0.602273" fill="#F1F1F1"/>
<circle opacity="0.76" cx="41.7385" cy="25.2842" r="0.602273" fill="#F1F1F1"/>
<circle opacity="0.41" cx="45.3523" cy="25.2842" r="0.602273" fill="#F1F1F1"/>
<circle opacity="0.48" cx="48.966" cy="25.2842" r="0.602273" fill="#F1F1F1"/>
<circle opacity="0.33" cx="30.8977" cy="28.8977" r="0.602273" fill="#F1F1F1"/>
<circle opacity="0.52" cx="5.60227" cy="28.8977" r="0.602273" fill="#F1F1F1"/>
<circle opacity="0.34" cx="9.21604" cy="28.8977" r="0.602273" fill="#F1F1F1"/>
<circle opacity="0.9" cx="12.8293" cy="28.8977" r="0.602273" fill="#F1F1F1"/>
<circle opacity="0.48" cx="16.4436" cy="28.8977" r="0.602273" fill="#F1F1F1"/>
<circle opacity="0.67" cx="20.0569" cy="28.8977" r="0.602273" fill="#F1F1F1"/>
<circle opacity="0.37" cx="23.6706" cy="28.8977" r="0.602273" fill="#F1F1F1"/>
<circle opacity="0.66" cx="27.2839" cy="28.8977" r="0.602273" fill="#F1F1F1"/>
<circle opacity="0.33" cx="52.5793" cy="28.8977" r="0.602273" fill="#F1F1F1"/>
<circle opacity="0.88" cx="34.5115" cy="28.8977" r="0.602273" fill="#F1F1F1"/>
<circle opacity="0.51" cx="38.1252" cy="28.8977" r="0.602273" fill="#F1F1F1"/>
<circle opacity="0.55" cx="41.7385" cy="28.8977" r="0.602273" fill="#F1F1F1"/>
<circle opacity="0.39" cx="45.3523" cy="28.8977" r="0.602273" fill="#F1F1F1"/>
<circle opacity="0.23" cx="30.8977" cy="32.5113" r="0.602273" fill="#F1F1F1"/>
<circle opacity="0.59" cx="48.966" cy="28.8977" r="0.602273" fill="#F1F1F1"/>
<circle opacity="0.83" cx="5.60227" cy="32.5113" r="0.602273" fill="#F1F1F1"/>
<circle opacity="0.57" cx="9.21604" cy="32.5113" r="0.602273" fill="#F1F1F1"/>
<circle opacity="0.89" cx="12.8293" cy="32.5113" r="0.602273" fill="#F1F1F1"/>
<circle opacity="0.38" cx="16.4436" cy="32.5113" r="0.602273" fill="#F1F1F1"/>
<circle opacity="0.25" cx="20.0569" cy="32.5113" r="0.602273" fill="#F1F1F1"/>
<circle opacity="0.28" cx="23.6706" cy="32.5113" r="0.602273" fill="#F1F1F1"/>
<circle opacity="0.45" cx="27.2839" cy="32.5113" r="0.602273" fill="#F1F1F1"/>
<circle opacity="0.23" cx="52.5793" cy="32.5113" r="0.602273" fill="#F1F1F1"/>
<circle opacity="0.79" cx="34.5115" cy="32.5113" r="0.602273" fill="#F1F1F1"/>
<circle opacity="0.77" cx="38.1252" cy="32.5113" r="0.602273" fill="#F1F1F1"/>
<circle opacity="0.43" cx="41.7385" cy="32.5113" r="0.602273" fill="#F1F1F1"/>
<circle opacity="0.66" cx="30.8977" cy="36.125" r="0.602273" fill="#F1F1F1"/>
<circle opacity="0.29" cx="45.3523" cy="32.5113" r="0.602273" fill="#F1F1F1"/>
<circle opacity="0.55" cx="48.966" cy="32.5113" r="0.602273" fill="#F1F1F1"/>
<circle opacity="0.62" cx="5.60227" cy="36.125" r="0.602273" fill="#F1F1F1"/>
<circle opacity="0.65" cx="9.21604" cy="36.125" r="0.602273" fill="#F1F1F1"/>
<circle opacity="0.41" cx="12.8293" cy="36.125" r="0.602273" fill="#F1F1F1"/>
<circle opacity="0.26" cx="16.4436" cy="36.125" r="0.602273" fill="#F1F1F1"/>
<circle opacity="0.24" cx="20.0569" cy="36.125" r="0.602273" fill="#F1F1F1"/>
<circle opacity="0.68" cx="23.6706" cy="36.125" r="0.602273" fill="#F1F1F1"/>
<circle opacity="0.31" cx="27.2839" cy="36.125" r="0.602273" fill="#F1F1F1"/>
<circle opacity="0.66" cx="52.5793" cy="36.125" r="0.602273" fill="#F1F1F1"/>
<circle opacity="0.55" cx="34.5115" cy="36.125" r="0.602273" fill="#F1F1F1"/>
<circle opacity="0.52" cx="38.1252" cy="36.125" r="0.602273" fill="#F1F1F1"/>
<circle opacity="0.68" cx="30.8977" cy="39.7386" r="0.602273" fill="#F1F1F1"/>
<circle opacity="0.83" cx="41.7385" cy="36.125" r="0.602273" fill="#F1F1F1"/>
<circle opacity="0.66" cx="45.3523" cy="36.125" r="0.602273" fill="#F1F1F1"/>
<circle opacity="0.59" cx="48.966" cy="36.125" r="0.602273" fill="#F1F1F1"/>
<circle opacity="0.34" cx="5.60227" cy="39.7386" r="0.602273" fill="#F1F1F1"/>
<circle opacity="0.43" cx="9.21604" cy="39.7386" r="0.602273" fill="#F1F1F1"/>
<circle opacity="0.84" cx="12.8293" cy="39.7386" r="0.602273" fill="#F1F1F1"/>
<circle opacity="0.51" cx="16.4436" cy="39.7386" r="0.602273" fill="#F1F1F1"/>
<circle opacity="0.77" cx="20.0569" cy="39.7386" r="0.602273" fill="#F1F1F1"/>
<circle opacity="0.56" cx="23.6706" cy="39.7386" r="0.602273" fill="#F1F1F1"/>
<circle opacity="0.45" cx="27.2839" cy="39.7386" r="0.602273" fill="#F1F1F1"/>
<circle opacity="0.68" cx="52.5793" cy="39.7386" r="0.602273" fill="#F1F1F1"/>
<circle opacity="0.36" cx="34.5115" cy="39.7386" r="0.602273" fill="#F1F1F1"/>
<circle opacity="0.26" cx="30.8977" cy="43.3523" r="0.602273" fill="#F1F1F1"/>
<circle opacity="0.28" cx="38.1252" cy="39.7386" r="0.602273" fill="#F1F1F1"/>
<circle opacity="0.67" cx="41.7385" cy="39.7386" r="0.602273" fill="#F1F1F1"/>
<circle opacity="0.28" cx="45.3523" cy="39.7386" r="0.602273" fill="#F1F1F1"/>
<circle opacity="0.74" cx="48.966" cy="39.7386" r="0.602273" fill="#F1F1F1"/>
<circle opacity="0.72" cx="5.60227" cy="43.3523" r="0.602273" fill="#F1F1F1"/>
<circle opacity="0.58" cx="9.21604" cy="43.3523" r="0.602273" fill="#F1F1F1"/>
<circle opacity="0.62" cx="12.8293" cy="43.3523" r="0.602273" fill="#F1F1F1"/>
<circle opacity="0.63" cx="16.4436" cy="43.3523" r="0.602273" fill="#F1F1F1"/>
<circle opacity="0.6" cx="20.0569" cy="43.3523" r="0.602273" fill="#F1F1F1"/>
<circle opacity="0.49" cx="23.6706" cy="43.3523" r="0.602273" fill="#F1F1F1"/>
<circle opacity="0.45" cx="27.2839" cy="43.3523" r="0.602273" fill="#F1F1F1"/>
<circle opacity="0.26" cx="52.5793" cy="43.3523" r="0.602273" fill="#F1F1F1"/>
<circle opacity="0.57" cx="30.8977" cy="46.9659" r="0.602273" fill="#F1F1F1"/>
<circle opacity="0.21" cx="34.5115" cy="43.3523" r="0.602273" fill="#F1F1F1"/>
<circle opacity="0.67" cx="38.1252" cy="43.3523" r="0.602273" fill="#F1F1F1"/>
<circle opacity="0.3" cx="41.7385" cy="43.3523" r="0.602273" fill="#F1F1F1"/>
<circle opacity="0.28" cx="45.3523" cy="43.3523" r="0.602273" fill="#F1F1F1"/>
<circle opacity="0.29" cx="48.966" cy="43.3523" r="0.602273" fill="#F1F1F1"/>
<circle opacity="0.4" cx="5.60227" cy="46.9659" r="0.602273" fill="#F1F1F1"/>
<circle opacity="0.28" cx="9.21604" cy="46.9659" r="0.602273" fill="#F1F1F1"/>
<circle opacity="0.29" cx="12.8293" cy="46.9659" r="0.602273" fill="#F1F1F1"/>
<circle opacity="0.41" cx="16.4436" cy="46.9659" r="0.602273" fill="#F1F1F1"/>
<circle opacity="0.88" cx="20.0569" cy="46.9659" r="0.602273" fill="#F1F1F1"/>
<circle opacity="0.88" cx="23.6706" cy="46.9659" r="0.602273" fill="#F1F1F1"/>
<circle opacity="0.83" cx="27.2839" cy="46.9659" r="0.602273" fill="#F1F1F1"/>
<circle opacity="0.56" cx="30.8977" cy="50.5796" r="0.602273" fill="#F1F1F1"/>
<circle opacity="0.57" cx="52.5793" cy="46.9659" r="0.602273" fill="#F1F1F1"/>
<circle opacity="0.67" cx="34.5115" cy="46.9659" r="0.602273" fill="#F1F1F1"/>
<circle opacity="0.9" cx="38.1252" cy="46.9659" r="0.602273" fill="#F1F1F1"/>
<circle opacity="0.47" cx="41.7385" cy="46.9659" r="0.602273" fill="#F1F1F1"/>
<circle opacity="0.4" cx="45.3523" cy="46.9659" r="0.602273" fill="#F1F1F1"/>
<circle opacity="0.58" cx="48.966" cy="46.9659" r="0.602273" fill="#F1F1F1"/>
<circle opacity="0.59" cx="5.60227" cy="50.5796" r="0.602273" fill="#F1F1F1"/>
<circle opacity="0.66" cx="9.21604" cy="50.5796" r="0.602273" fill="#F1F1F1"/>
<circle opacity="0.73" cx="12.8293" cy="50.5796" r="0.602273" fill="#F1F1F1"/>
<circle opacity="0.84" cx="16.4436" cy="50.5796" r="0.602273" fill="#F1F1F1"/>
<circle opacity="0.62" cx="20.0569" cy="50.5796" r="0.602273" fill="#F1F1F1"/>
<circle opacity="0.77" cx="23.6706" cy="50.5796" r="0.602273" fill="#F1F1F1"/>
<circle opacity="0.41" cx="27.2839" cy="50.5796" r="0.602273" fill="#F1F1F1"/>
<circle opacity="0.56" cx="52.5793" cy="50.5796" r="0.602273" fill="#F1F1F1"/>
<circle opacity="0.39" cx="34.5115" cy="50.5796" r="0.602273" fill="#F1F1F1"/>
<circle opacity="0.5" cx="38.1252" cy="50.5796" r="0.602273" fill="#F1F1F1"/>
<circle opacity="0.47" cx="41.7385" cy="50.5796" r="0.602273" fill="#F1F1F1"/>
<circle opacity="0.73" cx="45.3523" cy="50.5796" r="0.602273" fill="#F1F1F1"/>
<circle opacity="0.63" cx="48.966" cy="50.5796" r="0.602273" fill="#F1F1F1"/>
<path opacity="0.2" d="M36.666 16V38C36.666 38.5304 36.4553 39.0391 36.0802 39.4142C35.7052 39.7893 35.1964 40 34.666 40H22.666C22.1356 40 21.6269 39.7893 21.2518 39.4142C20.8767 39.0391 20.666 38.5304 20.666 38V16C20.666 15.4696 20.8767 14.9609 21.2518 14.5858C21.6269 14.2107 22.1356 14 22.666 14H34.666C35.1964 14 35.7052 14.2107 36.0802 14.5858C36.4553 14.9609 36.666 15.4696 36.666 16Z" fill="#121212"/>
<path d="M34.666 13H22.666C21.8704 13 21.1073 13.3161 20.5447 13.8787C19.9821 14.4413 19.666 15.2044 19.666 16V38C19.666 38.7956 19.9821 39.5587 20.5447 40.1213C21.1073 40.6839 21.8704 41 22.666 41H34.666C35.4617 41 36.2247 40.6839 36.7873 40.1213C37.3499 39.5587 37.666 38.7956 37.666 38V16C37.666 15.2044 37.3499 14.4413 36.7873 13.8787C36.2247 13.3161 35.4617 13 34.666 13ZM35.666 38C35.666 38.2652 35.5607 38.5196 35.3731 38.7071C35.1856 38.8946 34.9312 39 34.666 39H22.666C22.4008 39 22.1464 38.8946 21.9589 38.7071C21.7714 38.5196 21.666 38.2652 21.666 38V16C21.666 15.7348 21.7714 15.4804 21.9589 15.2929C22.1464 15.1054 22.4008 15 22.666 15H34.666C34.9312 15 35.1856 15.1054 35.3731 15.2929C35.5607 15.4804 35.666 15.7348 35.666 16V38ZM33.666 18C33.666 18.2652 33.5607 18.5196 33.3731 18.7071C33.1856 18.8946 32.9312 19 32.666 19H24.666C24.4008 19 24.1464 18.8946 23.9589 18.7071C23.7714 18.5196 23.666 18.2652 23.666 18C23.666 17.7348 23.7714 17.4804 23.9589 17.2929C24.1464 17.1054 24.4008 17 24.666 17H32.666C32.9312 17 33.1856 17.1054 33.3731 17.2929C33.5607 17.4804 33.666 17.7348 33.666 18Z" fill="#121212"/>
</g>
<rect x="5.60227" y="3.60227" width="46.7955" height="46.7955" rx="9.03409" stroke="url(#paint0_linear_414_10451)" stroke-opacity="0.3" stroke-width="1.20455"/>
</g>
<defs>
<filter id="filter0_ddi_414_10451" x="0.181818" y="0.590908" width="57.6364" height="57.6364" filterUnits="userSpaceOnUse" color-interpolation-filters="sRGB">
<feFlood flood-opacity="0" result="BackgroundImageFix"/>
<feColorMatrix in="SourceAlpha" type="matrix" values="0 0 0 0 0 0 0 0 0 0 0 0 0 0 0 0 0 0 127 0" result="hardAlpha"/>
<feMorphology radius="1.20455" operator="dilate" in="SourceAlpha" result="effect1_dropShadow_414_10451"/>
<feOffset/>
<feComposite in2="hardAlpha" operator="out"/>
<feColorMatrix type="matrix" values="0 0 0 0 0.87451 0 0 0 0 0.87451 0 0 0 0 0.87451 0 0 0 1 0"/>
<feBlend mode="normal" in2="BackgroundImageFix" result="effect1_dropShadow_414_10451"/>
<feColorMatrix in="SourceAlpha" type="matrix" values="0 0 0 0 0 0 0 0 0 0 0 0 0 0 0 0 0 0 127 0" result="hardAlpha"/>
<feMorphology radius="1.20455" operator="erode" in="SourceAlpha" result="effect2_dropShadow_414_10451"/>
<feOffset dy="2.40909"/>
<feGaussianBlur stdDeviation="3.01136"/>
<feComposite in2="hardAlpha" operator="out"/>
<feColorMatrix type="matrix" values="0 0 0 0 0.161857 0 0 0 0 0.171682 0 0 0 0 0.197884 0 0 0 0.5 0"/>
<feBlend mode="normal" in2="effect1_dropShadow_414_10451" result="effect2_dropShadow_414_10451"/>
<feBlend mode="normal" in="SourceGraphic" in2="effect2_dropShadow_414_10451" result="shape"/>
<feColorMatrix in="SourceAlpha" type="matrix" values="0 0 0 0 0 0 0 0 0 0 0 0 0 0 0 0 0 0 127 0" result="hardAlpha"/>
<feOffset dy="-4.81818"/>
<feComposite in2="hardAlpha" operator="arithmetic" k2="-1" k3="1"/>
<feColorMatrix type="matrix" values="0 0 0 0 0.87451 0 0 0 0 0.87451 0 0 0 0 0.87451 0 0 0 0.7 0"/>
<feBlend mode="normal" in2="shape" result="effect3_innerShadow_414_10451"/>
</filter>
<linearGradient id="paint0_linear_414_10451" x1="29" y1="3" x2="29" y2="51" gradientUnits="userSpaceOnUse">
<stop offset="0.09375" stop-color="white" stop-opacity="0"/>
<stop offset="1" stop-color="white"/>
</linearGradient>
<clipPath id="clip0_414_10451">
<rect x="5" y="3" width="48" height="48" rx="9.63636" fill="white"/>
</clipPath>
</defs>
</svg>
