<svg width="58" height="59" viewBox="0 0 58 59" fill="none" xmlns="http://www.w3.org/2000/svg">
<g filter="url(#filter0_ddi_414_10919)">
<g clip-path="url(#clip0_414_10919)">
<rect x="5" y="3" width="48" height="48" rx="9.63636" fill="white"/>
<circle opacity="0.87" cx="5.60227" cy="7.21592" r="0.602273" fill="#F1F1F1"/>
<circle opacity="0.44" cx="9.21604" cy="7.21592" r="0.602273" fill="#F1F1F1"/>
<circle opacity="0.69" cx="12.8293" cy="7.21592" r="0.602273" fill="#F1F1F1"/>
<circle opacity="0.73" cx="16.4436" cy="7.21592" r="0.602273" fill="#F1F1F1"/>
<circle opacity="0.66" cx="20.0569" cy="7.21592" r="0.602273" fill="#F1F1F1"/>
<circle opacity="0.39" cx="23.6706" cy="7.21592" r="0.602273" fill="#F1F1F1"/>
<circle opacity="0.77" cx="27.2839" cy="7.21592" r="0.602273" fill="#F1F1F1"/>
<circle opacity="0.78" cx="30.8977" cy="7.21592" r="0.602273" fill="#F1F1F1"/>
<circle opacity="0.78" cx="52.5793" cy="7.21592" r="0.602273" fill="#F1F1F1"/>
<circle opacity="0.37" cx="34.5115" cy="7.21592" r="0.602273" fill="#F1F1F1"/>
<circle opacity="0.52" cx="38.1252" cy="7.21592" r="0.602273" fill="#F1F1F1"/>
<circle opacity="0.56" cx="41.7385" cy="7.21592" r="0.602273" fill="#F1F1F1"/>
<circle opacity="0.51" cx="45.3523" cy="7.21592" r="0.602273" fill="#F1F1F1"/>
<circle opacity="0.78" cx="48.966" cy="7.21592" r="0.602273" fill="#F1F1F1"/>
<circle opacity="0.72" cx="5.60227" cy="10.8296" r="0.602273" fill="#F1F1F1"/>
<circle opacity="0.85" cx="9.21604" cy="10.8296" r="0.602273" fill="#F1F1F1"/>
<circle opacity="0.79" cx="12.8293" cy="10.8296" r="0.602273" fill="#F1F1F1"/>
<circle opacity="0.52" cx="16.4436" cy="10.8296" r="0.602273" fill="#F1F1F1"/>
<circle opacity="0.74" cx="20.0569" cy="10.8296" r="0.602273" fill="#F1F1F1"/>
<circle opacity="0.53" cx="23.6706" cy="10.8296" r="0.602273" fill="#F1F1F1"/>
<circle opacity="0.51" cx="30.8977" cy="10.8296" r="0.602273" fill="#F1F1F1"/>
<circle opacity="0.23" cx="27.2839" cy="10.8296" r="0.602273" fill="#F1F1F1"/>
<circle opacity="0.51" cx="52.5793" cy="10.8296" r="0.602273" fill="#F1F1F1"/>
<circle opacity="0.27" cx="34.5115" cy="10.8296" r="0.602273" fill="#F1F1F1"/>
<circle opacity="0.87" cx="38.1252" cy="10.8296" r="0.602273" fill="#F1F1F1"/>
<circle opacity="0.51" cx="41.7385" cy="10.8296" r="0.602273" fill="#F1F1F1"/>
<circle opacity="0.2" cx="45.3523" cy="10.8296" r="0.602273" fill="#F1F1F1"/>
<circle opacity="0.74" cx="48.966" cy="10.8296" r="0.602273" fill="#F1F1F1"/>
<circle opacity="0.42" cx="5.60227" cy="14.4432" r="0.602273" fill="#F1F1F1"/>
<circle opacity="0.88" cx="9.21604" cy="14.4432" r="0.602273" fill="#F1F1F1"/>
<circle opacity="0.58" cx="12.8293" cy="14.4432" r="0.602273" fill="#F1F1F1"/>
<circle opacity="0.36" cx="16.4436" cy="14.4432" r="0.602273" fill="#F1F1F1"/>
<circle opacity="0.49" cx="20.0569" cy="14.4432" r="0.602273" fill="#F1F1F1"/>
<circle opacity="0.8" cx="30.8977" cy="14.4432" r="0.602273" fill="#F1F1F1"/>
<circle opacity="0.88" cx="23.6706" cy="14.4432" r="0.602273" fill="#F1F1F1"/>
<circle opacity="0.55" cx="27.2839" cy="14.4432" r="0.602273" fill="#F1F1F1"/>
<circle opacity="0.8" cx="52.5793" cy="14.4432" r="0.602273" fill="#F1F1F1"/>
<circle opacity="0.75" cx="34.5115" cy="14.4432" r="0.602273" fill="#F1F1F1"/>
<circle opacity="0.87" cx="38.1252" cy="14.4432" r="0.602273" fill="#F1F1F1"/>
<circle opacity="0.33" cx="41.7385" cy="14.4432" r="0.602273" fill="#F1F1F1"/>
<circle opacity="0.84" cx="45.3523" cy="14.4432" r="0.602273" fill="#F1F1F1"/>
<circle opacity="0.83" cx="48.966" cy="14.4432" r="0.602273" fill="#F1F1F1"/>
<circle opacity="0.42" cx="5.60227" cy="3.60227" r="0.602273" fill="#F1F1F1"/>
<circle opacity="0.88" cx="9.21604" cy="3.60227" r="0.602273" fill="#F1F1F1"/>
<circle opacity="0.58" cx="12.8293" cy="3.60227" r="0.602273" fill="#F1F1F1"/>
<circle opacity="0.36" cx="16.4436" cy="3.60227" r="0.602273" fill="#F1F1F1"/>
<circle opacity="0.8" cx="30.8977" cy="3.60227" r="0.602273" fill="#F1F1F1"/>
<circle opacity="0.49" cx="20.0569" cy="3.60227" r="0.602273" fill="#F1F1F1"/>
<circle opacity="0.88" cx="23.6706" cy="3.60227" r="0.602273" fill="#F1F1F1"/>
<circle opacity="0.55" cx="27.2839" cy="3.60227" r="0.602273" fill="#F1F1F1"/>
<circle opacity="0.8" cx="52.5793" cy="3.60227" r="0.602273" fill="#F1F1F1"/>
<circle opacity="0.75" cx="34.5115" cy="3.60227" r="0.602273" fill="#F1F1F1"/>
<circle opacity="0.87" cx="38.1252" cy="3.60227" r="0.602273" fill="#F1F1F1"/>
<circle opacity="0.33" cx="41.7385" cy="3.60227" r="0.602273" fill="#F1F1F1"/>
<circle opacity="0.84" cx="45.3523" cy="3.60227" r="0.602273" fill="#F1F1F1"/>
<circle opacity="0.83" cx="48.966" cy="3.60227" r="0.602273" fill="#F1F1F1"/>
<circle opacity="0.62" cx="5.60227" cy="18.0569" r="0.602273" fill="#F1F1F1"/>
<circle opacity="0.62" cx="9.21604" cy="18.0569" r="0.602273" fill="#F1F1F1"/>
<circle opacity="0.35" cx="12.8293" cy="18.0569" r="0.602273" fill="#F1F1F1"/>
<circle opacity="0.65" cx="30.8977" cy="18.0569" r="0.602273" fill="#F1F1F1"/>
<circle opacity="0.53" cx="16.4436" cy="18.0569" r="0.602273" fill="#F1F1F1"/>
<circle opacity="0.4" cx="20.0569" cy="18.0569" r="0.602273" fill="#F1F1F1"/>
<circle opacity="0.67" cx="23.6706" cy="18.0569" r="0.602273" fill="#F1F1F1"/>
<circle opacity="0.64" cx="27.2839" cy="18.0569" r="0.602273" fill="#F1F1F1"/>
<circle opacity="0.65" cx="52.5793" cy="18.0569" r="0.602273" fill="#F1F1F1"/>
<circle opacity="0.53" cx="34.5115" cy="18.0569" r="0.602273" fill="#F1F1F1"/>
<circle opacity="0.76" cx="38.1252" cy="18.0569" r="0.602273" fill="#F1F1F1"/>
<circle opacity="0.54" cx="41.7385" cy="18.0569" r="0.602273" fill="#F1F1F1"/>
<circle opacity="0.36" cx="45.3523" cy="18.0569" r="0.602273" fill="#F1F1F1"/>
<circle opacity="0.27" cx="48.966" cy="18.0569" r="0.602273" fill="#F1F1F1"/>
<circle opacity="0.37" cx="5.60227" cy="21.6704" r="0.602273" fill="#F1F1F1"/>
<circle opacity="0.8" cx="9.21604" cy="21.6704" r="0.602273" fill="#F1F1F1"/>
<circle opacity="0.79" cx="30.8977" cy="21.6704" r="0.602273" fill="#F1F1F1"/>
<circle opacity="0.44" cx="12.8293" cy="21.6704" r="0.602273" fill="#F1F1F1"/>
<circle opacity="0.49" cx="16.4436" cy="21.6704" r="0.602273" fill="#F1F1F1"/>
<circle opacity="0.37" cx="20.0569" cy="21.6704" r="0.602273" fill="#F1F1F1"/>
<circle opacity="0.34" cx="23.6706" cy="21.6704" r="0.602273" fill="#F1F1F1"/>
<circle opacity="0.31" cx="27.2839" cy="21.6704" r="0.602273" fill="#F1F1F1"/>
<circle opacity="0.79" cx="52.5793" cy="21.6704" r="0.602273" fill="#F1F1F1"/>
<circle opacity="0.7" cx="34.5115" cy="21.6704" r="0.602273" fill="#F1F1F1"/>
<circle opacity="0.51" cx="38.1252" cy="21.6704" r="0.602273" fill="#F1F1F1"/>
<circle opacity="0.33" cx="41.7385" cy="21.6704" r="0.602273" fill="#F1F1F1"/>
<circle opacity="0.4" cx="45.3523" cy="21.6704" r="0.602273" fill="#F1F1F1"/>
<circle opacity="0.59" cx="48.966" cy="21.6704" r="0.602273" fill="#F1F1F1"/>
<circle opacity="0.39" cx="5.60227" cy="25.2842" r="0.602273" fill="#F1F1F1"/>
<circle opacity="0.43" cx="30.8977" cy="25.2842" r="0.602273" fill="#F1F1F1"/>
<circle opacity="0.8" cx="9.21604" cy="25.2842" r="0.602273" fill="#F1F1F1"/>
<circle opacity="0.49" cx="12.8293" cy="25.2842" r="0.602273" fill="#F1F1F1"/>
<circle opacity="0.62" cx="16.4436" cy="25.2842" r="0.602273" fill="#F1F1F1"/>
<circle opacity="0.81" cx="20.0569" cy="25.2842" r="0.602273" fill="#F1F1F1"/>
<circle opacity="0.8" cx="23.6706" cy="25.2842" r="0.602273" fill="#F1F1F1"/>
<circle opacity="0.84" cx="27.2839" cy="25.2842" r="0.602273" fill="#F1F1F1"/>
<circle opacity="0.43" cx="52.5793" cy="25.2842" r="0.602273" fill="#F1F1F1"/>
<circle opacity="0.38" cx="34.5115" cy="25.2842" r="0.602273" fill="#F1F1F1"/>
<circle opacity="0.37" cx="38.1252" cy="25.2842" r="0.602273" fill="#F1F1F1"/>
<circle opacity="0.76" cx="41.7385" cy="25.2842" r="0.602273" fill="#F1F1F1"/>
<circle opacity="0.41" cx="45.3523" cy="25.2842" r="0.602273" fill="#F1F1F1"/>
<circle opacity="0.48" cx="48.966" cy="25.2842" r="0.602273" fill="#F1F1F1"/>
<circle opacity="0.33" cx="30.8977" cy="28.8977" r="0.602273" fill="#F1F1F1"/>
<circle opacity="0.52" cx="5.60227" cy="28.8977" r="0.602273" fill="#F1F1F1"/>
<circle opacity="0.34" cx="9.21604" cy="28.8977" r="0.602273" fill="#F1F1F1"/>
<circle opacity="0.9" cx="12.8293" cy="28.8977" r="0.602273" fill="#F1F1F1"/>
<circle opacity="0.48" cx="16.4436" cy="28.8977" r="0.602273" fill="#F1F1F1"/>
<circle opacity="0.67" cx="20.0569" cy="28.8977" r="0.602273" fill="#F1F1F1"/>
<circle opacity="0.37" cx="23.6706" cy="28.8977" r="0.602273" fill="#F1F1F1"/>
<circle opacity="0.66" cx="27.2839" cy="28.8977" r="0.602273" fill="#F1F1F1"/>
<circle opacity="0.33" cx="52.5793" cy="28.8977" r="0.602273" fill="#F1F1F1"/>
<circle opacity="0.88" cx="34.5115" cy="28.8977" r="0.602273" fill="#F1F1F1"/>
<circle opacity="0.51" cx="38.1252" cy="28.8977" r="0.602273" fill="#F1F1F1"/>
<circle opacity="0.55" cx="41.7385" cy="28.8977" r="0.602273" fill="#F1F1F1"/>
<circle opacity="0.39" cx="45.3523" cy="28.8977" r="0.602273" fill="#F1F1F1"/>
<circle opacity="0.23" cx="30.8977" cy="32.5113" r="0.602273" fill="#F1F1F1"/>
<circle opacity="0.59" cx="48.966" cy="28.8977" r="0.602273" fill="#F1F1F1"/>
<circle opacity="0.83" cx="5.60227" cy="32.5113" r="0.602273" fill="#F1F1F1"/>
<circle opacity="0.57" cx="9.21604" cy="32.5113" r="0.602273" fill="#F1F1F1"/>
<circle opacity="0.89" cx="12.8293" cy="32.5113" r="0.602273" fill="#F1F1F1"/>
<circle opacity="0.38" cx="16.4436" cy="32.5113" r="0.602273" fill="#F1F1F1"/>
<circle opacity="0.25" cx="20.0569" cy="32.5113" r="0.602273" fill="#F1F1F1"/>
<circle opacity="0.28" cx="23.6706" cy="32.5113" r="0.602273" fill="#F1F1F1"/>
<circle opacity="0.45" cx="27.2839" cy="32.5113" r="0.602273" fill="#F1F1F1"/>
<circle opacity="0.23" cx="52.5793" cy="32.5113" r="0.602273" fill="#F1F1F1"/>
<circle opacity="0.79" cx="34.5115" cy="32.5113" r="0.602273" fill="#F1F1F1"/>
<circle opacity="0.77" cx="38.1252" cy="32.5113" r="0.602273" fill="#F1F1F1"/>
<circle opacity="0.43" cx="41.7385" cy="32.5113" r="0.602273" fill="#F1F1F1"/>
<circle opacity="0.66" cx="30.8977" cy="36.125" r="0.602273" fill="#F1F1F1"/>
<circle opacity="0.29" cx="45.3523" cy="32.5113" r="0.602273" fill="#F1F1F1"/>
<circle opacity="0.55" cx="48.966" cy="32.5113" r="0.602273" fill="#F1F1F1"/>
<circle opacity="0.62" cx="5.60227" cy="36.125" r="0.602273" fill="#F1F1F1"/>
<circle opacity="0.65" cx="9.21604" cy="36.125" r="0.602273" fill="#F1F1F1"/>
<circle opacity="0.41" cx="12.8293" cy="36.125" r="0.602273" fill="#F1F1F1"/>
<circle opacity="0.26" cx="16.4436" cy="36.125" r="0.602273" fill="#F1F1F1"/>
<circle opacity="0.24" cx="20.0569" cy="36.125" r="0.602273" fill="#F1F1F1"/>
<circle opacity="0.68" cx="23.6706" cy="36.125" r="0.602273" fill="#F1F1F1"/>
<circle opacity="0.31" cx="27.2839" cy="36.125" r="0.602273" fill="#F1F1F1"/>
<circle opacity="0.66" cx="52.5793" cy="36.125" r="0.602273" fill="#F1F1F1"/>
<circle opacity="0.55" cx="34.5115" cy="36.125" r="0.602273" fill="#F1F1F1"/>
<circle opacity="0.52" cx="38.1252" cy="36.125" r="0.602273" fill="#F1F1F1"/>
<circle opacity="0.68" cx="30.8977" cy="39.7386" r="0.602273" fill="#F1F1F1"/>
<circle opacity="0.83" cx="41.7385" cy="36.125" r="0.602273" fill="#F1F1F1"/>
<circle opacity="0.66" cx="45.3523" cy="36.125" r="0.602273" fill="#F1F1F1"/>
<circle opacity="0.59" cx="48.966" cy="36.125" r="0.602273" fill="#F1F1F1"/>
<circle opacity="0.34" cx="5.60227" cy="39.7386" r="0.602273" fill="#F1F1F1"/>
<circle opacity="0.43" cx="9.21604" cy="39.7386" r="0.602273" fill="#F1F1F1"/>
<circle opacity="0.84" cx="12.8293" cy="39.7386" r="0.602273" fill="#F1F1F1"/>
<circle opacity="0.51" cx="16.4436" cy="39.7386" r="0.602273" fill="#F1F1F1"/>
<circle opacity="0.77" cx="20.0569" cy="39.7386" r="0.602273" fill="#F1F1F1"/>
<circle opacity="0.56" cx="23.6706" cy="39.7386" r="0.602273" fill="#F1F1F1"/>
<circle opacity="0.45" cx="27.2839" cy="39.7386" r="0.602273" fill="#F1F1F1"/>
<circle opacity="0.68" cx="52.5793" cy="39.7386" r="0.602273" fill="#F1F1F1"/>
<circle opacity="0.36" cx="34.5115" cy="39.7386" r="0.602273" fill="#F1F1F1"/>
<circle opacity="0.26" cx="30.8977" cy="43.3523" r="0.602273" fill="#F1F1F1"/>
<circle opacity="0.28" cx="38.1252" cy="39.7386" r="0.602273" fill="#F1F1F1"/>
<circle opacity="0.67" cx="41.7385" cy="39.7386" r="0.602273" fill="#F1F1F1"/>
<circle opacity="0.28" cx="45.3523" cy="39.7386" r="0.602273" fill="#F1F1F1"/>
<circle opacity="0.74" cx="48.966" cy="39.7386" r="0.602273" fill="#F1F1F1"/>
<circle opacity="0.72" cx="5.60227" cy="43.3523" r="0.602273" fill="#F1F1F1"/>
<circle opacity="0.58" cx="9.21604" cy="43.3523" r="0.602273" fill="#F1F1F1"/>
<circle opacity="0.62" cx="12.8293" cy="43.3523" r="0.602273" fill="#F1F1F1"/>
<circle opacity="0.63" cx="16.4436" cy="43.3523" r="0.602273" fill="#F1F1F1"/>
<circle opacity="0.6" cx="20.0569" cy="43.3523" r="0.602273" fill="#F1F1F1"/>
<circle opacity="0.49" cx="23.6706" cy="43.3523" r="0.602273" fill="#F1F1F1"/>
<circle opacity="0.45" cx="27.2839" cy="43.3523" r="0.602273" fill="#F1F1F1"/>
<circle opacity="0.26" cx="52.5793" cy="43.3523" r="0.602273" fill="#F1F1F1"/>
<circle opacity="0.57" cx="30.8977" cy="46.9659" r="0.602273" fill="#F1F1F1"/>
<circle opacity="0.21" cx="34.5115" cy="43.3523" r="0.602273" fill="#F1F1F1"/>
<circle opacity="0.67" cx="38.1252" cy="43.3523" r="0.602273" fill="#F1F1F1"/>
<circle opacity="0.3" cx="41.7385" cy="43.3523" r="0.602273" fill="#F1F1F1"/>
<circle opacity="0.28" cx="45.3523" cy="43.3523" r="0.602273" fill="#F1F1F1"/>
<circle opacity="0.29" cx="48.966" cy="43.3523" r="0.602273" fill="#F1F1F1"/>
<circle opacity="0.4" cx="5.60227" cy="46.9659" r="0.602273" fill="#F1F1F1"/>
<circle opacity="0.28" cx="9.21604" cy="46.9659" r="0.602273" fill="#F1F1F1"/>
<circle opacity="0.29" cx="12.8293" cy="46.9659" r="0.602273" fill="#F1F1F1"/>
<circle opacity="0.41" cx="16.4436" cy="46.9659" r="0.602273" fill="#F1F1F1"/>
<circle opacity="0.88" cx="20.0569" cy="46.9659" r="0.602273" fill="#F1F1F1"/>
<circle opacity="0.88" cx="23.6706" cy="46.9659" r="0.602273" fill="#F1F1F1"/>
<circle opacity="0.83" cx="27.2839" cy="46.9659" r="0.602273" fill="#F1F1F1"/>
<circle opacity="0.56" cx="30.8977" cy="50.5796" r="0.602273" fill="#F1F1F1"/>
<circle opacity="0.57" cx="52.5793" cy="46.9659" r="0.602273" fill="#F1F1F1"/>
<circle opacity="0.67" cx="34.5115" cy="46.9659" r="0.602273" fill="#F1F1F1"/>
<circle opacity="0.9" cx="38.1252" cy="46.9659" r="0.602273" fill="#F1F1F1"/>
<circle opacity="0.47" cx="41.7385" cy="46.9659" r="0.602273" fill="#F1F1F1"/>
<circle opacity="0.4" cx="45.3523" cy="46.9659" r="0.602273" fill="#F1F1F1"/>
<circle opacity="0.58" cx="48.966" cy="46.9659" r="0.602273" fill="#F1F1F1"/>
<circle opacity="0.59" cx="5.60227" cy="50.5796" r="0.602273" fill="#F1F1F1"/>
<circle opacity="0.66" cx="9.21604" cy="50.5796" r="0.602273" fill="#F1F1F1"/>
<circle opacity="0.73" cx="12.8293" cy="50.5796" r="0.602273" fill="#F1F1F1"/>
<circle opacity="0.84" cx="16.4436" cy="50.5796" r="0.602273" fill="#F1F1F1"/>
<circle opacity="0.62" cx="20.0569" cy="50.5796" r="0.602273" fill="#F1F1F1"/>
<circle opacity="0.77" cx="23.6706" cy="50.5796" r="0.602273" fill="#F1F1F1"/>
<circle opacity="0.41" cx="27.2839" cy="50.5796" r="0.602273" fill="#F1F1F1"/>
<circle opacity="0.56" cx="52.5793" cy="50.5796" r="0.602273" fill="#F1F1F1"/>
<circle opacity="0.39" cx="34.5115" cy="50.5796" r="0.602273" fill="#F1F1F1"/>
<circle opacity="0.5" cx="38.1252" cy="50.5796" r="0.602273" fill="#F1F1F1"/>
<circle opacity="0.47" cx="41.7385" cy="50.5796" r="0.602273" fill="#F1F1F1"/>
<circle opacity="0.73" cx="45.3523" cy="50.5796" r="0.602273" fill="#F1F1F1"/>
<circle opacity="0.63" cx="48.966" cy="50.5796" r="0.602273" fill="#F1F1F1"/>
<path opacity="0.2" d="M21 25V29C21 29.2652 20.8946 29.5196 20.7071 29.7071C20.5196 29.8946 20.2652 30 20 30H16C15.7348 30 15.4804 29.8946 15.2929 29.7071C15.1054 29.5196 15 29.2652 15 29V25C15 24.7348 15.1054 24.4804 15.2929 24.2929C15.4804 24.1054 15.7348 24 16 24H20C20.2652 24 20.5196 24.1054 20.7071 24.2929C20.8946 24.4804 21 24.7348 21 25ZM39 16H33C32.7348 16 32.4804 16.1054 32.2929 16.2929C32.1054 16.4804 32 16.7348 32 17V23C32 23.2652 32.1054 23.5196 32.2929 23.7071C32.4804 23.8946 32.7348 24 33 24H39C39.2652 24 39.5196 23.8946 39.7071 23.7071C39.8946 23.5196 40 23.2652 40 23V17C40 16.7348 39.8946 16.4804 39.7071 16.2929C39.5196 16.1054 39.2652 16 39 16ZM39 30H33C32.7348 30 32.4804 30.1054 32.2929 30.2929C32.1054 30.4804 32 30.7348 32 31V37C32 37.2652 32.1054 37.5196 32.2929 37.7071C32.4804 37.8946 32.7348 38 33 38H39C39.2652 38 39.5196 37.8946 39.7071 37.7071C39.8946 37.5196 40 37.2652 40 37V31C40 30.7348 39.8946 30.4804 39.7071 30.2929C39.5196 30.1054 39.2652 30 39 30Z" fill="black"/>
<path d="M33 25H39C39.5304 25 40.0391 24.7893 40.4142 24.4142C40.7893 24.0391 41 23.5304 41 23V17C41 16.4696 40.7893 15.9609 40.4142 15.5858C40.0391 15.2107 39.5304 15 39 15H33C32.4696 15 31.9609 15.2107 31.5858 15.5858C31.2107 15.9609 31 16.4696 31 17V19H29C28.2044 19 27.4413 19.3161 26.8787 19.8787C26.3161 20.4413 26 21.2044 26 22V26H22V25C22 24.4696 21.7893 23.9609 21.4142 23.5858C21.0391 23.2107 20.5304 23 20 23H16C15.4696 23 14.9609 23.2107 14.5858 23.5858C14.2107 23.9609 14 24.4696 14 25V29C14 29.5304 14.2107 30.0391 14.5858 30.4142C14.9609 30.7893 15.4696 31 16 31H20C20.5304 31 21.0391 30.7893 21.4142 30.4142C21.7893 30.0391 22 29.5304 22 29V28H26V32C26 32.7956 26.3161 33.5587 26.8787 34.1213C27.4413 34.6839 28.2044 35 29 35H31V37C31 37.5304 31.2107 38.0391 31.5858 38.4142C31.9609 38.7893 32.4696 39 33 39H39C39.5304 39 40.0391 38.7893 40.4142 38.4142C40.7893 38.0391 41 37.5304 41 37V31C41 30.4696 40.7893 29.9609 40.4142 29.5858C40.0391 29.2107 39.5304 29 39 29H33C32.4696 29 31.9609 29.2107 31.5858 29.5858C31.2107 29.9609 31 30.4696 31 31V33H29C28.7348 33 28.4804 32.8946 28.2929 32.7071C28.1054 32.5196 28 32.2652 28 32V22C28 21.7348 28.1054 21.4804 28.2929 21.2929C28.4804 21.1054 28.7348 21 29 21H31V23C31 23.5304 31.2107 24.0391 31.5858 24.4142C31.9609 24.7893 32.4696 25 33 25ZM20 29H16V25H20V29ZM33 31H39V37H33V31ZM33 17H39V23H33V17Z" fill="black"/>
</g>
<rect x="5.60227" y="3.60227" width="46.7955" height="46.7955" rx="9.03409" stroke="url(#paint0_linear_414_10919)" stroke-opacity="0.3" stroke-width="1.20455"/>
</g>
<defs>
<filter id="filter0_ddi_414_10919" x="0.181818" y="0.590908" width="57.6364" height="57.6364" filterUnits="userSpaceOnUse" color-interpolation-filters="sRGB">
<feFlood flood-opacity="0" result="BackgroundImageFix"/>
<feColorMatrix in="SourceAlpha" type="matrix" values="0 0 0 0 0 0 0 0 0 0 0 0 0 0 0 0 0 0 127 0" result="hardAlpha"/>
<feMorphology radius="1.20455" operator="dilate" in="SourceAlpha" result="effect1_dropShadow_414_10919"/>
<feOffset/>
<feComposite in2="hardAlpha" operator="out"/>
<feColorMatrix type="matrix" values="0 0 0 0 0.87451 0 0 0 0 0.87451 0 0 0 0 0.87451 0 0 0 1 0"/>
<feBlend mode="normal" in2="BackgroundImageFix" result="effect1_dropShadow_414_10919"/>
<feColorMatrix in="SourceAlpha" type="matrix" values="0 0 0 0 0 0 0 0 0 0 0 0 0 0 0 0 0 0 127 0" result="hardAlpha"/>
<feMorphology radius="1.20455" operator="erode" in="SourceAlpha" result="effect2_dropShadow_414_10919"/>
<feOffset dy="2.40909"/>
<feGaussianBlur stdDeviation="3.01136"/>
<feComposite in2="hardAlpha" operator="out"/>
<feColorMatrix type="matrix" values="0 0 0 0 0.161857 0 0 0 0 0.171682 0 0 0 0 0.197884 0 0 0 0.5 0"/>
<feBlend mode="normal" in2="effect1_dropShadow_414_10919" result="effect2_dropShadow_414_10919"/>
<feBlend mode="normal" in="SourceGraphic" in2="effect2_dropShadow_414_10919" result="shape"/>
<feColorMatrix in="SourceAlpha" type="matrix" values="0 0 0 0 0 0 0 0 0 0 0 0 0 0 0 0 0 0 127 0" result="hardAlpha"/>
<feOffset dy="-4.81818"/>
<feComposite in2="hardAlpha" operator="arithmetic" k2="-1" k3="1"/>
<feColorMatrix type="matrix" values="0 0 0 0 0.87451 0 0 0 0 0.87451 0 0 0 0 0.87451 0 0 0 0.7 0"/>
<feBlend mode="normal" in2="shape" result="effect3_innerShadow_414_10919"/>
</filter>
<linearGradient id="paint0_linear_414_10919" x1="29" y1="3" x2="29" y2="51" gradientUnits="userSpaceOnUse">
<stop offset="0.09375" stop-color="white" stop-opacity="0"/>
<stop offset="1" stop-color="white"/>
</linearGradient>
<clipPath id="clip0_414_10919">
<rect x="5" y="3" width="48" height="48" rx="9.63636" fill="white"/>
</clipPath>
</defs>
</svg>
