<svg width="27" height="24" viewBox="0 0 27 24" fill="none" xmlns="http://www.w3.org/2000/svg">
<path d="M19 10H25C25.5304 10 26.0391 9.78929 26.4142 9.41421C26.7893 9.03914 27 8.53043 27 8V2C27 1.46957 26.7893 0.960859 26.4142 0.585786C26.0391 0.210714 25.5304 0 25 0H19C18.4696 0 17.9609 0.210714 17.5858 0.585786C17.2107 0.960859 17 1.46957 17 2V4H15C14.2044 4 13.4413 4.31607 12.8787 4.87868C12.3161 5.44129 12 6.20435 12 7V11H8V10C8 9.46957 7.78929 8.96086 7.41421 8.58579C7.03914 8.21071 6.53043 8 6 8H2C1.46957 8 0.960859 8.21071 0.585786 8.58579C0.210714 8.96086 0 9.46957 0 10V14C0 14.5304 0.210714 15.0391 0.585786 15.4142C0.960859 15.7893 1.46957 16 2 16H6C6.53043 16 7.03914 15.7893 7.41421 15.4142C7.78929 15.0391 8 14.5304 8 14V13H12V17C12 17.7956 12.3161 18.5587 12.8787 19.1213C13.4413 19.6839 14.2044 20 15 20H17V22C17 22.5304 17.2107 23.0391 17.5858 23.4142C17.9609 23.7893 18.4696 24 19 24H25C25.5304 24 26.0391 23.7893 26.4142 23.4142C26.7893 23.0391 27 22.5304 27 22V16C27 15.4696 26.7893 14.9609 26.4142 14.5858C26.0391 14.2107 25.5304 14 25 14H19C18.4696 14 17.9609 14.2107 17.5858 14.5858C17.2107 14.9609 17 15.4696 17 16V18H15C14.7348 18 14.4804 17.8946 14.2929 17.7071C14.1054 17.5196 14 17.2652 14 17V7C14 6.73478 14.1054 6.48043 14.2929 6.29289C14.4804 6.10536 14.7348 6 15 6H17V8C17 8.53043 17.2107 9.03914 17.5858 9.41421C17.9609 9.78929 18.4696 10 19 10ZM6 14H2V10H6V14ZM19 16H25V22H19V16ZM19 2H25V8H19V2Z" fill="white"/>
</svg>
