<svg width="26" height="22" viewBox="0 0 26 22" fill="none" xmlns="http://www.w3.org/2000/svg">
<path d="M24 0H2C1.46957 0 0.960859 0.210714 0.585786 0.585786C0.210714 0.960859 0 1.46957 0 2V20C0 20.5304 0.210714 21.0391 0.585786 21.4142C0.960859 21.7893 1.46957 22 2 22H24C24.5304 22 25.0391 21.7893 25.4142 21.4142C25.7893 21.0391 26 20.5304 26 20V2C26 1.46957 25.7893 0.960859 25.4142 0.585786C25.0391 0.210714 24.5304 0 24 0ZM24 20H2V2H24V20ZM7 5.5C7 5.79667 6.91203 6.08668 6.7472 6.33335C6.58238 6.58003 6.34811 6.77229 6.07403 6.88582C5.79994 6.99935 5.49834 7.02906 5.20736 6.97118C4.91639 6.9133 4.64912 6.77044 4.43934 6.56066C4.22956 6.35088 4.0867 6.08361 4.02882 5.79264C3.97094 5.50166 4.00065 5.20006 4.11418 4.92597C4.22771 4.65189 4.41997 4.41762 4.66664 4.2528C4.91332 4.08797 5.20333 4 5.5 4C5.89782 4 6.27936 4.15804 6.56066 4.43934C6.84196 4.72064 7 5.10218 7 5.5ZM12 5.5C12 5.79667 11.912 6.08668 11.7472 6.33335C11.5824 6.58003 11.3481 6.77229 11.074 6.88582C10.7999 6.99935 10.4983 7.02906 10.2074 6.97118C9.91639 6.9133 9.64912 6.77044 9.43934 6.56066C9.22956 6.35088 9.0867 6.08361 9.02882 5.79264C8.97094 5.50166 9.00065 5.20006 9.11418 4.92597C9.22771 4.65189 9.41997 4.41762 9.66665 4.2528C9.91332 4.08797 10.2033 4 10.5 4C10.8978 4 11.2794 4.15804 11.5607 4.43934C11.842 4.72064 12 5.10218 12 5.5Z" fill="white"/>
</svg>
