<svg width="28" height="25" viewBox="0 0 28 25" fill="none" xmlns="http://www.w3.org/2000/svg">
<path d="M20.27 20H11.915C11.7636 20.8957 11.4109 21.7453 10.8833 22.4848C10.3558 23.2243 9.66724 23.8343 8.86959 24.2689C8.07193 24.7036 7.186 24.9514 6.27862 24.9937C5.37123 25.0361 4.46607 24.8719 3.6314 24.5134C2.79673 24.155 2.05434 23.6117 1.46021 22.9246C0.866084 22.2375 0.435728 21.4244 0.2016 20.5467C-0.0325283 19.669 -0.064317 18.7497 0.108631 17.8579C0.281579 16.9661 0.65475 16.1253 1.2 15.3988C1.3593 15.1866 1.59635 15.0464 1.85902 15.009C2.12169 14.9716 2.38845 15.0401 2.60062 15.1994C2.8128 15.3587 2.953 15.5957 2.99039 15.8584C3.02778 16.1211 2.9593 16.3878 2.8 16.6C2.27818 17.2911 1.99717 18.1341 2 19C2 20.0609 2.42143 21.0783 3.17157 21.8284C3.92172 22.5786 4.93913 23 6 23C7.06087 23 8.07828 22.5786 8.82843 21.8284C9.57857 21.0783 10 20.0609 10 19C10 18.7348 10.1054 18.4804 10.2929 18.2929C10.4804 18.1054 10.7348 18 11 18H20.27C20.4901 17.6187 20.8299 17.3207 21.2367 17.1523C21.6434 16.9838 22.0944 16.9542 22.5197 17.0682C22.945 17.1821 23.3207 17.4332 23.5888 17.7825C23.8568 18.1318 24.0021 18.5597 24.0021 19C24.0021 19.4403 23.8568 19.8682 23.5888 20.2175C23.3207 20.5668 22.945 20.8179 22.5197 20.9319C22.0944 21.0458 21.6434 21.0163 21.2367 20.8478C20.8299 20.6793 20.4901 20.3813 20.27 20ZM6 21C6.3464 21.0001 6.68689 20.9103 6.98813 20.7393C7.28937 20.5682 7.54102 20.3219 7.71844 20.0244C7.89587 19.7269 7.99298 19.3884 8.00026 19.0421C8.00755 18.6957 7.92476 18.3535 7.76 18.0488L12.2312 10.7813C12.37 10.5555 12.4135 10.2838 12.3521 10.026C12.2907 9.76816 12.1294 9.54526 11.9038 9.40626C11.3693 9.07721 10.9197 8.627 10.5914 8.09203C10.2632 7.55706 10.0654 6.95235 10.0141 6.32679C9.96282 5.70123 10.0595 5.07238 10.2962 4.49109C10.533 3.9098 10.9032 3.39239 11.377 2.98069C11.8508 2.56899 12.4148 2.27456 13.0234 2.12121C13.6321 1.96786 14.2683 1.95989 14.8805 2.09795C15.4928 2.236 16.064 2.51621 16.548 2.91591C17.0319 3.31561 17.415 3.82358 17.6663 4.39876C17.7723 4.64193 17.9707 4.833 18.2176 4.92993C18.4646 5.02686 18.74 5.02172 18.9831 4.91563C19.2263 4.80955 19.4174 4.61121 19.5143 4.36425C19.6112 4.11728 19.6061 3.84193 19.5 3.59876C19.1398 2.77529 18.5992 2.04328 17.9181 1.45679C17.237 0.870299 16.4328 0.444321 15.565 0.210322C14.6972 -0.0236769 13.7879 -0.0597171 12.9043 0.104863C12.0207 0.269444 11.1853 0.63044 10.46 1.16118C9.73458 1.69193 9.13772 2.37886 8.71345 3.17123C8.28919 3.9636 8.04836 4.84117 8.00877 5.73911C7.96917 6.63704 8.13182 7.5324 8.4847 8.35904C8.83757 9.18568 9.37166 9.92248 10.0475 10.515L6.055 17C6.03625 17 6.01875 17 6 17C5.46957 17 4.96086 17.2107 4.58579 17.5858C4.21071 17.9609 4 18.4696 4 19C4 19.5304 4.21071 20.0392 4.58579 20.4142C4.96086 20.7893 5.46957 21 6 21ZM22 13C21.229 13.0001 20.4652 13.1482 19.75 13.4363L15.76 6.95001C15.968 6.56474 16.0438 6.12187 15.9758 5.68937C15.9078 5.25686 15.6997 4.85862 15.3836 4.55576C15.0674 4.25289 14.6606 4.06214 14.2256 4.01277C13.7905 3.9634 13.3513 4.05813 12.9753 4.28245C12.5994 4.50676 12.3074 4.84825 12.1442 5.25451C11.981 5.66078 11.9556 6.10937 12.0719 6.53144C12.1883 6.95352 12.4399 7.32576 12.7882 7.59105C13.1365 7.85633 13.5622 8 14 8.00001H14.055L18.5275 15.2688C18.6667 15.4942 18.8897 15.6552 19.1475 15.7164C19.4053 15.7775 19.6768 15.7339 19.9025 15.595C20.429 15.2705 21.0236 15.0724 21.6395 15.0164C22.2555 14.9604 22.876 15.0481 23.4524 15.2724C24.0287 15.4967 24.5452 15.8517 24.9613 16.3093C25.3773 16.7669 25.6816 17.3148 25.8501 17.9099C26.0187 18.505 26.047 19.131 25.9327 19.7389C25.8185 20.3467 25.5648 20.9198 25.1917 21.413C24.8186 21.9063 24.3362 22.3063 23.7824 22.5817C23.2286 22.8571 22.6185 23.0002 22 23C21.7348 23 21.4804 23.1054 21.2929 23.2929C21.1054 23.4804 21 23.7348 21 24C21 24.2652 21.1054 24.5196 21.2929 24.7071C21.4804 24.8947 21.7348 25 22 25C23.5913 25 25.1174 24.3679 26.2426 23.2427C27.3679 22.1174 28 20.5913 28 19C28 17.4087 27.3679 15.8826 26.2426 14.7574C25.1174 13.6321 23.5913 13 22 13Z" fill="white"/>
</svg>
