<svg width="58" height="59" viewBox="0 0 58 59" fill="none" xmlns="http://www.w3.org/2000/svg">
<g filter="url(#filter0_ddi_414_11378)">
<g clip-path="url(#clip0_414_11378)">
<rect x="5" y="3" width="48" height="48" rx="9.63636" fill="white"/>
<circle opacity="0.87" cx="5.60227" cy="7.21592" r="0.602273" fill="#F1F1F1"/>
<circle opacity="0.44" cx="9.21604" cy="7.21592" r="0.602273" fill="#F1F1F1"/>
<circle opacity="0.69" cx="12.8293" cy="7.21592" r="0.602273" fill="#F1F1F1"/>
<circle opacity="0.73" cx="16.4436" cy="7.21592" r="0.602273" fill="#F1F1F1"/>
<circle opacity="0.66" cx="20.0569" cy="7.21592" r="0.602273" fill="#F1F1F1"/>
<circle opacity="0.39" cx="23.6706" cy="7.21592" r="0.602273" fill="#F1F1F1"/>
<circle opacity="0.77" cx="27.2839" cy="7.21592" r="0.602273" fill="#F1F1F1"/>
<circle opacity="0.78" cx="30.8977" cy="7.21592" r="0.602273" fill="#F1F1F1"/>
<circle opacity="0.78" cx="52.5793" cy="7.21592" r="0.602273" fill="#F1F1F1"/>
<circle opacity="0.37" cx="34.5115" cy="7.21592" r="0.602273" fill="#F1F1F1"/>
<circle opacity="0.52" cx="38.1252" cy="7.21592" r="0.602273" fill="#F1F1F1"/>
<circle opacity="0.56" cx="41.7385" cy="7.21592" r="0.602273" fill="#F1F1F1"/>
<circle opacity="0.51" cx="45.3523" cy="7.21592" r="0.602273" fill="#F1F1F1"/>
<circle opacity="0.78" cx="48.966" cy="7.21592" r="0.602273" fill="#F1F1F1"/>
<circle opacity="0.72" cx="5.60227" cy="10.8296" r="0.602273" fill="#F1F1F1"/>
<circle opacity="0.85" cx="9.21604" cy="10.8296" r="0.602273" fill="#F1F1F1"/>
<circle opacity="0.79" cx="12.8293" cy="10.8296" r="0.602273" fill="#F1F1F1"/>
<circle opacity="0.52" cx="16.4436" cy="10.8296" r="0.602273" fill="#F1F1F1"/>
<circle opacity="0.74" cx="20.0569" cy="10.8296" r="0.602273" fill="#F1F1F1"/>
<circle opacity="0.53" cx="23.6706" cy="10.8296" r="0.602273" fill="#F1F1F1"/>
<circle opacity="0.51" cx="30.8977" cy="10.8296" r="0.602273" fill="#F1F1F1"/>
<circle opacity="0.23" cx="27.2839" cy="10.8296" r="0.602273" fill="#F1F1F1"/>
<circle opacity="0.51" cx="52.5793" cy="10.8296" r="0.602273" fill="#F1F1F1"/>
<circle opacity="0.27" cx="34.5115" cy="10.8296" r="0.602273" fill="#F1F1F1"/>
<circle opacity="0.87" cx="38.1252" cy="10.8296" r="0.602273" fill="#F1F1F1"/>
<circle opacity="0.51" cx="41.7385" cy="10.8296" r="0.602273" fill="#F1F1F1"/>
<circle opacity="0.2" cx="45.3523" cy="10.8296" r="0.602273" fill="#F1F1F1"/>
<circle opacity="0.74" cx="48.966" cy="10.8296" r="0.602273" fill="#F1F1F1"/>
<circle opacity="0.42" cx="5.60227" cy="14.4432" r="0.602273" fill="#F1F1F1"/>
<circle opacity="0.88" cx="9.21604" cy="14.4432" r="0.602273" fill="#F1F1F1"/>
<circle opacity="0.58" cx="12.8293" cy="14.4432" r="0.602273" fill="#F1F1F1"/>
<circle opacity="0.36" cx="16.4436" cy="14.4432" r="0.602273" fill="#F1F1F1"/>
<circle opacity="0.49" cx="20.0569" cy="14.4432" r="0.602273" fill="#F1F1F1"/>
<circle opacity="0.8" cx="30.8977" cy="14.4432" r="0.602273" fill="#F1F1F1"/>
<circle opacity="0.88" cx="23.6706" cy="14.4432" r="0.602273" fill="#F1F1F1"/>
<circle opacity="0.55" cx="27.2839" cy="14.4432" r="0.602273" fill="#F1F1F1"/>
<circle opacity="0.8" cx="52.5793" cy="14.4432" r="0.602273" fill="#F1F1F1"/>
<circle opacity="0.75" cx="34.5115" cy="14.4432" r="0.602273" fill="#F1F1F1"/>
<circle opacity="0.87" cx="38.1252" cy="14.4432" r="0.602273" fill="#F1F1F1"/>
<circle opacity="0.33" cx="41.7385" cy="14.4432" r="0.602273" fill="#F1F1F1"/>
<circle opacity="0.84" cx="45.3523" cy="14.4432" r="0.602273" fill="#F1F1F1"/>
<circle opacity="0.83" cx="48.966" cy="14.4432" r="0.602273" fill="#F1F1F1"/>
<circle opacity="0.42" cx="5.60227" cy="3.60227" r="0.602273" fill="#F1F1F1"/>
<circle opacity="0.88" cx="9.21604" cy="3.60227" r="0.602273" fill="#F1F1F1"/>
<circle opacity="0.58" cx="12.8293" cy="3.60227" r="0.602273" fill="#F1F1F1"/>
<circle opacity="0.36" cx="16.4436" cy="3.60227" r="0.602273" fill="#F1F1F1"/>
<circle opacity="0.8" cx="30.8977" cy="3.60227" r="0.602273" fill="#F1F1F1"/>
<circle opacity="0.49" cx="20.0569" cy="3.60227" r="0.602273" fill="#F1F1F1"/>
<circle opacity="0.88" cx="23.6706" cy="3.60227" r="0.602273" fill="#F1F1F1"/>
<circle opacity="0.55" cx="27.2839" cy="3.60227" r="0.602273" fill="#F1F1F1"/>
<circle opacity="0.8" cx="52.5793" cy="3.60227" r="0.602273" fill="#F1F1F1"/>
<circle opacity="0.75" cx="34.5115" cy="3.60227" r="0.602273" fill="#F1F1F1"/>
<circle opacity="0.87" cx="38.1252" cy="3.60227" r="0.602273" fill="#F1F1F1"/>
<circle opacity="0.33" cx="41.7385" cy="3.60227" r="0.602273" fill="#F1F1F1"/>
<circle opacity="0.84" cx="45.3523" cy="3.60227" r="0.602273" fill="#F1F1F1"/>
<circle opacity="0.83" cx="48.966" cy="3.60227" r="0.602273" fill="#F1F1F1"/>
<circle opacity="0.62" cx="5.60227" cy="18.0569" r="0.602273" fill="#F1F1F1"/>
<circle opacity="0.62" cx="9.21604" cy="18.0569" r="0.602273" fill="#F1F1F1"/>
<circle opacity="0.35" cx="12.8293" cy="18.0569" r="0.602273" fill="#F1F1F1"/>
<circle opacity="0.65" cx="30.8977" cy="18.0569" r="0.602273" fill="#F1F1F1"/>
<circle opacity="0.53" cx="16.4436" cy="18.0569" r="0.602273" fill="#F1F1F1"/>
<circle opacity="0.4" cx="20.0569" cy="18.0569" r="0.602273" fill="#F1F1F1"/>
<circle opacity="0.67" cx="23.6706" cy="18.0569" r="0.602273" fill="#F1F1F1"/>
<circle opacity="0.64" cx="27.2839" cy="18.0569" r="0.602273" fill="#F1F1F1"/>
<circle opacity="0.65" cx="52.5793" cy="18.0569" r="0.602273" fill="#F1F1F1"/>
<circle opacity="0.53" cx="34.5115" cy="18.0569" r="0.602273" fill="#F1F1F1"/>
<circle opacity="0.76" cx="38.1252" cy="18.0569" r="0.602273" fill="#F1F1F1"/>
<circle opacity="0.54" cx="41.7385" cy="18.0569" r="0.602273" fill="#F1F1F1"/>
<circle opacity="0.36" cx="45.3523" cy="18.0569" r="0.602273" fill="#F1F1F1"/>
<circle opacity="0.27" cx="48.966" cy="18.0569" r="0.602273" fill="#F1F1F1"/>
<circle opacity="0.37" cx="5.60227" cy="21.6704" r="0.602273" fill="#F1F1F1"/>
<circle opacity="0.8" cx="9.21604" cy="21.6704" r="0.602273" fill="#F1F1F1"/>
<circle opacity="0.79" cx="30.8977" cy="21.6704" r="0.602273" fill="#F1F1F1"/>
<circle opacity="0.44" cx="12.8293" cy="21.6704" r="0.602273" fill="#F1F1F1"/>
<circle opacity="0.49" cx="16.4436" cy="21.6704" r="0.602273" fill="#F1F1F1"/>
<circle opacity="0.37" cx="20.0569" cy="21.6704" r="0.602273" fill="#F1F1F1"/>
<circle opacity="0.34" cx="23.6706" cy="21.6704" r="0.602273" fill="#F1F1F1"/>
<circle opacity="0.31" cx="27.2839" cy="21.6704" r="0.602273" fill="#F1F1F1"/>
<circle opacity="0.79" cx="52.5793" cy="21.6704" r="0.602273" fill="#F1F1F1"/>
<circle opacity="0.7" cx="34.5115" cy="21.6704" r="0.602273" fill="#F1F1F1"/>
<circle opacity="0.51" cx="38.1252" cy="21.6704" r="0.602273" fill="#F1F1F1"/>
<circle opacity="0.33" cx="41.7385" cy="21.6704" r="0.602273" fill="#F1F1F1"/>
<circle opacity="0.4" cx="45.3523" cy="21.6704" r="0.602273" fill="#F1F1F1"/>
<circle opacity="0.59" cx="48.966" cy="21.6704" r="0.602273" fill="#F1F1F1"/>
<circle opacity="0.39" cx="5.60227" cy="25.2842" r="0.602273" fill="#F1F1F1"/>
<circle opacity="0.43" cx="30.8977" cy="25.2842" r="0.602273" fill="#F1F1F1"/>
<circle opacity="0.8" cx="9.21604" cy="25.2842" r="0.602273" fill="#F1F1F1"/>
<circle opacity="0.49" cx="12.8293" cy="25.2842" r="0.602273" fill="#F1F1F1"/>
<circle opacity="0.62" cx="16.4436" cy="25.2842" r="0.602273" fill="#F1F1F1"/>
<circle opacity="0.81" cx="20.0569" cy="25.2842" r="0.602273" fill="#F1F1F1"/>
<circle opacity="0.8" cx="23.6706" cy="25.2842" r="0.602273" fill="#F1F1F1"/>
<circle opacity="0.84" cx="27.2839" cy="25.2842" r="0.602273" fill="#F1F1F1"/>
<circle opacity="0.43" cx="52.5793" cy="25.2842" r="0.602273" fill="#F1F1F1"/>
<circle opacity="0.38" cx="34.5115" cy="25.2842" r="0.602273" fill="#F1F1F1"/>
<circle opacity="0.37" cx="38.1252" cy="25.2842" r="0.602273" fill="#F1F1F1"/>
<circle opacity="0.76" cx="41.7385" cy="25.2842" r="0.602273" fill="#F1F1F1"/>
<circle opacity="0.41" cx="45.3523" cy="25.2842" r="0.602273" fill="#F1F1F1"/>
<circle opacity="0.48" cx="48.966" cy="25.2842" r="0.602273" fill="#F1F1F1"/>
<circle opacity="0.33" cx="30.8977" cy="28.8977" r="0.602273" fill="#F1F1F1"/>
<circle opacity="0.52" cx="5.60227" cy="28.8977" r="0.602273" fill="#F1F1F1"/>
<circle opacity="0.34" cx="9.21604" cy="28.8977" r="0.602273" fill="#F1F1F1"/>
<circle opacity="0.9" cx="12.8293" cy="28.8977" r="0.602273" fill="#F1F1F1"/>
<circle opacity="0.48" cx="16.4436" cy="28.8977" r="0.602273" fill="#F1F1F1"/>
<circle opacity="0.67" cx="20.0569" cy="28.8977" r="0.602273" fill="#F1F1F1"/>
<circle opacity="0.37" cx="23.6706" cy="28.8977" r="0.602273" fill="#F1F1F1"/>
<circle opacity="0.66" cx="27.2839" cy="28.8977" r="0.602273" fill="#F1F1F1"/>
<circle opacity="0.33" cx="52.5793" cy="28.8977" r="0.602273" fill="#F1F1F1"/>
<circle opacity="0.88" cx="34.5115" cy="28.8977" r="0.602273" fill="#F1F1F1"/>
<circle opacity="0.51" cx="38.1252" cy="28.8977" r="0.602273" fill="#F1F1F1"/>
<circle opacity="0.55" cx="41.7385" cy="28.8977" r="0.602273" fill="#F1F1F1"/>
<circle opacity="0.39" cx="45.3523" cy="28.8977" r="0.602273" fill="#F1F1F1"/>
<circle opacity="0.23" cx="30.8977" cy="32.5113" r="0.602273" fill="#F1F1F1"/>
<circle opacity="0.59" cx="48.966" cy="28.8977" r="0.602273" fill="#F1F1F1"/>
<circle opacity="0.83" cx="5.60227" cy="32.5113" r="0.602273" fill="#F1F1F1"/>
<circle opacity="0.57" cx="9.21604" cy="32.5113" r="0.602273" fill="#F1F1F1"/>
<circle opacity="0.89" cx="12.8293" cy="32.5113" r="0.602273" fill="#F1F1F1"/>
<circle opacity="0.38" cx="16.4436" cy="32.5113" r="0.602273" fill="#F1F1F1"/>
<circle opacity="0.25" cx="20.0569" cy="32.5113" r="0.602273" fill="#F1F1F1"/>
<circle opacity="0.28" cx="23.6706" cy="32.5113" r="0.602273" fill="#F1F1F1"/>
<circle opacity="0.45" cx="27.2839" cy="32.5113" r="0.602273" fill="#F1F1F1"/>
<circle opacity="0.23" cx="52.5793" cy="32.5113" r="0.602273" fill="#F1F1F1"/>
<circle opacity="0.79" cx="34.5115" cy="32.5113" r="0.602273" fill="#F1F1F1"/>
<circle opacity="0.77" cx="38.1252" cy="32.5113" r="0.602273" fill="#F1F1F1"/>
<circle opacity="0.43" cx="41.7385" cy="32.5113" r="0.602273" fill="#F1F1F1"/>
<circle opacity="0.66" cx="30.8977" cy="36.125" r="0.602273" fill="#F1F1F1"/>
<circle opacity="0.29" cx="45.3523" cy="32.5113" r="0.602273" fill="#F1F1F1"/>
<circle opacity="0.55" cx="48.966" cy="32.5113" r="0.602273" fill="#F1F1F1"/>
<circle opacity="0.62" cx="5.60227" cy="36.125" r="0.602273" fill="#F1F1F1"/>
<circle opacity="0.65" cx="9.21604" cy="36.125" r="0.602273" fill="#F1F1F1"/>
<circle opacity="0.41" cx="12.8293" cy="36.125" r="0.602273" fill="#F1F1F1"/>
<circle opacity="0.26" cx="16.4436" cy="36.125" r="0.602273" fill="#F1F1F1"/>
<circle opacity="0.24" cx="20.0569" cy="36.125" r="0.602273" fill="#F1F1F1"/>
<circle opacity="0.68" cx="23.6706" cy="36.125" r="0.602273" fill="#F1F1F1"/>
<circle opacity="0.31" cx="27.2839" cy="36.125" r="0.602273" fill="#F1F1F1"/>
<circle opacity="0.66" cx="52.5793" cy="36.125" r="0.602273" fill="#F1F1F1"/>
<circle opacity="0.55" cx="34.5115" cy="36.125" r="0.602273" fill="#F1F1F1"/>
<circle opacity="0.52" cx="38.1252" cy="36.125" r="0.602273" fill="#F1F1F1"/>
<circle opacity="0.68" cx="30.8977" cy="39.7386" r="0.602273" fill="#F1F1F1"/>
<circle opacity="0.83" cx="41.7385" cy="36.125" r="0.602273" fill="#F1F1F1"/>
<circle opacity="0.66" cx="45.3523" cy="36.125" r="0.602273" fill="#F1F1F1"/>
<circle opacity="0.59" cx="48.966" cy="36.125" r="0.602273" fill="#F1F1F1"/>
<circle opacity="0.34" cx="5.60227" cy="39.7386" r="0.602273" fill="#F1F1F1"/>
<circle opacity="0.43" cx="9.21604" cy="39.7386" r="0.602273" fill="#F1F1F1"/>
<circle opacity="0.84" cx="12.8293" cy="39.7386" r="0.602273" fill="#F1F1F1"/>
<circle opacity="0.51" cx="16.4436" cy="39.7386" r="0.602273" fill="#F1F1F1"/>
<circle opacity="0.77" cx="20.0569" cy="39.7386" r="0.602273" fill="#F1F1F1"/>
<circle opacity="0.56" cx="23.6706" cy="39.7386" r="0.602273" fill="#F1F1F1"/>
<circle opacity="0.45" cx="27.2839" cy="39.7386" r="0.602273" fill="#F1F1F1"/>
<circle opacity="0.68" cx="52.5793" cy="39.7386" r="0.602273" fill="#F1F1F1"/>
<circle opacity="0.36" cx="34.5115" cy="39.7386" r="0.602273" fill="#F1F1F1"/>
<circle opacity="0.26" cx="30.8977" cy="43.3523" r="0.602273" fill="#F1F1F1"/>
<circle opacity="0.28" cx="38.1252" cy="39.7386" r="0.602273" fill="#F1F1F1"/>
<circle opacity="0.67" cx="41.7385" cy="39.7386" r="0.602273" fill="#F1F1F1"/>
<circle opacity="0.28" cx="45.3523" cy="39.7386" r="0.602273" fill="#F1F1F1"/>
<circle opacity="0.74" cx="48.966" cy="39.7386" r="0.602273" fill="#F1F1F1"/>
<circle opacity="0.72" cx="5.60227" cy="43.3523" r="0.602273" fill="#F1F1F1"/>
<circle opacity="0.58" cx="9.21604" cy="43.3523" r="0.602273" fill="#F1F1F1"/>
<circle opacity="0.62" cx="12.8293" cy="43.3523" r="0.602273" fill="#F1F1F1"/>
<circle opacity="0.63" cx="16.4436" cy="43.3523" r="0.602273" fill="#F1F1F1"/>
<circle opacity="0.6" cx="20.0569" cy="43.3523" r="0.602273" fill="#F1F1F1"/>
<circle opacity="0.49" cx="23.6706" cy="43.3523" r="0.602273" fill="#F1F1F1"/>
<circle opacity="0.45" cx="27.2839" cy="43.3523" r="0.602273" fill="#F1F1F1"/>
<circle opacity="0.26" cx="52.5793" cy="43.3523" r="0.602273" fill="#F1F1F1"/>
<circle opacity="0.57" cx="30.8977" cy="46.9659" r="0.602273" fill="#F1F1F1"/>
<circle opacity="0.21" cx="34.5115" cy="43.3523" r="0.602273" fill="#F1F1F1"/>
<circle opacity="0.67" cx="38.1252" cy="43.3523" r="0.602273" fill="#F1F1F1"/>
<circle opacity="0.3" cx="41.7385" cy="43.3523" r="0.602273" fill="#F1F1F1"/>
<circle opacity="0.28" cx="45.3523" cy="43.3523" r="0.602273" fill="#F1F1F1"/>
<circle opacity="0.29" cx="48.966" cy="43.3523" r="0.602273" fill="#F1F1F1"/>
<circle opacity="0.4" cx="5.60227" cy="46.9659" r="0.602273" fill="#F1F1F1"/>
<circle opacity="0.28" cx="9.21604" cy="46.9659" r="0.602273" fill="#F1F1F1"/>
<circle opacity="0.29" cx="12.8293" cy="46.9659" r="0.602273" fill="#F1F1F1"/>
<circle opacity="0.41" cx="16.4436" cy="46.9659" r="0.602273" fill="#F1F1F1"/>
<circle opacity="0.88" cx="20.0569" cy="46.9659" r="0.602273" fill="#F1F1F1"/>
<circle opacity="0.88" cx="23.6706" cy="46.9659" r="0.602273" fill="#F1F1F1"/>
<circle opacity="0.83" cx="27.2839" cy="46.9659" r="0.602273" fill="#F1F1F1"/>
<circle opacity="0.56" cx="30.8977" cy="50.5796" r="0.602273" fill="#F1F1F1"/>
<circle opacity="0.57" cx="52.5793" cy="46.9659" r="0.602273" fill="#F1F1F1"/>
<circle opacity="0.67" cx="34.5115" cy="46.9659" r="0.602273" fill="#F1F1F1"/>
<circle opacity="0.9" cx="38.1252" cy="46.9659" r="0.602273" fill="#F1F1F1"/>
<circle opacity="0.47" cx="41.7385" cy="46.9659" r="0.602273" fill="#F1F1F1"/>
<circle opacity="0.4" cx="45.3523" cy="46.9659" r="0.602273" fill="#F1F1F1"/>
<circle opacity="0.58" cx="48.966" cy="46.9659" r="0.602273" fill="#F1F1F1"/>
<circle opacity="0.59" cx="5.60227" cy="50.5796" r="0.602273" fill="#F1F1F1"/>
<circle opacity="0.66" cx="9.21604" cy="50.5796" r="0.602273" fill="#F1F1F1"/>
<circle opacity="0.73" cx="12.8293" cy="50.5796" r="0.602273" fill="#F1F1F1"/>
<circle opacity="0.84" cx="16.4436" cy="50.5796" r="0.602273" fill="#F1F1F1"/>
<circle opacity="0.62" cx="20.0569" cy="50.5796" r="0.602273" fill="#F1F1F1"/>
<circle opacity="0.77" cx="23.6706" cy="50.5796" r="0.602273" fill="#F1F1F1"/>
<circle opacity="0.41" cx="27.2839" cy="50.5796" r="0.602273" fill="#F1F1F1"/>
<circle opacity="0.56" cx="52.5793" cy="50.5796" r="0.602273" fill="#F1F1F1"/>
<circle opacity="0.39" cx="34.5115" cy="50.5796" r="0.602273" fill="#F1F1F1"/>
<circle opacity="0.5" cx="38.1252" cy="50.5796" r="0.602273" fill="#F1F1F1"/>
<circle opacity="0.47" cx="41.7385" cy="50.5796" r="0.602273" fill="#F1F1F1"/>
<circle opacity="0.73" cx="45.3523" cy="50.5796" r="0.602273" fill="#F1F1F1"/>
<circle opacity="0.63" cx="48.966" cy="50.5796" r="0.602273" fill="#F1F1F1"/>
<path opacity="0.2" d="M29 24C28.0111 24 27.0444 23.7068 26.2222 23.1573C25.3999 22.6079 24.759 21.827 24.3806 20.9134C24.0022 19.9998 23.9031 18.9945 24.0961 18.0246C24.289 17.0546 24.7652 16.1637 25.4645 15.4645C26.1637 14.7652 27.0546 14.289 28.0246 14.0961C28.9945 13.9031 29.9998 14.0022 30.9134 14.3806C31.8271 14.759 32.6079 15.3999 33.1574 16.2222C33.7068 17.0444 34 18.0111 34 19C34 20.3261 33.4732 21.5979 32.5355 22.5355C31.5979 23.4732 30.3261 24 29 24ZM37 27C36.0111 27 35.0444 27.2932 34.2222 27.8427C33.3999 28.3921 32.759 29.173 32.3806 30.0866C32.0022 31.0002 31.9031 32.0055 32.0961 32.9755C32.289 33.9454 32.7652 34.8363 33.4645 35.5355C34.1637 36.2348 35.0546 36.711 36.0245 36.9039C36.9945 37.0969 37.9998 36.9978 38.9134 36.6194C39.8271 36.241 40.6079 35.6001 41.1574 34.7779C41.7068 33.9556 42 32.9889 42 32C42 30.6739 41.4732 29.4022 40.5355 28.4645C39.5979 27.5268 38.3261 27 37 27ZM21 27C20.0111 27 19.0444 27.2932 18.2222 27.8427C17.3999 28.3921 16.759 29.173 16.3806 30.0866C16.0022 31.0002 15.9031 32.0055 16.0961 32.9755C16.289 33.9454 16.7652 34.8363 17.4645 35.5355C18.1637 36.2348 19.0546 36.711 20.0246 36.9039C20.9945 37.0969 21.9998 36.9978 22.9134 36.6194C23.827 36.241 24.6079 35.6001 25.1573 34.7779C25.7068 33.9556 26 32.9889 26 32C26 30.6739 25.4732 29.4022 24.5355 28.4645C23.5979 27.5268 22.3261 27 21 27Z" fill="#121212"/>
<path d="M35.2701 33H26.9151C26.7638 33.8957 26.411 34.7453 25.8835 35.4848C25.3559 36.2243 24.6674 36.8343 23.8697 37.2689C23.0721 37.7036 22.1861 37.9514 21.2788 37.9937C20.3714 38.0361 19.4662 37.8719 18.6315 37.5134C17.7969 37.155 17.0545 36.6117 16.4604 35.9246C15.8662 35.2375 15.4359 34.4244 15.2017 33.5467C14.9676 32.669 14.9358 31.7497 15.1088 30.8579C15.2817 29.9661 15.6549 29.1253 16.2001 28.3988C16.3594 28.1866 16.5965 28.0464 16.8592 28.009C17.1218 27.9716 17.3886 28.0401 17.6008 28.1994C17.8129 28.3587 17.9531 28.5957 17.9905 28.8584C18.0279 29.1211 17.9594 29.3878 17.8001 29.6C17.2783 30.2911 16.9973 31.1341 17.0001 32C17.0001 33.0609 17.4216 34.0783 18.1717 34.8284C18.9219 35.5786 19.9393 36 21.0001 36C22.061 36 23.0784 35.5786 23.8286 34.8284C24.5787 34.0783 25.0001 33.0609 25.0001 32C25.0001 31.7348 25.1055 31.4804 25.293 31.2929C25.4806 31.1054 25.7349 31 26.0001 31H35.2701C35.4903 30.6187 35.8301 30.3207 36.2368 30.1523C36.6436 29.9838 37.0946 29.9542 37.5198 30.0682C37.9451 30.1821 38.3209 30.4332 38.5889 30.7825C38.8569 31.1318 39.0022 31.5597 39.0022 32C39.0022 32.4403 38.8569 32.8682 38.5889 33.2175C38.3209 33.5668 37.9451 33.8179 37.5198 33.9319C37.0946 34.0458 36.6436 34.0163 36.2368 33.8478C35.8301 33.6793 35.4903 33.3813 35.2701 33ZM21.0001 34C21.3465 34.0001 21.687 33.9103 21.9883 33.7393C22.2895 33.5682 22.5412 33.3219 22.7186 33.0244C22.896 32.7269 22.9931 32.3884 23.0004 32.0421C23.0077 31.6957 22.9249 31.3535 22.7601 31.0488L27.2314 23.7813C27.3702 23.5555 27.4136 23.2838 27.3522 23.026C27.2908 22.7682 27.1296 22.5453 26.9039 22.4063C26.3694 22.0772 25.9198 21.627 25.5916 21.092C25.2633 20.5571 25.0655 19.9523 25.0142 19.3268C24.963 18.7012 25.0596 18.0724 25.2964 17.4911C25.5331 16.9098 25.9034 16.3924 26.3772 15.9807C26.8509 15.569 27.4149 15.2746 28.0236 15.1212C28.6322 14.9679 29.2684 14.9599 29.8807 15.0979C30.493 15.236 31.0642 15.5162 31.5481 15.9159C32.0321 16.3156 32.4151 16.8236 32.6664 17.3988C32.7725 17.6419 32.9708 17.833 33.2178 17.9299C33.4647 18.0269 33.7401 18.0217 33.9833 17.9156C34.2264 17.8095 34.4175 17.6112 34.5144 17.3642C34.6114 17.1173 34.6062 16.8419 34.5001 16.5988C34.1399 15.7753 33.5993 15.0433 32.9182 14.4568C32.2371 13.8703 31.433 13.4443 30.5652 13.2103C29.6973 12.9763 28.788 12.9403 27.9044 13.1049C27.0208 13.2694 26.1855 13.6304 25.4601 14.1612C24.7347 14.6919 24.1379 15.3789 23.7136 16.1712C23.2893 16.9636 23.0485 17.8412 23.0089 18.7391C22.9693 19.637 23.132 20.5324 23.4848 21.359C23.8377 22.1857 24.3718 22.9225 25.0476 23.515L21.0551 30C21.0364 30 21.0189 30 21.0001 30C20.4697 30 19.961 30.2107 19.5859 30.5858C19.2109 30.9609 19.0001 31.4696 19.0001 32C19.0001 32.5304 19.2109 33.0392 19.5859 33.4142C19.961 33.7893 20.4697 34 21.0001 34ZM37.0001 26C36.2291 26.0001 35.4653 26.1482 34.7501 26.4363L30.7601 19.95C30.9681 19.5647 31.0439 19.1219 30.9759 18.6894C30.9079 18.2569 30.6999 17.8586 30.3837 17.5558C30.0675 17.2529 29.6607 17.0621 29.2257 17.0128C28.7907 16.9634 28.3515 17.0581 27.9755 17.2824C27.5995 17.5068 27.3075 17.8482 27.1443 18.2545C26.9811 18.6608 26.9557 19.1094 27.0721 19.5314C27.1884 19.9535 27.44 20.3258 27.7883 20.591C28.1366 20.8563 28.5623 21 29.0001 21H29.0551L33.5276 28.2688C33.6669 28.4942 33.8898 28.6552 34.1476 28.7164C34.4055 28.7775 34.677 28.7339 34.9026 28.595C35.4291 28.2705 36.0237 28.0724 36.6397 28.0164C37.2556 27.9604 37.8761 28.0481 38.4525 28.2724C39.0289 28.4967 39.5454 28.8517 39.9614 29.3093C40.3775 29.7669 40.6817 30.3148 40.8503 30.9099C41.0188 31.505 41.0471 32.131 40.9329 32.7389C40.8186 33.3467 40.565 33.9198 40.1919 34.413C39.8188 34.9063 39.3364 35.3063 38.7826 35.5817C38.2287 35.8571 37.6186 36.0002 37.0001 36C36.7349 36 36.4806 36.1054 36.293 36.2929C36.1055 36.4804 36.0001 36.7348 36.0001 37C36.0001 37.2652 36.1055 37.5196 36.293 37.7071C36.4806 37.8947 36.7349 38 37.0001 38C38.5914 38 40.1176 37.3679 41.2428 36.2427C42.368 35.1174 43.0001 33.5913 43.0001 32C43.0001 30.4087 42.368 28.8826 41.2428 27.7574C40.1176 26.6321 38.5914 26 37.0001 26Z" fill="#121212"/>
</g>
<rect x="5.60227" y="3.60227" width="46.7955" height="46.7955" rx="9.03409" stroke="url(#paint0_linear_414_11378)" stroke-opacity="0.3" stroke-width="1.20455"/>
</g>
<defs>
<filter id="filter0_ddi_414_11378" x="0.181818" y="0.590908" width="57.6364" height="57.6364" filterUnits="userSpaceOnUse" color-interpolation-filters="sRGB">
<feFlood flood-opacity="0" result="BackgroundImageFix"/>
<feColorMatrix in="SourceAlpha" type="matrix" values="0 0 0 0 0 0 0 0 0 0 0 0 0 0 0 0 0 0 127 0" result="hardAlpha"/>
<feMorphology radius="1.20455" operator="dilate" in="SourceAlpha" result="effect1_dropShadow_414_11378"/>
<feOffset/>
<feComposite in2="hardAlpha" operator="out"/>
<feColorMatrix type="matrix" values="0 0 0 0 0.87451 0 0 0 0 0.87451 0 0 0 0 0.87451 0 0 0 1 0"/>
<feBlend mode="normal" in2="BackgroundImageFix" result="effect1_dropShadow_414_11378"/>
<feColorMatrix in="SourceAlpha" type="matrix" values="0 0 0 0 0 0 0 0 0 0 0 0 0 0 0 0 0 0 127 0" result="hardAlpha"/>
<feMorphology radius="1.20455" operator="erode" in="SourceAlpha" result="effect2_dropShadow_414_11378"/>
<feOffset dy="2.40909"/>
<feGaussianBlur stdDeviation="3.01136"/>
<feComposite in2="hardAlpha" operator="out"/>
<feColorMatrix type="matrix" values="0 0 0 0 0.161857 0 0 0 0 0.171682 0 0 0 0 0.197884 0 0 0 0.5 0"/>
<feBlend mode="normal" in2="effect1_dropShadow_414_11378" result="effect2_dropShadow_414_11378"/>
<feBlend mode="normal" in="SourceGraphic" in2="effect2_dropShadow_414_11378" result="shape"/>
<feColorMatrix in="SourceAlpha" type="matrix" values="0 0 0 0 0 0 0 0 0 0 0 0 0 0 0 0 0 0 127 0" result="hardAlpha"/>
<feOffset dy="-4.81818"/>
<feComposite in2="hardAlpha" operator="arithmetic" k2="-1" k3="1"/>
<feColorMatrix type="matrix" values="0 0 0 0 0.87451 0 0 0 0 0.87451 0 0 0 0 0.87451 0 0 0 0.7 0"/>
<feBlend mode="normal" in2="shape" result="effect3_innerShadow_414_11378"/>
</filter>
<linearGradient id="paint0_linear_414_11378" x1="29" y1="3" x2="29" y2="51" gradientUnits="userSpaceOnUse">
<stop offset="0.09375" stop-color="white" stop-opacity="0"/>
<stop offset="1" stop-color="white"/>
</linearGradient>
<clipPath id="clip0_414_11378">
<rect x="5" y="3" width="48" height="48" rx="9.63636" fill="white"/>
</clipPath>
</defs>
</svg>
