<svg width="24" height="24" viewBox="0 0 24 24" fill="none" xmlns="http://www.w3.org/2000/svg">
<path d="M22 8C22.5304 8 23.0391 7.78929 23.4142 7.41421C23.7893 7.03914 24 6.53043 24 6V2C24 1.46957 23.7893 0.960859 23.4142 0.585786C23.0391 0.210714 22.5304 0 22 0H18C17.4696 0 16.9609 0.210714 16.5858 0.585786C16.2107 0.960859 16 1.46957 16 2V3H8V2C8 1.46957 7.78929 0.960859 7.41421 0.585786C7.03914 0.210714 6.53043 0 6 0H2C1.46957 0 0.960859 0.210714 0.585786 0.585786C0.210714 0.960859 0 1.46957 0 2V6C0 6.53043 0.210714 7.03914 0.585786 7.41421C0.960859 7.78929 1.46957 8 2 8H3V16H2C1.46957 16 0.960859 16.2107 0.585786 16.5858C0.210714 16.9609 0 17.4696 0 18V22C0 22.5304 0.210714 23.0391 0.585786 23.4142C0.960859 23.7893 1.46957 24 2 24H6C6.53043 24 7.03914 23.7893 7.41421 23.4142C7.78929 23.0391 8 22.5304 8 22V21H16V22C16 22.5304 16.2107 23.0391 16.5858 23.4142C16.9609 23.7893 17.4696 24 18 24H22C22.5304 24 23.0391 23.7893 23.4142 23.4142C23.7893 23.0391 24 22.5304 24 22V18C24 17.4696 23.7893 16.9609 23.4142 16.5858C23.0391 16.2107 22.5304 16 22 16H21V8H22ZM18 2H22V6H18V2ZM2 2H6V3.9875C5.99835 3.99575 5.99835 4.00425 6 4.0125V6H2V2ZM6 22H2V18H6V19.9875C5.99835 19.9958 5.99835 20.0042 6 20.0125V22ZM22 22H18V18H22V22ZM19 16H18C17.4696 16 16.9609 16.2107 16.5858 16.5858C16.2107 16.9609 16 17.4696 16 18V19H8V18C8 17.4696 7.78929 16.9609 7.41421 16.5858C7.03914 16.2107 6.53043 16 6 16H5V8H6C6.53043 8 7.03914 7.78929 7.41421 7.41421C7.78929 7.03914 8 6.53043 8 6V5H16V6C16 6.53043 16.2107 7.03914 16.5858 7.41421C16.9609 7.78929 17.4696 8 18 8H19V16Z" fill="white"/>
</svg>
