<svg width="29" height="28" viewBox="0 0 29 28" fill="none" xmlns="http://www.w3.org/2000/svg">
<path d="M27.6667 13H26.6242C26.3842 10.1743 25.1527 7.5245 23.1474 5.51924C21.1422 3.51398 18.4924 2.28247 15.6667 2.0425V1C15.6667 0.734784 15.5613 0.48043 15.3738 0.292893C15.1863 0.105357 14.9319 0 14.6667 0C14.4015 0 14.1471 0.105357 13.9596 0.292893C13.772 0.48043 13.6667 0.734784 13.6667 1V2.0425C10.841 2.28247 8.19119 3.51398 6.18593 5.51924C4.18067 7.5245 2.94915 10.1743 2.70919 13H1.66669C1.40147 13 1.14712 13.1054 0.95958 13.2929C0.772044 13.4804 0.666687 13.7348 0.666687 14C0.666687 14.2652 0.772044 14.5196 0.95958 14.7071C1.14712 14.8946 1.40147 15 1.66669 15H2.70919C2.94915 17.8257 4.18067 20.4755 6.18593 22.4808C8.19119 24.486 10.841 25.7175 13.6667 25.9575V27C13.6667 27.2652 13.772 27.5196 13.9596 27.7071C14.1471 27.8946 14.4015 28 14.6667 28C14.9319 28 15.1863 27.8946 15.3738 27.7071C15.5613 27.5196 15.6667 27.2652 15.6667 27V25.9575C18.4924 25.7175 21.1422 24.486 23.1474 22.4808C25.1527 20.4755 26.3842 17.8257 26.6242 15H27.6667C27.9319 15 28.1863 14.8946 28.3738 14.7071C28.5613 14.5196 28.6667 14.2652 28.6667 14C28.6667 13.7348 28.5613 13.4804 28.3738 13.2929C28.1863 13.1054 27.9319 13 27.6667 13ZM15.6667 23.95V23C15.6667 22.7348 15.5613 22.4804 15.3738 22.2929C15.1863 22.1054 14.9319 22 14.6667 22C14.4015 22 14.1471 22.1054 13.9596 22.2929C13.772 22.4804 13.6667 22.7348 13.6667 23V23.95C11.3728 23.7159 9.22982 22.6978 7.59936 21.0673C5.9689 19.4369 4.95075 17.2939 4.71669 15H5.66669C5.9319 15 6.18626 14.8946 6.37379 14.7071C6.56133 14.5196 6.66669 14.2652 6.66669 14C6.66669 13.7348 6.56133 13.4804 6.37379 13.2929C6.18626 13.1054 5.9319 13 5.66669 13H4.71669C4.95075 10.7061 5.9689 8.56313 7.59936 6.93267C9.22982 5.30221 11.3728 4.28406 13.6667 4.05V5C13.6667 5.26522 13.772 5.51957 13.9596 5.70711C14.1471 5.89464 14.4015 6 14.6667 6C14.9319 6 15.1863 5.89464 15.3738 5.70711C15.5613 5.51957 15.6667 5.26522 15.6667 5V4.05C17.9606 4.28406 20.1036 5.30221 21.734 6.93267C23.3645 8.56313 24.3826 10.7061 24.6167 13H23.6667C23.4015 13 23.1471 13.1054 22.9596 13.2929C22.772 13.4804 22.6667 13.7348 22.6667 14C22.6667 14.2652 22.772 14.5196 22.9596 14.7071C23.1471 14.8946 23.4015 15 23.6667 15H24.6167C24.3826 17.2939 23.3645 19.4369 21.734 21.0673C20.1036 22.6978 17.9606 23.7159 15.6667 23.95ZM14.6667 9C13.6778 9 12.7111 9.29325 11.8888 9.84265C11.0666 10.3921 10.4257 11.173 10.0473 12.0866C9.66885 13.0002 9.56983 14.0055 9.76276 14.9755C9.95569 15.9454 10.4319 16.8363 11.1312 17.5355C11.8304 18.2348 12.7213 18.711 13.6912 18.9039C14.6611 19.0969 15.6665 18.9978 16.5801 18.6194C17.4937 18.241 18.2746 17.6001 18.824 16.7779C19.3734 15.9556 19.6667 14.9889 19.6667 14C19.6667 12.6739 19.1399 11.4021 18.2022 10.4645C17.2645 9.52678 15.9928 9 14.6667 9ZM14.6667 17C14.0733 17 13.4933 16.8241 13 16.4944C12.5066 16.1648 12.1221 15.6962 11.895 15.1481C11.668 14.5999 11.6086 13.9967 11.7243 13.4147C11.8401 12.8328 12.1258 12.2982 12.5454 11.8787C12.9649 11.4591 13.4995 11.1734 14.0814 11.0576C14.6634 10.9419 15.2666 11.0013 15.8147 11.2284C16.3629 11.4554 16.8315 11.8399 17.1611 12.3333C17.4907 12.8266 17.6667 13.4067 17.6667 14C17.6667 14.7956 17.3506 15.5587 16.788 16.1213C16.2254 16.6839 15.4623 17 14.6667 17Z" fill="white"/>
</svg>
