<svg width="48" height="48" viewBox="0 0 48 48" fill="none" xmlns="http://www.w3.org/2000/svg">
<rect width="48" height="48" rx="12" fill="white"/>
<path opacity="0.2" d="M32 13V35C32 35.5304 31.7893 36.0391 31.4142 36.4142C31.0391 36.7893 30.5304 37 30 37H18C17.4696 37 16.9609 36.7893 16.5858 36.4142C16.2107 36.0391 16 35.5304 16 35V13C16 12.4696 16.2107 11.9609 16.5858 11.5858C16.9609 11.2107 17.4696 11 18 11H30C30.5304 11 31.0391 11.2107 31.4142 11.5858C31.7893 11.9609 32 12.4696 32 13Z" fill="#1841D3"/>
<path d="M30 10H18C17.2044 10 16.4413 10.3161 15.8787 10.8787C15.3161 11.4413 15 12.2044 15 13V35C15 35.7956 15.3161 36.5587 15.8787 37.1213C16.4413 37.6839 17.2044 38 18 38H30C30.7956 38 31.5587 37.6839 32.1213 37.1213C32.6839 36.5587 33 35.7956 33 35V13C33 12.2044 32.6839 11.4413 32.1213 10.8787C31.5587 10.3161 30.7956 10 30 10ZM31 35C31 35.2652 30.8946 35.5196 30.7071 35.7071C30.5196 35.8946 30.2652 36 30 36H18C17.7348 36 17.4804 35.8946 17.2929 35.7071C17.1054 35.5196 17 35.2652 17 35V13C17 12.7348 17.1054 12.4804 17.2929 12.2929C17.4804 12.1054 17.7348 12 18 12H30C30.2652 12 30.5196 12.1054 30.7071 12.2929C30.8946 12.4804 31 12.7348 31 13V35ZM25.5 15.5C25.5 15.7967 25.412 16.0867 25.2472 16.3334C25.0824 16.58 24.8481 16.7723 24.574 16.8858C24.2999 16.9994 23.9983 17.0291 23.7074 16.9712C23.4164 16.9133 23.1491 16.7704 22.9393 16.5607C22.7296 16.3509 22.5867 16.0836 22.5288 15.7926C22.4709 15.5017 22.5006 15.2001 22.6142 14.926C22.7277 14.6519 22.92 14.4176 23.1666 14.2528C23.4133 14.088 23.7033 14 24 14C24.3978 14 24.7794 14.158 25.0607 14.4393C25.342 14.7206 25.5 15.1022 25.5 15.5Z" fill="#1841D3"/>
</svg>
