<svg width="40" height="48" viewBox="0 0 40 48" fill="none" xmlns="http://www.w3.org/2000/svg">
<g clip-path="url(#clip0_404_2407)">
<path d="M15.2367 2.21699V4.44316H11.3333V5.891H15.2367V10.325H16.7627V5.891H20.7638V4.44316H16.7627V0H15.2367V2.21699Z" fill="#7099A6"/>
<path d="M2.47931 7.86383V11.0944H-3.4293V13.1213H2.47931V19.682H4.67063V13.1213H10.6679V11.0944H4.67063V4.6333H2.47931V7.86383Z" fill="#EB912C"/>
<path d="M27.2403 7.86383V11.0944H21.3317V13.2209H27.2403V19.682H29.5203V13.2209H35.4287V11.0944H29.5203V4.6333H27.2403V7.86383Z" fill="#59879B"/>
<path d="M14.669 18.8673V22.487H8.09505V25.1836H14.669V32.4228H17.3306V25.1836H23.9044V22.487H17.3306V15.2476H14.669V18.8673Z" fill="#E8762C"/>
<path d="M34.0005 20.6952V22.9667H29.9993V24.8035H34.0005V29.3371H35.9966V24.8035H39.9977V22.9667H35.9966V18.4331H34.0005V20.6952Z" fill="#5B6591"/>
<path d="M-4.09449 20.8943V23.0662H-7.99813V24.6045H-4.09449V28.9482H-2.56874V24.6045L1.43239 24.4597V23.0662H-2.56874V18.7227H-4.09449V20.8943Z" fill="#7099A6"/>
<path d="M2.47931 31.1197V34.3502H-3.4293V36.4768H2.47931V42.9378H4.75932V36.4768H10.6679V34.3502H4.75932V27.8892H2.47931V31.1197Z" fill="#C72035"/>
<path d="M27.2403 31.1197V34.3502H21.3317V36.3773H27.2403V42.9378H29.5203V36.3773H35.4287V34.3502H29.5203V27.8892H27.2403V31.1197Z" fill="#1F447E"/>
<path d="M15.0506 39.3275V41.5898H11.0494V43.4268H15.0506V47.9604H17.0467V43.4268H21.0479V41.5898H17.0467V37.0562H15.0506V39.3275Z" fill="#5B6591"/>
</g>
<defs>
<clipPath id="clip0_404_2407">
<rect width="48" height="48" fill="white" transform="translate(-8)"/>
</clipPath>
</defs>
</svg>
