<svg width="48" height="48" viewBox="0 0 48 48" fill="none" xmlns="http://www.w3.org/2000/svg">
<rect width="48" height="48" rx="12" fill="white"/>
<path opacity="0.2" d="M34 13V34H27V13H34Z" fill="#1841D3"/>
<path d="M36 33H35V13C35 12.7348 34.8946 12.4804 34.7071 12.2929C34.5196 12.1054 34.2652 12 34 12H27C26.7348 12 26.4804 12.1054 26.2929 12.2929C26.1054 12.4804 26 12.7348 26 13V18H20C19.7348 18 19.4804 18.1054 19.2929 18.2929C19.1054 18.4804 19 18.7348 19 19V24H14C13.7348 24 13.4804 24.1054 13.2929 24.2929C13.1054 24.4804 13 24.7348 13 25V33H12C11.7348 33 11.4804 33.1054 11.2929 33.2929C11.1054 33.4804 11 33.7348 11 34C11 34.2652 11.1054 34.5196 11.2929 34.7071C11.4804 34.8946 11.7348 35 12 35H36C36.2652 35 36.5196 34.8946 36.7071 34.7071C36.8946 34.5196 37 34.2652 37 34C37 33.7348 36.8946 33.4804 36.7071 33.2929C36.5196 33.1054 36.2652 33 36 33ZM28 14H33V33H28V14ZM21 20H26V33H21V20ZM15 26H19V33H15V26Z" fill="#1841D3"/>
</svg>
