<svg width="48" height="48" viewBox="0 0 48 48" fill="none" xmlns="http://www.w3.org/2000/svg">
<g clip-path="url(#clip0_404_2466)">
<path d="M47.8127 28.743C47.5249 27.8978 46.771 27.309 45.7961 27.1678C45.3363 27.1012 44.8099 27.1296 44.1868 27.2541C43.1009 27.4714 42.2952 27.5541 41.7073 27.5701C43.9266 23.9365 45.7312 19.7929 46.7701 15.8923C48.45 9.58523 47.5523 6.71196 46.5033 5.41232C43.7271 1.97232 39.6768 0.124321 34.7904 0.0677753C32.1837 0.0368662 29.8954 0.535957 28.7017 0.894866C27.5902 0.704684 26.3952 0.598503 25.1412 0.578866C22.7907 0.542503 20.7139 1.03941 18.9393 2.06068C17.9568 1.7385 16.38 1.28432 14.5591 0.994503C10.2765 0.312684 6.82481 0.843957 4.30007 2.57359C1.24286 4.66778 -0.174372 8.30632 0.0877386 13.3881C0.170984 15.0016 1.10168 19.9107 2.5671 24.5663C3.40931 27.2423 4.30738 29.4645 5.2364 31.1718C6.55389 33.5927 7.96362 35.0183 9.54622 35.5303C10.4332 35.8169 12.0449 36.0176 13.74 34.6485C13.9549 34.9009 14.2415 35.1516 14.6219 35.3845C15.1051 35.68 15.6959 35.9214 16.2859 36.0645C18.4122 36.58 20.4039 36.451 22.1032 35.7285C22.1137 36.0216 22.1217 36.3016 22.1285 36.5434C22.1397 36.9356 22.151 37.3201 22.1658 37.6798C22.2665 40.1114 22.4371 42.0021 22.9426 43.3251C22.9703 43.3978 23.0076 43.5087 23.047 43.6263C23.2992 44.375 23.7208 45.6285 24.7936 46.6101C25.9045 47.6271 27.2483 47.9389 28.4789 47.9389C29.0962 47.9389 29.6851 47.8603 30.2016 47.753C32.0427 47.3703 34.1338 46.7874 35.6465 44.6987C37.0767 42.7241 37.7719 39.7501 37.8977 35.0641C37.9139 34.9315 37.9292 34.805 37.9434 34.6845L37.9734 34.4369L38.3103 34.4656L38.3971 34.4712C40.2724 34.5541 42.5654 34.1685 43.9737 33.5341C45.0864 33.0334 48.6523 31.2078 47.8127 28.743Z" fill="black"/>
<path d="M44.6062 29.2222C39.0303 30.3377 38.6469 28.507 38.6469 28.507C44.5341 20.0355 46.9952 9.28224 44.8715 6.65042C39.0774 -0.52867 29.0476 2.8666 28.8802 2.9546L28.8264 2.96406C27.7247 2.74224 26.4919 2.61024 25.1062 2.58824C22.5833 2.54824 20.6694 3.22969 19.2171 4.29769C19.2171 4.29769 1.32498 -2.85031 2.15725 13.2875C2.33424 16.7206 7.23147 39.2644 13.0725 32.4552C15.2075 29.9652 17.2704 27.8599 17.2704 27.8599C18.2949 28.5199 19.5214 28.8566 20.8072 28.7357L20.9072 28.6535C20.876 28.9626 20.8903 29.265 20.9471 29.623C19.4423 31.2533 19.8846 31.5395 16.8765 32.1401C13.8326 32.7484 15.6207 33.8313 16.7882 34.1146C18.2036 34.4577 21.4779 34.9439 23.6903 31.9404L23.6021 32.2832C24.1916 32.7412 24.6056 35.2619 24.5362 37.5471C24.4668 39.8322 24.4205 41.4011 24.8849 42.6266C25.3497 43.8521 25.8126 46.6093 29.7672 45.7877C33.0713 45.101 34.7837 43.3215 35.022 40.3531C35.1909 38.243 35.5735 38.555 35.5975 36.6682L35.9045 35.7752C36.2583 32.9146 35.9607 31.9917 37.9963 32.421L38.4913 32.4632C39.9893 32.5292 41.9505 32.2293 43.1014 31.7106C45.5797 30.5953 47.0496 28.733 44.6059 29.2222H44.6062Z" fill="#336791"/>
<path d="M20.2644 14.8229C19.762 14.7551 19.3069 14.8178 19.0767 14.9869C18.9473 15.082 18.9072 15.1922 18.8963 15.268C18.8674 15.4689 19.0126 15.6911 19.1018 15.8056C19.3542 16.13 19.7228 16.3529 20.0876 16.402C20.1405 16.4091 20.1931 16.4127 20.2455 16.4125C20.8539 16.4125 21.4072 15.9531 21.4559 15.614C21.5169 15.1893 20.8811 14.906 20.2644 14.8229ZM36.9105 14.8364C36.8625 14.5034 36.2517 14.4085 35.672 14.4867C35.093 14.5649 34.5316 14.8184 34.5785 15.152C34.616 15.4114 35.0992 15.8544 35.671 15.8544C35.7194 15.8544 35.7681 15.8511 35.8173 15.8445C36.199 15.7933 36.4791 15.5582 36.6122 15.4227C36.8147 15.2162 36.9321 14.986 36.9105 14.8364Z" fill="white"/>
<path d="M46.4617 29.0953C46.249 28.4719 45.5647 28.2713 44.4278 28.499C41.052 29.1746 39.8431 28.7066 39.4462 28.4232C42.0701 24.5468 44.2286 19.861 45.3932 15.4892C45.9447 13.4182 46.2494 11.495 46.2743 9.92733C46.3019 8.20679 45.9997 6.94242 45.3765 6.17006C42.8637 3.05642 39.1758 1.38624 34.7117 1.34042C31.6427 1.30697 29.0497 2.06861 28.547 2.28279C27.4884 2.02751 26.3344 1.87079 25.0781 1.85079C22.7742 1.81461 20.7827 2.34951 19.1339 3.43988C18.4177 3.18133 16.5668 2.56515 14.3032 2.21151C10.3899 1.60061 7.28023 2.06352 5.0611 3.58806C2.41318 5.40733 1.19075 8.65933 1.42755 13.2535C1.50723 14.7992 2.41543 19.5541 3.84861 24.1077C5.73513 30.1012 7.78589 33.4941 9.94352 34.1921C10.1961 34.2737 10.4872 34.3308 10.8084 34.3308C11.5955 34.3308 12.5605 33.9868 13.5645 32.8162C14.7891 31.3916 16.0559 30.0016 17.3632 28.6479C18.2114 29.0893 19.1433 29.3359 20.0963 29.3606C20.0983 29.3848 20.1005 29.409 20.1028 29.433C19.9388 29.6227 19.7782 29.8151 19.621 30.0102C18.9607 30.8232 18.8232 30.9924 16.6977 31.4168C16.093 31.5379 14.4872 31.8588 14.4635 32.9504C14.438 34.1432 16.3619 34.6441 16.581 34.6972C17.3449 34.8826 18.0808 34.9741 18.7825 34.9741C20.4893 34.9741 21.9912 34.4301 23.1916 33.3775C23.1546 37.6295 23.3374 41.8193 23.8639 43.0959C24.2951 44.141 25.3484 46.695 28.6756 46.6948C29.1638 46.6948 29.7012 46.6397 30.2924 46.5168C33.7648 45.795 35.2728 44.3066 35.8561 41.0253C36.1683 39.2717 36.7039 35.0842 36.9559 32.8381C37.4876 32.999 38.1722 33.0726 38.9122 33.0724C40.4556 33.0724 42.2366 32.7544 43.3534 32.2517C44.6081 31.6866 46.8723 30.3001 46.4617 29.0953ZM38.1922 13.9172C38.1808 14.5802 38.0867 15.1822 37.9869 15.8106C37.8795 16.4864 37.7685 17.1852 37.7406 18.0333C37.713 18.8588 37.8193 19.717 37.9221 20.547C38.1298 22.2233 38.343 23.9492 37.5178 25.6521C37.381 25.4164 37.2589 25.173 37.1522 24.9232C37.0497 24.6821 36.8269 24.2948 36.5185 23.7588C35.3188 21.6722 32.5092 16.7861 33.9475 14.7922C34.3759 14.1988 35.4631 13.5886 38.1922 13.9172ZM34.8842 2.68315C38.8841 2.76879 42.0481 4.21988 44.2883 6.99588C46.0064 9.12515 44.1145 18.8137 38.6373 27.1721C38.5823 27.1041 38.5269 27.0364 38.4712 26.969L38.4018 26.885C39.8172 24.6182 39.5405 22.3755 39.2941 20.3871C39.1929 19.5711 39.0972 18.8004 39.1216 18.0764C39.1467 17.3092 39.2514 16.651 39.3526 16.0146C39.4769 15.2304 39.6035 14.419 39.5686 13.4624C39.5947 13.3621 39.6052 13.2435 39.5915 13.1028C39.5024 12.1855 38.4225 9.44024 36.2213 6.95552C35.0173 5.59642 33.2614 4.07552 30.864 3.0497C31.8952 2.84242 33.3053 2.64915 34.8842 2.68315ZM12.502 31.9595C11.3958 33.2493 10.632 33.0021 10.3807 32.921C8.74396 32.3915 6.84469 29.0366 5.17022 23.7166C3.7213 19.1133 2.8746 14.4844 2.80748 13.1864C2.59599 9.08133 3.62212 6.22042 5.85756 4.68297C9.49561 2.18115 15.4769 3.67861 17.8803 4.43806C17.8458 4.47115 17.8098 4.50206 17.7757 4.5357C13.8317 8.39824 13.9252 14.9975 13.935 15.401C13.9346 15.5566 13.9481 15.777 13.9665 16.0801C14.0344 17.1901 14.1607 19.2559 13.8232 21.5953C13.5098 23.7693 14.2009 25.8972 15.719 27.4333C15.8747 27.5907 16.0385 27.7405 16.2096 27.8821C15.5339 28.5839 14.0653 30.1359 12.502 31.9595ZM16.7166 26.5062C15.493 25.2681 14.9373 23.5459 15.1917 21.7808C15.548 19.3095 15.4165 17.1572 15.3459 16.0008C15.3359 15.839 15.3271 15.6972 15.322 15.5853C15.8982 15.0899 18.5682 13.7026 20.4724 14.1257C21.3412 14.3186 21.8707 14.8924 22.0908 15.8793C23.23 20.989 22.2415 23.1186 21.4473 24.8301C21.2837 25.1826 21.129 25.5159 20.997 25.8606L20.8946 26.1272C20.6355 26.801 20.3944 27.4275 20.245 28.0224C18.9442 28.0188 17.6788 27.4799 16.7166 26.5061M16.9163 33.397C16.5364 33.305 16.1948 33.1452 15.9944 33.0126C16.1618 32.9362 16.4597 32.8322 16.9765 32.729C19.477 32.2299 19.8632 31.8775 20.7066 30.8392C20.8999 30.601 21.119 30.3312 21.4226 30.0024L21.423 30.0021C21.875 29.5112 22.0818 29.5944 22.4568 29.7453C22.7607 29.8672 23.0567 30.2366 23.1767 30.6432C23.2335 30.8351 23.2973 31.1995 23.0886 31.4832C21.327 33.8752 18.7599 33.8444 16.9163 33.397ZM30.0029 45.2064C26.9438 45.8421 25.8607 44.3284 25.1469 42.5981C24.6862 41.481 24.4597 36.4435 24.6204 30.8804C24.6225 30.8064 24.6116 30.735 24.5906 30.6677C24.5718 30.5349 24.5433 30.4035 24.5051 30.2746C24.2662 29.4652 23.6841 28.7881 22.9857 28.5073C22.7082 28.3959 22.199 28.1913 21.587 28.3432C21.7175 27.8217 21.9438 27.2328 22.1892 26.5952L22.2922 26.327C22.408 26.0246 22.5535 25.7113 22.7073 25.3797C23.5384 23.5892 24.6767 21.1366 23.4413 15.5961C22.9786 13.5208 21.4333 12.5073 19.0908 12.7428C17.6865 12.8837 16.4016 13.4332 15.7608 13.7482C15.623 13.8159 15.497 13.8813 15.3792 13.945C15.5581 11.8541 16.2338 7.94642 18.7615 5.47406C20.3531 3.9177 22.4727 3.14897 25.0552 3.19042C30.1437 3.27115 33.4067 5.80351 35.2483 7.91388C36.8352 9.73224 37.6944 11.5641 38.0374 12.5521C35.4584 12.2977 33.7045 12.7913 32.8154 14.0241C30.8811 16.7055 33.8736 21.9099 35.3118 24.4111C35.5756 24.8695 35.8032 25.2657 35.8749 25.4341C36.3432 26.5348 36.9496 27.2697 37.3922 27.8061C37.528 27.9704 37.6596 28.1299 37.7597 28.2692C36.9786 28.4875 35.5756 28.9921 35.7035 31.5141C35.6004 32.7795 34.8671 38.7042 34.4946 40.7975C34.0028 43.563 32.9534 44.5928 30.0029 45.2064ZM42.7717 31.0364C41.973 31.3959 40.6363 31.6655 39.3667 31.7235C37.9642 31.7872 37.2503 31.5711 37.0823 31.4382C37.0035 29.8666 37.6067 29.7024 38.2451 29.5286C38.3454 29.5013 38.4433 29.4746 38.5378 29.4426C38.5964 29.489 38.6609 29.5348 38.7313 29.5801C39.8585 30.3015 41.8689 30.3793 44.7073 29.8112L44.7384 29.8052C44.3556 30.1522 43.7005 30.6181 42.7717 31.0364Z" fill="white"/>
</g>
<defs>
<clipPath id="clip0_404_2466">
<rect width="48" height="48" fill="white"/>
</clipPath>
</defs>
</svg>
