<svg width="48" height="48" viewBox="0 0 48 48" fill="none" xmlns="http://www.w3.org/2000/svg">
<mask id="mask0_404_2435" style="mask-type:luminance" maskUnits="userSpaceOnUse" x="0" y="0" width="48" height="48">
<path d="M26.6666 1.99607C26.6666 0.893754 27.8606 0 29.3333 0H45.3334C46.806 0 48 0.893754 48 1.99607V45.9105C48 47.0128 46.806 47.9064 45.3334 47.9064H2.66663C1.194 47.9064 0 47.0128 0 45.9103V25.9495C0 24.847 1.194 23.9534 2.66663 23.9534H13.3335V13.9728C13.3335 12.8703 14.5273 11.9766 16.0001 11.9766H26.6666V1.99607Z" fill="white"/>
</mask>
<g mask="url(#mask0_404_2435)">
<path d="M0 23.9531V47.9062H21.3334V25.9493C21.3334 24.8469 20.1394 23.9533 18.6667 23.9533L0 23.9531Z" fill="url(#paint0_linear_404_2435)"/>
</g>
<defs>
<linearGradient id="paint0_linear_404_2435" x1="592.513" y1="23.9531" x2="1311.33" y2="2299.78" gradientUnits="userSpaceOnUse">
<stop stop-color="#F9E589"/>
<stop offset="1" stop-color="#F6D751"/>
</linearGradient>
</defs>
</svg>
