<svg width="48" height="48" viewBox="0 0 48 48" fill="none" xmlns="http://www.w3.org/2000/svg">
<g clip-path="url(#clip0_404_2369)">
<path d="M0 24V48H48V0H0V24Z" fill="#1677C7"/>
<path d="M24 0H0V48H24V0Z" fill="#1368AD"/>
<path d="M29.126 39.2518C29.342 39.1278 30.148 38.6638 30.91 38.2218L32.29 37.4218L32.58 37.8498C32.986 38.4658 33.866 39.3118 34.4 39.5958C35.932 40.4038 38.034 40.2918 39.07 39.3598C39.456 39.0318 39.698 38.5478 39.698 38.0098L39.696 37.9158V37.9198C39.696 37.3638 39.626 37.1198 39.336 36.7018C38.964 36.1678 38.202 35.7218 36.038 34.7798C33.564 33.7138 32.496 33.0538 31.522 32.0018C30.934 31.3338 30.48 30.5278 30.216 29.6458L30.204 29.6018C30.022 28.9238 29.976 27.2218 30.12 26.5398C30.63 24.1478 32.436 22.4818 35.042 21.9858C35.888 21.8258 37.854 21.8838 38.684 22.0918V22.0938C39.904 22.3998 40.832 22.9398 41.686 23.8238C42.128 24.2938 42.784 25.1558 42.836 25.3618C42.852 25.4238 40.764 26.8218 39.5 27.6078C39.454 27.6358 39.27 27.4398 39.066 27.1358C38.446 26.2358 37.8 25.8478 36.81 25.7778C35.354 25.6778 34.418 26.4398 34.424 27.7138L34.422 27.7878C34.422 28.0878 34.498 28.3738 34.632 28.6198L34.628 28.6118C34.95 29.2738 35.544 29.6718 37.41 30.4778C40.848 31.9558 42.318 32.9298 43.232 34.3178C44.252 35.8638 44.482 38.3338 43.788 40.1698C43.028 42.1658 41.138 43.5218 38.478 43.9678C37.656 44.1138 35.704 44.0918 34.822 43.9338C32.894 43.5898 31.066 42.6358 29.938 41.3858C29.496 40.9018 28.634 39.6278 28.688 39.5378C28.708 39.5018 28.906 39.3778 29.126 39.2518ZM10.518 24.1278C10.518 23.0618 10.538 22.1698 10.57 22.1498C10.592 22.1158 14.396 22.0998 19.004 22.1078L27.394 22.1298L27.416 24.0898L27.432 26.0558H21.182V43.8078H16.76V26.0558H10.518V24.1278Z" fill="white"/>
<path d="M42.014 32.9761H32.612C33.396 33.5521 34.414 34.0761 36.038 34.7761C38.204 35.7181 38.964 36.1661 39.336 36.6981C39.626 37.1161 39.696 37.3601 39.696 37.9161V37.9121L39.698 38.0061C39.698 38.5461 39.456 39.0281 39.07 39.3561C38.5 39.8681 37.608 40.1321 36.666 40.1321C35.894 40.1321 35.09 39.9561 34.4 39.5921C33.866 39.3101 32.984 38.4641 32.58 37.8461L32.29 37.4181L30.91 38.2181C30.148 38.6601 29.342 39.1241 29.126 39.2481C28.906 39.3741 28.708 39.4981 28.686 39.5301C28.632 39.6201 29.494 40.8941 29.936 41.3781C31.064 42.6281 32.892 43.5821 34.82 43.9261C35.302 44.0121 36.102 44.0581 36.862 44.0581C37.496 44.0581 38.102 44.0261 38.476 43.9601C41.136 43.5141 43.026 42.1581 43.786 40.1621C44.48 38.3261 44.25 35.8561 43.23 34.3101C42.912 33.8321 42.526 33.3981 42.014 32.9761Z" fill="#DEDEDE"/>
<path d="M21.182 32.9761H16.76V43.8101H21.182V32.9761Z" fill="#DEDEDE"/>
</g>
<defs>
<clipPath id="clip0_404_2369">
<rect width="48" height="48" fill="white"/>
</clipPath>
</defs>
</svg>
