<svg width="48" height="48" viewBox="0 0 48 48" fill="none" xmlns="http://www.w3.org/2000/svg">
<rect width="48" height="48" rx="12" fill="white"/>
<path opacity="0.2" d="M34 19H27V12L34 19ZM21.5 25C20.3027 24.9998 19.138 25.3903 18.1828 26.1122C17.2276 26.8341 16.534 27.8481 16.2075 29H15.5C14.5717 29 13.6815 29.3687 13.0251 30.0251C12.3687 30.6815 12 31.5717 12 32.5C12 33.4283 12.3687 34.3185 13.0251 34.9749C13.6815 35.6313 14.5717 36 15.5 36H21.5C22.9587 36 24.3576 35.4205 25.3891 34.3891C26.4205 33.3576 27 31.9587 27 30.5C27 29.0413 26.4205 27.6424 25.3891 26.6109C24.3576 25.5795 22.9587 25 21.5 25Z" fill="#1841D3"/>
<path d="M34.7075 18.2925L27.7075 11.2925C27.6146 11.1997 27.5042 11.1261 27.3829 11.0759C27.2615 11.0257 27.1314 10.9999 27 11H15C14.4696 11 13.9609 11.2107 13.5858 11.5858C13.2107 11.9609 13 12.4696 13 13V24C13 24.2652 13.1054 24.5196 13.2929 24.7071C13.4804 24.8946 13.7348 25 14 25C14.2652 25 14.5196 24.8946 14.7071 24.7071C14.8946 24.5196 15 24.2652 15 24V13H26V19C26 19.2652 26.1054 19.5196 26.2929 19.7071C26.4804 19.8946 26.7348 20 27 20H33V35H30C29.7348 35 29.4804 35.1054 29.2929 35.2929C29.1054 35.4804 29 35.7348 29 36C29 36.2652 29.1054 36.5196 29.2929 36.7071C29.4804 36.8946 29.7348 37 30 37H33C33.5304 37 34.0391 36.7893 34.4142 36.4142C34.7893 36.0391 35 35.5304 35 35V19C35.0001 18.8686 34.9743 18.7385 34.9241 18.6172C34.8739 18.4958 34.8003 18.3854 34.7075 18.2925ZM28 14.4138L31.5863 18H28V14.4138ZM21.5 24C20.2167 24 18.9622 24.3798 17.8944 25.0917C16.8267 25.8035 15.9936 26.8154 15.5 28C14.3065 28 13.1619 28.4741 12.318 29.318C11.4741 30.1619 11 31.3065 11 32.5C11 33.6935 11.4741 34.8381 12.318 35.682C13.1619 36.5259 14.3065 37 15.5 37H21.5C23.2239 37 24.8772 36.3152 26.0962 35.0962C27.3152 33.8772 28 32.2239 28 30.5C28 28.7761 27.3152 27.1228 26.0962 25.9038C24.8772 24.6848 23.2239 24 21.5 24ZM21.5 35H15.5C14.8777 35.001 14.2773 34.7699 13.8164 34.3518C13.3554 33.9337 13.0669 33.3587 13.0074 32.7392C12.9479 32.1197 13.1215 31.5003 13.4944 31.002C13.8673 30.5038 14.4126 30.1625 15.0237 30.045C15.0178 30.3102 15.1174 30.5669 15.3007 30.7587C15.484 30.9505 15.736 31.0615 16.0013 31.0675C16.2665 31.0735 16.5232 30.9738 16.7149 30.7905C16.9067 30.6072 17.0178 30.3552 17.0238 30.09C17.0472 29.8331 17.0915 29.5785 17.1562 29.3288C17.1703 29.2879 17.1816 29.2461 17.19 29.2038C17.4303 28.405 17.8878 27.6888 18.5115 27.135C19.1352 26.5812 19.9005 26.2117 20.722 26.0676C21.5435 25.9236 22.3889 26.0107 23.1638 26.3192C23.9388 26.6277 24.6127 27.1455 25.1104 27.8148C25.608 28.4842 25.9099 29.2786 25.9823 30.1095C26.0547 30.9405 25.8947 31.7751 25.5202 32.5204C25.1457 33.2657 24.5715 33.8922 23.8616 34.3301C23.1517 34.7679 22.3341 34.9999 21.5 35Z" fill="#1841D3"/>
</svg>
