<svg width="48" height="48" viewBox="0 0 48 48" fill="none" xmlns="http://www.w3.org/2000/svg">
<rect width="48" height="48" rx="12" fill="white"/>
<path opacity="0.2" d="M38 24L29 32H19L10 24L19 16H29L38 24Z" fill="#1841D3"/>
<path d="M19.6637 16.75L11.5 24L19.6587 31.25C19.7572 31.3372 19.8376 31.4429 19.8952 31.5611C19.9529 31.6793 19.9867 31.8077 19.9947 31.939C20.0027 32.0703 19.9847 32.2019 19.9419 32.3262C19.8991 32.4506 19.8322 32.5653 19.745 32.6638C19.6578 32.7623 19.5521 32.8426 19.4339 32.9003C19.3157 32.9579 19.1873 32.9917 19.056 32.9997C18.9247 33.0077 18.7931 32.9898 18.6688 32.9469C18.5444 32.9041 18.4297 32.8372 18.3312 32.75L9.33124 24.75C9.22483 24.6562 9.13961 24.5408 9.08124 24.4115C9.02286 24.2821 8.99268 24.1419 8.99268 24C8.99268 23.8581 9.02286 23.7179 9.08124 23.5886C9.13961 23.4593 9.22483 23.3439 9.33124 23.25L18.3312 15.25C18.4297 15.1625 18.5445 15.0953 18.669 15.0521C18.7934 15.009 18.9252 14.9908 19.0567 14.9986C19.1882 15.0064 19.3169 15.04 19.4354 15.0975C19.554 15.155 19.66 15.2353 19.7475 15.3338C19.835 15.4323 19.9022 15.547 19.9454 15.6715C19.9885 15.796 20.0067 15.9277 19.9989 16.0592C19.9911 16.1907 19.9575 16.3194 19.9 16.438C19.8425 16.5565 19.7622 16.6625 19.6637 16.75ZM38.6637 23.25L29.6637 15.25C29.4648 15.074 29.2041 14.9842 28.939 15.0003C28.6739 15.0165 28.426 15.1374 28.25 15.3363C28.074 15.5352 27.9841 15.7959 28.0003 16.061C28.0165 16.3261 28.1373 16.574 28.3362 16.75L36.5 24L28.3412 31.25C28.2427 31.3372 28.1624 31.4429 28.1048 31.5611C28.0471 31.6793 28.0133 31.8077 28.0053 31.939C27.9973 32.0703 28.0152 32.2019 28.0581 32.3262C28.1009 32.4506 28.1678 32.5653 28.255 32.6638C28.3422 32.7623 28.4479 32.8426 28.5661 32.9003C28.6843 32.9579 28.8127 32.9917 28.944 32.9997C29.0753 33.0077 29.2069 32.9898 29.3312 32.9469C29.4556 32.9041 29.5702 32.8372 29.6687 32.75L38.6687 24.75C38.7751 24.6562 38.8604 24.5408 38.9187 24.4115C38.9771 24.2821 39.0073 24.1419 39.0073 24C39.0073 23.8581 38.9771 23.7179 38.9187 23.5886C38.8604 23.4593 38.7751 23.3439 38.6687 23.25H38.6637Z" fill="black"/>
</svg>
