<svg width="48" height="48" viewBox="0 0 48 48" fill="none" xmlns="http://www.w3.org/2000/svg">
<rect width="48" height="48" rx="12" fill="white"/>
<path opacity="0.2" d="M35 27V33C35 33.2652 34.8946 33.5196 34.7071 33.7071C34.5196 33.8946 34.2652 34 34 34H14C13.7348 34 13.4804 33.8946 13.2929 33.7071C13.1054 33.5196 13 33.2652 13 33V27C13 26.7348 13.1054 26.4804 13.2929 26.2929C13.4804 26.1054 13.7348 26 14 26H34C34.2652 26 34.5196 26.1054 34.7071 26.2929C34.8946 26.4804 35 26.7348 35 27ZM34 14H14C13.7348 14 13.4804 14.1054 13.2929 14.2929C13.1054 14.4804 13 14.7348 13 15V21C13 21.2652 13.1054 21.5196 13.2929 21.7071C13.4804 21.8946 13.7348 22 14 22H34C34.2652 22 34.5196 21.8946 34.7071 21.7071C34.8946 21.5196 35 21.2652 35 21V15C35 14.7348 34.8946 14.4804 34.7071 14.2929C34.5196 14.1054 34.2652 14 34 14Z" fill="#1841D3"/>
<path d="M34 25H14C13.4696 25 12.9609 25.2107 12.5858 25.5858C12.2107 25.9609 12 26.4696 12 27V33C12 33.5304 12.2107 34.0391 12.5858 34.4142C12.9609 34.7893 13.4696 35 14 35H34C34.5304 35 35.0391 34.7893 35.4142 34.4142C35.7893 34.0391 36 33.5304 36 33V27C36 26.4696 35.7893 25.9609 35.4142 25.5858C35.0391 25.2107 34.5304 25 34 25ZM34 33H14V27H34V33ZM34 13H14C13.4696 13 12.9609 13.2107 12.5858 13.5858C12.2107 13.9609 12 14.4696 12 15V21C12 21.5304 12.2107 22.0391 12.5858 22.4142C12.9609 22.7893 13.4696 23 14 23H34C34.5304 23 35.0391 22.7893 35.4142 22.4142C35.7893 22.0391 36 21.5304 36 21V15C36 14.4696 35.7893 13.9609 35.4142 13.5858C35.0391 13.2107 34.5304 13 34 13ZM34 21H14V15H34V21ZM32 18C32 18.2967 31.912 18.5867 31.7472 18.8334C31.5824 19.08 31.3481 19.2723 31.074 19.3858C30.7999 19.4994 30.4983 19.5291 30.2074 19.4712C29.9164 19.4133 29.6491 19.2704 29.4393 19.0607C29.2296 18.8509 29.0867 18.5836 29.0288 18.2926C28.9709 18.0017 29.0007 17.7001 29.1142 17.426C29.2277 17.1519 29.42 16.9176 29.6666 16.7528C29.9133 16.588 30.2033 16.5 30.5 16.5C30.8978 16.5 31.2794 16.658 31.5607 16.9393C31.842 17.2206 32 17.6022 32 18ZM32 30C32 30.2967 31.912 30.5867 31.7472 30.8334C31.5824 31.08 31.3481 31.2723 31.074 31.3858C30.7999 31.4993 30.4983 31.5291 30.2074 31.4712C29.9164 31.4133 29.6491 31.2704 29.4393 31.0607C29.2296 30.8509 29.0867 30.5836 29.0288 30.2926C28.9709 30.0017 29.0007 29.7001 29.1142 29.426C29.2277 29.1519 29.42 28.9176 29.6666 28.7528C29.9133 28.588 30.2033 28.5 30.5 28.5C30.8978 28.5 31.2794 28.658 31.5607 28.9393C31.842 29.2206 32 29.6022 32 30Z" fill="#1841D3"/>
</svg>
