<svg width="48" height="48" viewBox="0 0 48 48" fill="none" xmlns="http://www.w3.org/2000/svg">
<rect width="48" height="48" rx="12" fill="white"/>
<path opacity="0.2" d="M19.0002 27.9999C19.0004 28.3173 19.0171 28.6343 19.0502 28.9499C17.3607 28.7705 15.7564 28.1166 14.423 27.0636C13.0896 26.0107 12.0814 24.6019 11.5151 23C10.9488 21.3981 10.8475 19.6687 11.2229 18.0116C11.5984 16.3546 12.4351 14.8377 13.6365 13.6363C14.8379 12.4349 16.3548 11.5981 18.0119 11.2227C19.6689 10.8473 21.3983 10.9486 23.0002 11.5149C24.6021 12.0812 26.011 13.0893 27.0639 14.4227C28.1168 15.7562 28.7708 17.3604 28.9502 19.0499C28.6346 19.0168 28.3175 19.0002 28.0002 18.9999C25.6132 18.9999 23.324 19.9481 21.6362 21.636C19.9484 23.3238 19.0002 25.613 19.0002 27.9999ZM28.9502 19.0499C28.9833 19.3655 29 19.6826 29.0002 19.9999C29.0002 22.3869 28.052 24.6761 26.3641 26.3639C24.6763 28.0517 22.3871 28.9999 20.0002 28.9999C19.6829 28.9997 19.3658 28.983 19.0502 28.9499C19.2296 30.6395 19.8836 32.2437 20.9365 33.5771C21.9894 34.9106 23.3983 35.9187 25.0001 36.485C26.602 37.0513 28.3315 37.1526 29.9885 36.7772C31.6455 36.4018 33.1624 35.565 34.3638 34.3636C35.5652 33.1622 36.402 31.6453 36.7774 29.9882C37.1528 28.3312 37.0515 26.6018 36.4852 24.9999C35.919 23.398 34.9108 21.9892 33.5774 20.9362C32.2439 19.8833 30.6397 19.2293 28.9502 19.0499Z" fill="#1841D3"/>
<path d="M29.8285 18.1713C29.496 16.3802 28.6805 14.7139 27.4701 13.3525C26.2596 11.991 24.7003 10.9861 22.9605 10.4461C21.2206 9.90621 19.3663 9.85181 17.5978 10.2888C15.8292 10.7258 14.2137 11.6376 12.9255 12.9258C11.6374 14.2139 10.7256 15.8295 10.2886 17.598C9.85156 19.3665 9.90597 21.2208 10.4459 22.9607C10.9858 24.7006 11.9908 26.2599 13.3522 27.4703C14.7137 28.6807 16.3799 29.4962 18.171 29.8288C18.5036 31.6199 19.3191 33.2861 20.5295 34.6476C21.7399 36.009 23.2993 37.014 25.0391 37.5539C26.779 38.0939 28.6333 38.1483 30.4018 37.7113C32.1704 37.2743 33.7859 36.3625 35.0741 35.0743C36.3622 33.7862 37.274 32.1706 37.711 30.4021C38.148 28.6335 38.0936 26.7792 37.5537 25.0394C37.0137 23.2995 36.0088 21.7402 34.6473 20.5298C33.2859 19.3194 31.6196 18.5038 29.8285 18.1713ZM11.9998 20C11.996 18.0501 12.7044 16.166 13.992 14.7016C15.2796 13.2373 17.0576 12.2937 18.992 12.048C20.9264 11.8024 22.8838 12.2717 24.4966 13.3677C26.1093 14.4638 27.2662 16.1111 27.7498 18C25.1858 18.0674 22.7454 19.1165 20.9323 20.9307C19.1193 22.745 18.0718 25.186 18.006 27.75C16.2881 27.3055 14.7663 26.3034 13.6793 24.9008C12.5923 23.4982 12.0016 21.7745 11.9998 20ZM27.9998 20C27.9975 22.1211 27.1539 24.1545 25.6541 25.6543C24.1543 27.1541 22.1208 27.9977 19.9998 28C20.0021 25.879 20.8457 23.8455 22.3455 22.3457C23.8453 20.8459 25.8788 20.0024 27.9998 20ZM27.9998 36C26.2261 35.9986 24.5031 35.4087 23.1006 34.3229C21.6981 33.2372 20.6955 31.7168 20.2498 30C22.8149 29.9342 25.2568 28.8859 27.0712 27.0715C28.8856 25.2571 29.934 22.8152 29.9998 20.25C31.8888 20.7337 33.5361 21.8906 34.6321 23.5033C35.7281 25.116 36.1974 27.0735 35.9518 29.0078C35.7062 30.9422 34.7625 32.7203 33.2982 34.0078C31.8339 35.2954 29.9497 36.0039 27.9998 36Z" fill="#1841D3"/>
</svg>
