<svg width="48" height="48" viewBox="0 0 48 48" fill="none" xmlns="http://www.w3.org/2000/svg">
<rect width="48" height="48" rx="12" fill="white"/>
<path opacity="0.2" d="M34 19H27V12L34 19Z" fill="#1841D3"/>
<path d="M13 24C13.2652 24 13.5196 23.8946 13.7071 23.7071C13.8946 23.5196 14 23.2652 14 23V14H25V20C25 20.2652 25.1054 20.5196 25.2929 20.7071C25.4804 20.8946 25.7348 21 26 21H32V23C32 23.2652 32.1054 23.5196 32.2929 23.7071C32.4804 23.8946 32.7348 24 33 24C33.2652 24 33.5196 23.8946 33.7071 23.7071C33.8946 23.5196 34 23.2652 34 23V20C34.0001 19.8686 33.9743 19.7385 33.9241 19.6172C33.8739 19.4958 33.8003 19.3854 33.7075 19.2925L26.7075 12.2925C26.6146 12.1997 26.5042 12.1261 26.3829 12.0759C26.2615 12.0257 26.1314 11.9999 26 12H14C13.4696 12 12.9609 12.2107 12.5858 12.5858C12.2107 12.9609 12 13.4696 12 14V23C12 23.2652 12.1054 23.5196 12.2929 23.7071C12.4804 23.8946 12.7348 24 13 24ZM27 15.4138L30.5863 19H27V15.4138ZM35.5 35C35.5 35.2652 35.3946 35.5196 35.2071 35.7071C35.0196 35.8946 34.7652 36 34.5 36H31C30.7348 36 30.4804 35.8946 30.2929 35.7071C30.1054 35.5196 30 35.2652 30 35V28C30 27.7348 30.1054 27.4804 30.2929 27.2929C30.4804 27.1054 30.7348 27 31 27C31.2652 27 31.5196 27.1054 31.7071 27.2929C31.8946 27.4804 32 27.7348 32 28V34H34.5C34.7652 34 35.0196 34.1054 35.2071 34.2929C35.3946 34.4804 35.5 34.7348 35.5 35ZM18.4775 33.5387C18.4385 33.9212 18.3153 34.2903 18.1167 34.6195C17.918 34.9487 17.649 35.2297 17.3287 35.4425C16.68 35.875 15.875 36 15.1425 36C14.5037 35.9966 13.8678 35.9126 13.25 35.75C12.9976 35.6761 12.7845 35.5057 12.6568 35.2758C12.5291 35.0458 12.4972 34.7749 12.5679 34.5215C12.6386 34.2682 12.8062 34.0529 13.0345 33.9223C13.2628 33.7917 13.5333 33.7563 13.7875 33.8237C14.335 33.9737 15.6562 34.1612 16.2312 33.7787C16.3425 33.705 16.46 33.5888 16.4987 33.2875C16.5425 32.9538 16.41 32.775 14.9012 32.3388C13.7325 32.0013 11.7762 31.435 12.0262 29.45C12.0652 29.075 12.1861 28.7132 12.3805 28.3903C12.575 28.0673 12.8381 27.7911 13.1512 27.5812C14.6312 26.5812 16.9913 27.1675 17.255 27.2362C17.3821 27.2697 17.5013 27.3279 17.6058 27.4075C17.7104 27.487 17.7983 27.5864 17.8644 27.6999C17.9306 27.8135 17.9738 27.9389 17.9914 28.0691C18.0091 28.1993 18.001 28.3317 17.9675 28.4587C17.934 28.5858 17.8758 28.705 17.7963 28.8096C17.7167 28.9142 17.6173 29.002 17.5038 29.0682C17.3903 29.1343 17.2649 29.1775 17.1347 29.1952C17.0045 29.2129 16.8721 29.2047 16.745 29.1712C16.1838 29.025 14.8425 28.8512 14.2675 29.2412C14.1921 29.2921 14.1301 29.3603 14.0866 29.4401C14.0431 29.52 14.0194 29.6091 14.0175 29.7C14.0025 29.8125 14 29.835 14.1575 29.9375C14.4462 30.1238 14.9625 30.2725 15.4637 30.4175C16.6875 30.7712 18.7575 31.375 18.4775 33.5387ZM27.3525 33.9425C27.779 33.1993 28.0023 32.3569 28 31.5C28 29.0187 26.2063 27 24 27C21.7937 27 20 29.0187 20 31.5C20 33.9813 21.7937 36 24 36C24.7064 35.9975 25.3968 35.7899 25.9875 35.4025L26.2925 35.7075C26.4801 35.895 26.7346 36.0002 26.9998 36.0001C27.2651 36 27.5194 35.8945 27.7069 35.7069C27.8944 35.5192 27.9996 35.2648 27.9995 34.9996C27.9994 34.7343 27.8939 34.48 27.7062 34.2925L27.3525 33.9425ZM24 34C22.8975 34 22 32.875 22 31.5C22 30.125 22.8975 29 24 29C25.1025 29 26 30.125 26 31.5C26.0002 31.8187 25.9504 32.1355 25.8525 32.4387L25.7062 32.2925C25.6133 32.1997 25.5031 32.1261 25.3817 32.0758C25.2603 32.0256 25.1303 31.9998 24.9989 31.9999C24.7337 32 24.4794 32.1055 24.2919 32.2931C24.1044 32.4808 23.9991 32.7352 23.9993 33.0004C23.9994 33.2657 24.1049 33.52 24.2925 33.7075L24.5025 33.9163C24.3405 33.9706 24.1709 33.9988 24 34Z" fill="#1841D3"/>
</svg>
