<svg width="48" height="48" viewBox="0 0 48 48" fill="none" xmlns="http://www.w3.org/2000/svg">
<path fill-rule="evenodd" clip-rule="evenodd" d="M32.7221 37.5521C32.7855 37.4302 32.8463 37.3226 32.898 37.2112C32.9306 37.14 32.9809 37.1257 33.0518 37.1276C33.4766 37.1396 33.9015 37.1527 34.3268 37.1568C34.6879 37.1606 35.0498 37.1538 35.4113 37.1497C35.8185 37.1448 36.2258 37.1235 36.6326 37.1351C37.1745 37.1508 37.7025 37.257 38.1926 37.4981C38.778 37.7865 39.2209 38.2256 39.5228 38.8042C39.7126 39.1711 39.8311 39.5707 39.8719 39.9817C39.9364 40.5847 39.894 41.1738 39.7028 41.7506C39.4658 42.4653 39.0158 43.0125 38.3906 43.4223C37.9095 43.7377 37.3819 43.9241 36.8164 44.0306C36.2179 44.1435 35.6175 44.1071 35.0171 44.109C34.3586 44.1116 33.7005 44.0973 33.042 44.0898C32.9269 44.0887 32.9104 44.067 32.9408 43.9571L32.9689 43.8558C33.033 43.6541 33.0675 43.6451 33.2723 43.6113C33.4175 43.5888 33.5563 43.5361 33.6799 43.4565C33.7489 43.4107 33.7774 43.2915 33.8044 43.1996C33.8276 43.1193 33.8288 43.0312 33.8295 42.9465C33.8389 41.6621 33.8486 40.3781 33.8539 39.0945C33.8553 38.7698 33.8472 38.4452 33.8295 38.121C33.8168 37.8941 33.6956 37.7388 33.4256 37.6852C33.2156 37.6436 33.0041 37.6113 32.793 37.5742L32.7221 37.5521ZM38.7506 40.662C38.7221 40.4062 38.7083 40.1482 38.6625 39.8962C38.553 39.2913 38.2883 38.7645 37.8233 38.3516C37.0714 37.6845 36.1661 37.5817 35.2174 37.6612C35.0014 37.6792 34.9549 37.7531 34.9515 37.9751C34.9463 38.2901 34.941 38.6051 34.9406 38.9201C34.9391 39.9191 34.9391 40.9181 34.9406 41.9171C34.9406 42.2016 34.9445 42.4856 34.9523 42.7691C34.9613 43.0593 35.0666 43.305 35.3509 43.4175C35.799 43.5948 36.2704 43.6158 36.7406 43.5435C37.4918 43.4283 38.0171 42.9907 38.3696 42.3348C38.6486 41.8143 38.7274 41.2462 38.7506 40.662ZM40.5765 44.0636C40.5675 43.908 40.6313 43.7793 40.71 43.6612C40.7314 43.6293 40.8049 43.6308 40.8555 43.6207L41.2853 43.5356C41.4371 43.5033 41.517 43.4013 41.5384 43.2525C41.5526 43.1542 41.5661 43.0548 41.5673 42.9555C41.5774 42.1691 41.5848 41.3827 41.5894 40.5963C41.5931 39.8088 41.5901 39.0213 41.5901 38.2338L41.5868 38.0835C41.5714 37.8303 41.4491 37.6991 41.1979 37.662L40.653 37.5791C40.5859 37.5701 40.5615 37.5378 40.5859 37.4782C40.6279 37.3766 40.668 37.2712 40.7273 37.1797C40.7494 37.146 40.824 37.1328 40.8743 37.134C41.1345 37.1377 41.3948 37.1572 41.655 37.1568L43.9204 37.1433C44.3569 37.143 44.7784 37.2191 45.1699 37.428C45.6008 37.6575 45.8419 38.0126 45.9109 38.4963C45.9829 39.0045 45.8288 39.4327 45.4575 39.7728C45.3049 39.9131 45.1073 40.0046 44.9303 40.1186L44.8725 40.1546C45.0368 40.215 45.1931 40.2671 45.3454 40.3293C45.7909 40.512 46.1453 40.7973 46.3328 41.253C46.4809 41.6126 46.4809 41.9876 46.3931 42.3603C46.2566 42.9438 45.8723 43.332 45.3724 43.6256C44.9033 43.9012 44.3955 44.0617 43.8548 44.0887C43.356 44.1138 42.855 44.1045 42.3551 44.1101L42.0656 44.1116C41.5839 44.1005 41.1021 44.0885 40.6204 44.0756L40.5765 44.0636ZM42.6529 41.7802H42.6578C42.6578 42.027 42.6544 42.2737 42.6589 42.5205C42.6619 42.6802 42.6563 42.8445 42.6908 42.9982C42.7425 43.2281 42.8475 43.4355 43.1055 43.5015C43.4505 43.5918 43.8107 43.6076 44.1623 43.548C44.6036 43.4711 44.9558 43.2498 45.1489 42.8295C45.2921 42.5171 45.3135 42.186 45.2644 41.8477C45.1991 41.4022 44.9625 41.079 44.5691 40.8671C44.3111 40.728 44.0359 40.6428 43.7426 40.6316C43.4141 40.6192 43.0853 40.6185 42.7568 40.6083C42.6645 40.6057 42.6518 40.6526 42.6521 40.7283C42.654 41.0786 42.6529 41.4292 42.6529 41.7802ZM43.3523 40.1021C43.5319 40.0931 43.7351 40.0905 43.9373 40.0702C44.3243 40.0316 44.5969 39.837 44.739 39.4668C44.8114 39.279 44.8084 39.0855 44.8103 38.8901C44.8159 38.3812 44.5189 37.9642 44.0355 37.7917C43.6624 37.6586 43.2776 37.6563 42.8906 37.6668C42.7339 37.671 42.6638 37.7396 42.6615 37.8975L42.6383 39.9558C42.6371 40.0376 42.6724 40.0728 42.7519 40.0755L43.3523 40.1021Z" fill="#94795D"/>
<path fill-rule="evenodd" clip-rule="evenodd" d="M3.95362 43.6678L3.92624 44.0218C3.67124 44.0218 3.43612 44.0199 3.20099 44.0225C2.75812 44.027 2.31524 44.0342 1.87199 44.0405L1.82924 44.0432C1.76587 44.0357 1.65074 44.0357 1.64774 44.0169C1.62899 43.9115 1.63499 43.8009 1.63987 43.6918C1.64024 43.6794 1.68337 43.6637 1.70849 43.6577L2.05312 43.5808C2.26799 43.5249 2.34374 43.4323 2.35387 43.2103C2.36549 42.9602 2.37712 42.7097 2.37824 42.4595C2.38162 41.8438 2.37787 41.2288 2.38049 40.613C2.38087 40.469 2.33099 40.3618 2.19674 40.3033C2.03721 40.2325 1.87657 40.1642 1.71487 40.0985C1.63837 40.0678 1.53899 40.0509 1.54799 39.9482C1.55699 39.8435 1.65337 39.8162 1.74412 39.7955C2.11987 39.7097 2.49599 39.626 2.87062 39.5345C2.99137 39.5049 3.10687 39.455 3.25124 39.4048C3.25874 39.4828 3.27262 39.557 3.27112 39.6313L3.24899 39.9842C3.24862 40.0239 3.26924 40.0772 3.29887 40.0993C3.31687 40.1132 3.37724 40.088 3.40724 40.0648C3.72749 39.821 4.06649 39.6107 4.45312 39.488C5.05199 39.2979 5.56612 39.4742 5.92612 39.9905C6.05287 40.1724 6.05325 40.1724 6.22912 40.0453C6.53099 39.8259 6.84675 39.6324 7.2 39.5049C7.9755 39.2248 8.72062 39.5803 8.99025 40.3614C9.0885 40.6449 9.126 40.9378 9.12525 41.237L9.11812 43.2238C9.11775 43.3877 9.17212 43.481 9.32812 43.532C9.50325 43.5894 9.68475 43.6288 9.882 43.6805L9.83625 44.0222C9.612 44.0222 9.40575 44.0207 9.1995 44.0225C8.6955 44.027 8.1915 44.0297 7.68787 44.0413C7.60012 44.0435 7.57725 44.0218 7.57275 43.9397C7.55812 43.6768 7.55587 43.6772 7.80337 43.6179L7.88662 43.5965C8.1285 43.5305 8.20912 43.4563 8.211 43.211C8.21662 42.5068 8.23125 41.8007 8.19562 41.0979C8.1585 40.3689 7.57987 39.9808 6.87337 40.1675C6.64536 40.23 6.43062 40.3335 6.23962 40.4728C6.174 40.5197 6.16162 40.5737 6.16687 40.6558C6.18712 40.9663 6.19875 41.277 6.20175 41.588C6.20624 42.1322 6.19949 42.6763 6.20175 43.2208C6.2025 43.4413 6.27787 43.5257 6.49575 43.5767L6.81937 43.6513L6.87937 43.6648C6.88387 43.7683 6.88799 43.8718 6.88312 43.9753C6.88012 44.0402 6.82987 44.0458 6.77362 44.0447C6.45899 44.0368 6.14399 44.0263 5.82937 44.027C5.4465 44.0278 5.06399 44.0387 4.68149 44.0454H4.5915C4.5915 43.9355 4.58624 43.8305 4.59524 43.7259C4.59712 43.7008 4.64137 43.6655 4.67175 43.6577L5.04899 43.5778C5.20912 43.5384 5.28562 43.4563 5.29462 43.2935C5.33737 42.5398 5.36812 41.7857 5.29725 41.0323C5.27994 40.8835 5.23865 40.7385 5.17499 40.6029C4.98187 40.1762 4.54724 39.998 4.04587 40.1263C3.80774 40.187 3.59287 40.2962 3.38962 40.4338C3.34543 40.4612 3.30912 40.4997 3.28427 40.5453C3.25942 40.591 3.24688 40.6424 3.24787 40.6944C3.24837 41.4464 3.24999 42.1982 3.25274 42.9497L3.25687 43.2395C3.26137 43.4417 3.34724 43.5482 3.54787 43.5917C3.67687 43.6209 3.80737 43.6408 3.95362 43.6678Z" fill="#50382B"/>
<path fill-rule="evenodd" clip-rule="evenodd" d="M26.6254 39.4818C26.6835 39.7646 26.6824 40.0188 26.4746 40.2116C26.2684 40.4032 26.0074 40.3387 25.7528 40.2959C25.7764 40.4302 25.8026 40.5442 25.8154 40.6597C25.908 41.5181 25.5386 42.1552 24.7425 42.5193C24.4418 42.6566 24.1226 42.7076 23.7968 42.7338C23.6348 42.7466 23.493 42.8703 23.4776 43.0034C23.4619 43.1384 23.5466 43.2772 23.7161 43.3177C23.916 43.3653 24.1245 43.3788 24.3296 43.4024C24.7699 43.4527 25.215 43.4756 25.65 43.5543C26.3078 43.6728 26.6749 44.2469 26.559 44.9077C26.4559 45.4957 26.1154 45.9236 25.6406 46.2517C24.8408 46.8059 23.9633 46.9679 23.0288 46.6852C22.4944 46.5232 22.1175 46.1718 21.9874 45.6033C21.9221 45.3187 21.9915 45.0611 22.2056 44.8679C22.4603 44.6392 22.7374 44.4352 23.004 44.2192L23.0903 44.1326L22.9913 44.0632C22.7194 43.9342 22.5019 43.7576 22.4175 43.4508C22.3886 43.3469 22.4186 43.2787 22.5068 43.2254C22.6568 43.1352 22.8059 43.0433 22.9541 42.9498C23.0239 42.9063 23.0929 42.8613 23.1578 42.8111C23.2463 42.7436 23.2384 42.6933 23.1326 42.6543C22.8866 42.5636 22.668 42.4319 22.4985 42.2294C22.2154 41.8916 22.1351 41.4892 22.1584 41.0643C22.1948 40.4006 22.5551 39.9633 23.1409 39.6821C23.8373 39.3479 24.5359 39.3269 25.2458 39.6314C25.5083 39.7439 25.785 39.7679 26.0666 39.7484C26.277 39.7334 26.4608 39.6539 26.6254 39.4818ZM24.0593 44.2372C23.5365 44.2327 23.3726 44.2972 23.0659 44.6096C22.7224 44.9598 22.7243 45.4454 23.067 45.7972C23.3273 46.0638 23.652 46.1887 24.0131 46.2262C24.435 46.2697 24.8505 46.2521 25.2338 46.0409C25.6425 45.8148 25.8458 45.3948 25.7539 44.9718C25.6778 44.6227 25.4205 44.4629 25.1074 44.3711C24.7511 44.2668 24.3829 44.2469 24.0593 44.2372ZM23.0325 40.8967C23.0516 41.0418 23.0595 41.1888 23.0918 41.3309C23.1754 41.6992 23.3355 42.0228 23.7019 42.1867C24.132 42.3798 24.6814 42.2969 24.8696 41.6932C24.9983 41.2914 24.9834 40.8574 24.8273 40.4654C24.7614 40.2861 24.6423 40.1312 24.486 40.0214C24.1125 39.7608 23.4386 39.7263 23.1641 40.3023C23.0749 40.4894 23.04 40.6886 23.0325 40.8967Z" fill="#4F382B"/>
<path fill-rule="evenodd" clip-rule="evenodd" d="M17.7562 39.3894C17.7701 39.4536 17.7979 39.5263 17.7986 39.5994C17.7997 39.7386 17.7847 39.8777 17.7769 40.0168V40.1376L17.8946 40.0476C18.2171 39.7821 18.5636 39.5559 18.9671 39.4341C19.6954 39.2147 20.4229 39.6133 20.6602 40.3551C20.7502 40.6371 20.7859 40.9269 20.7892 41.2217C20.7967 41.8764 20.8012 42.5312 20.808 43.1859C20.8102 43.4211 20.8372 43.4631 21.0596 43.5309C21.1862 43.5687 21.3152 43.5974 21.4459 43.6168C21.5175 43.6281 21.5482 43.6562 21.5445 43.7263L21.5452 43.7908C21.5426 44.0619 21.5239 44.0743 21.261 44.0736C20.6317 44.0724 20.0029 44.0762 19.3736 44.0814C19.1861 44.0829 19.1857 44.0886 19.167 43.9033L19.1632 43.7968C19.1749 43.6371 19.1786 43.6386 19.3357 43.6153C19.4415 43.5996 19.5465 43.5752 19.6496 43.5482C19.7557 43.5208 19.8067 43.4424 19.821 43.3374C19.8281 43.2842 19.8375 43.2309 19.8371 43.1777C19.8281 42.4622 19.8397 41.7459 19.8007 41.0316C19.7692 40.4537 19.3282 40.1094 18.7481 40.1488C18.4685 40.1682 18.1997 40.2647 17.9715 40.4274C17.8166 40.5358 17.7855 40.6922 17.7862 40.8606C17.7897 41.5296 17.7952 42.1987 17.8027 42.8679C17.8042 43.0146 17.8084 43.1612 17.8222 43.3067C17.8369 43.4657 17.8927 43.5298 18.0487 43.5643C18.198 43.5973 18.3502 43.6164 18.5096 43.6431L18.5231 43.7661C18.5284 44.0529 18.4984 44.0743 18.2197 44.0732C17.5691 44.0706 16.9185 44.0747 16.2682 44.0818C16.1659 44.0833 16.1224 44.0511 16.125 43.9513L16.1235 43.9086C16.1066 43.6502 16.1141 43.6404 16.3586 43.5984L16.4741 43.5752C16.7389 43.5156 16.8067 43.4451 16.8105 43.1762C16.8229 42.3246 16.8274 41.4733 16.836 40.6217C16.8371 40.4994 16.791 40.4046 16.677 40.3539C16.517 40.2839 16.3561 40.2159 16.1944 40.1499C16.1051 40.1132 16.0031 40.0899 15.9997 39.9666C15.9975 39.8796 16.0905 39.8027 16.2176 39.7768C16.473 39.7251 16.7306 39.6819 16.983 39.6186C17.2342 39.5559 17.481 39.4719 17.7562 39.3894Z" fill="#4F372B"/>
<path fill-rule="evenodd" clip-rule="evenodd" d="M31.8244 41.6138C31.8124 42.4092 31.6058 43.0523 31.0433 43.535C30.3308 44.1473 29.2193 44.3555 28.3106 43.8976C27.9229 43.7022 27.6379 43.4026 27.4523 43.0137C27.1676 42.4156 27.0964 41.7867 27.2449 41.1425C27.3919 40.5053 27.7778 40.0437 28.3553 39.7448C28.9493 39.4377 29.5748 39.3177 30.2344 39.479C31.0688 39.6826 31.6684 40.3628 31.7876 41.2291C31.809 41.381 31.8173 41.5347 31.8244 41.6138ZM30.858 42.0447L30.8258 42.041C30.8258 41.966 30.8299 41.891 30.825 41.816C30.7976 41.3487 30.6926 40.9036 30.4219 40.5125C30.165 40.142 29.8151 39.9233 29.3599 39.8915C28.8503 39.8555 28.422 40.1405 28.2716 40.661C28.0459 41.4425 28.1224 42.2041 28.5191 42.92C28.692 43.232 28.9481 43.4622 29.2913 43.5833C29.9636 43.82 30.5599 43.5136 30.735 42.8251C30.7995 42.5708 30.8183 42.305 30.858 42.0447Z" fill="#4F382B"/>
<path fill-rule="evenodd" clip-rule="evenodd" d="M15.3071 41.6753C15.2933 42.246 15.1586 42.7736 14.8061 43.2323C14.4285 43.7235 13.9095 43.986 13.3193 44.0966C12.6214 44.2271 11.9659 44.1086 11.4053 43.6403C11.139 43.4175 10.9571 43.1321 10.8371 42.8074C10.6403 42.2749 10.5911 41.7293 10.7123 41.1731C10.8416 40.578 11.1776 40.1231 11.6985 39.8179C12.3008 39.4658 12.9506 39.3086 13.6448 39.4669C14.5373 39.6709 15.0525 40.2525 15.243 41.133C15.2813 41.3108 15.2865 41.4945 15.3071 41.6753ZM14.3299 42.0518L14.304 42.048V41.9408C14.2894 41.4173 14.187 40.9185 13.8746 40.4835C13.6433 40.1606 13.3335 39.9581 12.9364 39.9015C12.2891 39.8093 11.8661 40.1933 11.7259 40.7149C11.5429 41.3963 11.6003 42.0694 11.8834 42.7155C12.06 43.1183 12.339 43.4321 12.7676 43.5844C13.4359 43.8218 14.0411 43.5075 14.2103 42.8216C14.2725 42.5708 14.2913 42.309 14.3299 42.0518Z" fill="#4F372B"/>
<path fill-rule="evenodd" clip-rule="evenodd" d="M30.8857 12.5791C31.3459 13.9092 31.6766 15.2671 31.7857 16.6741C31.9207 18.4201 31.8592 20.1541 31.491 21.8712L31.4437 22.0085C31.3282 22.0089 31.2105 21.9942 31.0976 22.0119C30.144 22.1619 29.1915 22.3171 28.2386 22.4716C27.2535 22.6314 26.2676 22.7847 25.2844 22.955C24.936 23.015 24.5047 22.9434 24.3641 23.4249L24.2966 23.4477L24.3442 20.5685L24.2959 13.6212L24.7549 13.5425C25.5052 13.4199 26.2556 13.295 27.0071 13.1754C27.9034 13.0332 28.8004 12.8945 29.6974 12.7557C30.0934 12.695 30.4897 12.6384 30.8857 12.5791Z" fill="#439934"/>
<path fill-rule="evenodd" clip-rule="evenodd" d="M23.3494 31.8417C22.8652 31.4255 22.3642 31.0276 21.9004 30.5896C19.4036 28.2346 17.577 25.4622 16.6774 22.1198C16.4295 21.2003 16.2645 20.2655 16.2112 19.3152C16.1737 18.65 16.1201 17.9791 16.1674 17.3172C16.2922 15.5573 16.5469 13.8143 17.0629 12.119L17.0914 12.0796C17.1416 12.1463 17.2136 12.2056 17.2391 12.281C17.7429 13.7645 18.2434 15.2493 18.7406 16.7356C20.304 21.4047 21.8655 26.075 23.4315 30.7433C23.4622 30.8345 23.5414 30.9091 23.5984 30.9912L23.3494 31.8417Z" fill="#45A538"/>
<path fill-rule="evenodd" clip-rule="evenodd" d="M30.8858 12.5792C30.4894 12.6381 30.093 12.6951 29.6974 12.7559C28.8004 12.8946 27.9034 13.0334 27.0071 13.1755C26.256 13.2947 25.5056 13.4196 24.7549 13.5426L24.2959 13.6214L24.2921 13.3221C24.2768 13.0761 24.2513 12.8301 24.2479 12.5841L24.1965 7.87636C24.1845 6.89423 24.1665 5.91211 24.1466 4.93036C24.1365 4.32017 24.1189 3.71012 24.0938 3.10036C24.0788 2.77298 24.0259 2.44711 24.0049 2.11973C23.9925 1.93148 24.009 1.74173 24.0131 1.55273C24.2471 2.00611 24.4763 2.46286 24.7166 2.91286C25.0965 3.62423 25.7021 4.14848 26.2478 4.72036C28.4025 6.98198 29.9321 9.60998 30.8858 12.5792Z" fill="#46A037"/>
<path fill-rule="evenodd" clip-rule="evenodd" d="M24.297 23.4475L24.3645 23.4246C24.5051 22.9431 24.9364 23.0148 25.2848 22.9548C26.268 22.7845 27.2539 22.6311 28.239 22.4714C29.1919 22.3173 30.1444 22.162 31.098 22.0116C31.2109 21.994 31.3286 22.0086 31.4441 22.0083C31.266 22.6443 31.1258 23.2941 30.8996 23.9125C30.6428 24.6138 30.3323 25.2985 30.0026 25.9698C29.5088 26.9708 28.8979 27.9096 28.1828 28.7665C27.633 29.4273 27.0203 30.0389 26.4064 30.6423C26.0666 30.9756 25.6669 31.2475 25.2941 31.5475L25.1974 31.4815L24.8498 31.1845L24.4901 30.3955C24.2446 29.4754 24.1105 28.5291 24.0908 27.577L24.0975 27.4165L24.1466 26.7213C24.1628 26.4839 24.1845 26.2469 24.1946 26.0095C24.2306 25.156 24.2629 24.3018 24.297 23.4475Z" fill="#409433"/>
<path fill-rule="evenodd" clip-rule="evenodd" d="M24.297 23.4475C24.2632 24.3018 24.231 25.1564 24.1946 26.0106C24.1845 26.2484 24.1631 26.4854 24.1466 26.7224L23.9276 26.8053C23.4409 25.3724 22.9537 23.9545 22.4775 22.5333C21.6896 20.1816 20.9115 17.8266 20.1247 15.4743C19.4894 13.5758 18.8497 11.6788 18.2055 9.78327C18.1751 9.69477 18.0889 9.62502 18.0289 9.54665L19.4314 6.96777C19.4797 7.0514 19.5431 7.12977 19.5735 7.21977C20.2222 9.13977 20.8699 11.0601 21.5119 12.9824C22.3474 15.4836 23.1772 17.986 24.012 20.4876C24.0454 20.5874 24.1001 20.6796 24.1526 20.7918L24.3446 20.5683L24.297 23.4475Z" fill="#4FAA41"/>
<path fill-rule="evenodd" clip-rule="evenodd" d="M18.0285 9.54688C18.0889 9.62525 18.1751 9.695 18.2051 9.7835C18.8494 11.679 19.4891 13.576 20.1244 15.4745C20.9111 17.8269 21.6893 20.1819 22.4771 22.5335C22.9534 23.9548 23.4405 25.3723 23.9273 26.8055L24.1463 26.7226L24.0971 27.4179L24.0525 27.578C23.9764 28.3389 23.9123 29.1012 23.8193 29.8606C23.7728 30.2412 23.6734 30.6147 23.598 30.9912C23.5414 30.9091 23.4619 30.8345 23.4311 30.7434C21.8648 26.075 20.3036 21.4047 18.7403 16.7356C18.2428 15.2497 17.7423 13.7648 17.2388 12.281C17.2133 12.2056 17.1413 12.1464 17.091 12.0796L18.0285 9.54688Z" fill="#4AA73C"/>
<path fill-rule="evenodd" clip-rule="evenodd" d="M24.3442 20.5685L24.1522 20.792C24.0997 20.6799 24.045 20.5876 24.0116 20.4879C23.1769 17.9863 22.347 15.4839 21.5115 12.9826C20.8687 11.0606 20.2226 9.13976 19.5731 7.22002C19.5427 7.13002 19.4794 7.05165 19.431 6.96802L21.1654 4.68652C21.2201 4.75927 21.2981 4.82415 21.3262 4.90627C21.8075 6.31627 22.2852 7.7274 22.7595 9.13965C23.2027 10.4589 23.6392 11.7796 24.0877 13.0966C24.1177 13.1848 24.2224 13.247 24.2921 13.322L24.2959 13.6213L24.3442 20.5685Z" fill="#57AE47"/>
<path fill-rule="evenodd" clip-rule="evenodd" d="M24.2921 13.3217C24.222 13.2471 24.1177 13.1849 24.0877 13.0964C23.6396 11.7794 23.2027 10.4586 22.7595 9.13936C22.2851 7.7271 21.8074 6.31597 21.3262 4.90598C21.2981 4.82386 21.2201 4.75898 21.1654 4.68623C21.7294 4.13386 22.2757 3.56161 22.8626 3.03473C23.3842 2.56673 23.8035 2.06498 23.823 1.32511L23.8642 1.17773L24.0127 1.55198C24.009 1.74098 23.9921 1.93073 24.0045 2.11898C24.0259 2.44636 24.0787 2.77223 24.0934 3.09961C24.1207 3.70898 24.1339 4.31948 24.1462 4.92961C24.1661 5.91136 24.1841 6.89348 24.1961 7.87561L24.2475 12.5834C24.2513 12.8297 24.2771 13.0757 24.2921 13.3217Z" fill="#60B24F"/>
<path fill-rule="evenodd" clip-rule="evenodd" d="M23.5984 30.991C23.6737 30.6145 23.7731 30.241 23.8196 29.8603C23.9126 29.1013 23.9767 28.3386 24.0529 27.5777L24.072 27.5747L24.0907 27.5781C24.1105 28.5302 24.2446 29.4765 24.4901 30.3966C24.4395 30.4633 24.3686 30.5222 24.3416 30.5972C24.1335 31.1845 23.937 31.7766 23.7277 32.3635C23.6992 32.4437 23.619 32.5063 23.5631 32.5765L23.349 31.8415L23.5984 30.991Z" fill="#A9AA88"/>
<path fill-rule="evenodd" clip-rule="evenodd" d="M23.5631 32.5768C23.619 32.5063 23.6992 32.4441 23.7277 32.3638C23.937 31.777 24.1335 31.1848 24.3416 30.5976C24.3682 30.5226 24.4395 30.4637 24.4901 30.397L24.8497 31.186C24.7789 31.2865 24.6806 31.3776 24.6412 31.4897L23.9527 33.5117C23.9242 33.5931 23.8279 33.6501 23.7626 33.7187L23.5631 32.5768Z" fill="#B6B598"/>
<path fill-rule="evenodd" clip-rule="evenodd" d="M23.7626 33.7183C23.8275 33.6497 23.9243 33.5927 23.9528 33.5113L24.6413 31.4893C24.6803 31.3772 24.7789 31.286 24.8498 31.1855L25.1978 31.4822C25.0298 31.6483 24.9364 31.8403 24.9926 32.0829L24.8869 32.429C24.8389 32.4883 24.7691 32.54 24.7455 32.6079C24.5051 33.2964 24.276 33.9887 24.0338 34.6768C24.003 34.7638 23.9179 34.8324 23.8583 34.9097L23.7626 33.7183Z" fill="#C2C1A7"/>
<path fill-rule="evenodd" clip-rule="evenodd" d="M23.8579 34.9093C23.9179 34.8321 24.003 34.7635 24.0334 34.6765C24.2756 33.9883 24.5051 33.2961 24.7451 32.6076C24.7687 32.5397 24.8385 32.4883 24.8865 32.4287L24.7406 34.0172C24.7016 34.0622 24.6454 34.1016 24.6266 34.1537L24.1414 35.5442C24.1072 35.6391 24.042 35.7238 23.991 35.8127C23.9456 35.7535 23.8646 35.6961 23.8609 35.6346C23.8466 35.3938 23.8567 35.1512 23.8579 34.9093Z" fill="#CECDB7"/>
<path fill-rule="evenodd" clip-rule="evenodd" d="M23.9914 35.8131C24.0424 35.7242 24.1076 35.6395 24.1417 35.5446L24.627 34.1541C24.6457 34.1016 24.7024 34.0626 24.741 34.0176L24.7447 35.0601L24.3956 35.9552L23.9914 35.8131Z" fill="#DBDAC7"/>
<path fill-rule="evenodd" clip-rule="evenodd" d="M24.3956 35.9552L24.7448 35.0601L24.8168 36.1191L24.3956 35.9552Z" fill="#EBE9DC"/>
<path fill-rule="evenodd" clip-rule="evenodd" d="M24.9923 32.0827C24.9364 31.8404 25.0294 31.6484 25.1974 31.4819L25.2941 31.5479L24.9923 32.0827Z" fill="#CECDB7"/>
<path fill-rule="evenodd" clip-rule="evenodd" d="M24.0908 27.5785L24.072 27.5751L24.0529 27.5781L24.0975 27.418L24.0908 27.5785Z" fill="#4FAA41"/>
</svg>
