<svg width="56" height="55" viewBox="0 0 56 55" fill="none" xmlns="http://www.w3.org/2000/svg">
<circle cx="28" cy="27.5" r="27" stroke="white"/>
<g clip-path="url(#clip0_404_2848)">
<path d="M27.5 14.7012C31.5078 14.7012 31.9824 14.7187 33.5586 14.7891C35.0234 14.8535 35.8145 15.0996 36.3418 15.3047C37.0391 15.5742 37.543 15.9023 38.0645 16.4238C38.5918 16.9512 38.9141 17.4492 39.1836 18.1465C39.3887 18.6738 39.6348 19.4707 39.6992 20.9297C39.7695 22.5117 39.7871 22.9863 39.7871 26.9883C39.7871 30.9961 39.7695 31.4707 39.6992 33.0469C39.6348 34.5117 39.3887 35.3027 39.1836 35.8301C38.9141 36.5273 38.5859 37.0313 38.0645 37.5527C37.5371 38.0801 37.0391 38.4023 36.3418 38.6719C35.8145 38.877 35.0176 39.123 33.5586 39.1875C31.9766 39.2578 31.502 39.2754 27.5 39.2754C23.4922 39.2754 23.0176 39.2578 21.4414 39.1875C19.9766 39.123 19.1855 38.877 18.6582 38.6719C17.9609 38.4023 17.457 38.0742 16.9355 37.5527C16.4082 37.0254 16.0859 36.5273 15.8164 35.8301C15.6113 35.3027 15.3652 34.5059 15.3008 33.0469C15.2305 31.4648 15.2129 30.9902 15.2129 26.9883C15.2129 22.9805 15.2305 22.5059 15.3008 20.9297C15.3652 19.4648 15.6113 18.6738 15.8164 18.1465C16.0859 17.4492 16.4141 16.9453 16.9355 16.4238C17.4629 15.8965 17.9609 15.5742 18.6582 15.3047C19.1855 15.0996 19.9824 14.8535 21.4414 14.7891C23.0176 14.7187 23.4922 14.7012 27.5 14.7012ZM27.5 12C23.4277 12 22.918 12.0176 21.3184 12.0879C19.7246 12.1582 18.6289 12.416 17.6797 12.7852C16.6895 13.1719 15.8516 13.6816 15.0195 14.5195C14.1816 15.3516 13.6719 16.1895 13.2852 17.1738C12.916 18.1289 12.6582 19.2187 12.5879 20.8125C12.5176 22.418 12.5 22.9277 12.5 27C12.5 31.0723 12.5176 31.582 12.5879 33.1816C12.6582 34.7754 12.916 35.8711 13.2852 36.8203C13.6719 37.8105 14.1816 38.6484 15.0195 39.4805C15.8516 40.3125 16.6895 40.8281 17.6738 41.209C18.6289 41.5781 19.7188 41.8359 21.3125 41.9062C22.9121 41.9766 23.4219 41.9941 27.4941 41.9941C31.5664 41.9941 32.0762 41.9766 33.6758 41.9062C35.2695 41.8359 36.3652 41.5781 37.3145 41.209C38.2988 40.8281 39.1367 40.3125 39.9688 39.4805C40.8008 38.6484 41.3164 37.8105 41.6973 36.8262C42.0664 35.8711 42.3242 34.7813 42.3945 33.1875C42.4648 31.5879 42.4824 31.0781 42.4824 27.0059C42.4824 22.9336 42.4648 22.4238 42.3945 20.8242C42.3242 19.2305 42.0664 18.1348 41.6973 17.1855C41.3281 16.1895 40.8184 15.3516 39.9805 14.5195C39.1484 13.6875 38.3105 13.1719 37.3262 12.791C36.3711 12.4219 35.2813 12.1641 33.6875 12.0938C32.082 12.0176 31.5723 12 27.5 12Z" fill="white"/>
<path d="M27.5 19.2949C23.2461 19.2949 19.7949 22.7461 19.7949 27C19.7949 31.2539 23.2461 34.7051 27.5 34.7051C31.7539 34.7051 35.2051 31.2539 35.2051 27C35.2051 22.7461 31.7539 19.2949 27.5 19.2949ZM27.5 31.998C24.7402 31.998 22.502 29.7598 22.502 27C22.502 24.2402 24.7402 22.002 27.5 22.002C30.2598 22.002 32.498 24.2402 32.498 27C32.498 29.7598 30.2598 31.998 27.5 31.998Z" fill="white"/>
<path d="M37.3086 18.9902C37.3086 19.9863 36.5 20.7891 35.5098 20.7891C34.5137 20.7891 33.7109 19.9805 33.7109 18.9902C33.7109 17.9941 34.5195 17.1914 35.5098 17.1914C36.5 17.1914 37.3086 18 37.3086 18.9902Z" fill="white"/>
</g>
<defs>
<clipPath id="clip0_404_2848">
<rect width="30" height="30" fill="white" transform="translate(12.5 12)"/>
</clipPath>
</defs>
</svg>
