<svg width="27" height="28" viewBox="0 0 27 28" fill="none" xmlns="http://www.w3.org/2000/svg">
<path d="M22.9032 3.83253C21.0871 2.00577 18.7696 0.759252 16.2443 0.25094C13.719 -0.257372 11.0996 -0.00459713 8.71817 0.977233C6.33669 1.95906 4.30027 3.62575 2.86697 5.7661C1.43367 7.90644 0.668 10.4241 0.666992 13V20C0.666992 20.7957 0.983063 21.5587 1.54567 22.1214C2.10828 22.684 2.87134 23 3.66699 23H5.66699C6.46264 23 7.2257 22.684 7.78831 22.1214C8.35092 21.5587 8.66699 20.7957 8.66699 20V15C8.66699 14.2044 8.35092 13.4413 7.78831 12.8787C7.2257 12.3161 6.46264 12 5.66699 12H2.71199C2.90485 9.91495 3.68804 7.92804 4.96977 6.27217C6.25151 4.61629 7.97869 3.36007 9.94887 2.65074C11.919 1.94141 14.0506 1.80835 16.0937 2.26717C18.1368 2.72598 20.0068 3.75766 21.4845 5.24128C23.2906 7.05666 24.4015 9.44886 24.6232 12H21.667C20.8713 12 20.1083 12.3161 19.5457 12.8787C18.9831 13.4413 18.667 14.2044 18.667 15V20C18.667 20.7957 18.9831 21.5587 19.5457 22.1214C20.1083 22.684 20.8713 23 21.667 23H24.667C24.667 23.7957 24.3509 24.5587 23.7883 25.1214C23.2257 25.684 22.4626 26 21.667 26H14.667C14.4018 26 14.1474 26.1054 13.9599 26.2929C13.7723 26.4805 13.667 26.7348 13.667 27C13.667 27.2653 13.7723 27.5196 13.9599 27.7071C14.1474 27.8947 14.4018 28 14.667 28H21.667C22.9931 28 24.2648 27.4733 25.2025 26.5356C26.1402 25.5979 26.667 24.3261 26.667 23V13C26.6735 11.2995 26.3444 9.6144 25.6986 8.04127C25.0527 6.46814 24.1028 5.03792 22.9032 3.83253ZM5.66699 14C5.93221 14 6.18656 14.1054 6.3741 14.2929C6.56164 14.4805 6.66699 14.7348 6.66699 15V20C6.66699 20.2653 6.56164 20.5196 6.3741 20.7071C6.18656 20.8947 5.93221 21 5.66699 21H3.66699C3.40178 21 3.14742 20.8947 2.95989 20.7071C2.77235 20.5196 2.66699 20.2653 2.66699 20V14H5.66699ZM21.667 21C21.4018 21 21.1474 20.8947 20.9599 20.7071C20.7724 20.5196 20.667 20.2653 20.667 20V15C20.667 14.7348 20.7724 14.4805 20.9599 14.2929C21.1474 14.1054 21.4018 14 21.667 14H24.667V21H21.667Z" fill="black"/>
</svg>
