<svg width="29" height="25" viewBox="0 0 29 25" fill="none" xmlns="http://www.w3.org/2000/svg">
<path d="M9.73487 2.18103L3.07612 12.6435L9.73487 23.106C9.80545 23.2169 9.85349 23.3406 9.87623 23.47C9.89898 23.5995 9.89598 23.7321 9.86743 23.8604C9.83887 23.9887 9.7853 24.1101 9.70979 24.2176C9.63428 24.3252 9.53831 24.4168 9.42737 24.4873C9.26735 24.5898 9.08117 24.6441 8.89112 24.6435C8.7226 24.6437 8.55678 24.6013 8.40905 24.5202C8.26133 24.4391 8.13648 24.322 8.04612 24.1798L1.04612 13.1798C0.944011 13.0193 0.889778 12.8331 0.889778 12.6429C0.889778 12.4527 0.944011 12.2665 1.04612 12.106L8.04612 1.10603C8.1885 0.882249 8.41396 0.724201 8.67287 0.666651C8.93179 0.609101 9.20296 0.656762 9.42674 0.79915C9.65052 0.941538 9.80857 1.16699 9.86612 1.42591C9.92367 1.68482 9.876 1.956 9.73362 2.17978L9.73487 2.18103ZM28.7349 12.1073L21.7349 1.10728C21.6644 0.996472 21.5727 0.900641 21.4652 0.825253C21.3576 0.749865 21.2363 0.696397 21.1081 0.667901C20.8492 0.610351 20.578 0.658012 20.3542 0.800401C20.1305 0.942789 19.9724 1.16824 19.9149 1.42716C19.8573 1.68607 19.905 1.95725 20.0474 2.18103L26.7061 12.6435L20.0474 23.106C19.9768 23.2169 19.9287 23.3406 19.906 23.47C19.8833 23.5995 19.8862 23.7321 19.9148 23.8604C19.9434 23.9887 19.9969 24.1101 20.0724 24.2176C20.1479 24.3252 20.2439 24.4168 20.3549 24.4873C20.5149 24.5898 20.7011 24.6441 20.8911 24.6435C21.0596 24.6437 21.2255 24.6013 21.3732 24.5202C21.5209 24.4391 21.6458 24.322 21.7361 24.1798L28.7361 13.1798C28.8378 13.0193 28.8917 12.8333 28.8914 12.6433C28.8912 12.4534 28.8369 12.2675 28.7349 12.1073Z" fill="black"/>
</svg>
