<svg width="23" height="27" viewBox="0 0 23 27" fill="none" xmlns="http://www.w3.org/2000/svg">
<path d="M22.6557 6.19191L17.6557 1.19191C17.5628 1.09908 17.4525 1.02547 17.3311 0.975278C17.2097 0.92509 17.0796 0.899311 16.9482 0.899414H6.94824C6.41781 0.899414 5.9091 1.11013 5.53403 1.4852C5.15896 1.86027 4.94824 2.36898 4.94824 2.89941V4.89941H2.94824C2.41781 4.89941 1.9091 5.11013 1.53403 5.4852C1.15896 5.86027 0.948242 6.36898 0.948242 6.89941V24.8994C0.948242 25.4298 1.15896 25.9386 1.53403 26.3136C1.9091 26.6887 2.41781 26.8994 2.94824 26.8994H16.9482C17.4787 26.8994 17.9874 26.6887 18.3625 26.3136C18.7375 25.9386 18.9482 25.4298 18.9482 24.8994V22.8994H20.9482C21.4787 22.8994 21.9874 22.6887 22.3625 22.3136C22.7375 21.9386 22.9482 21.4298 22.9482 20.8994V6.89941C22.9483 6.76805 22.9226 6.63796 22.8724 6.51656C22.8222 6.39517 22.7486 6.28485 22.6557 6.19191ZM16.9482 24.8994H2.94824V6.89941H12.5345L16.9482 11.3132V21.8794C16.9482 21.8869 16.9482 21.8932 16.9482 21.8994C16.9482 21.9057 16.9482 21.9119 16.9482 21.9194V24.8994ZM20.9482 20.8994H18.9482V10.8994C18.9483 10.7681 18.9226 10.638 18.8724 10.5166C18.8222 10.3952 18.7486 10.2849 18.6557 10.1919L13.6557 5.19191C13.5628 5.09908 13.4525 5.02547 13.3311 4.97528C13.2097 4.92509 13.0796 4.89931 12.9482 4.89941H6.94824V2.89941H16.5345L20.9482 7.31316V20.8994ZM13.9482 16.8994C13.9482 17.1646 13.8429 17.419 13.6553 17.6065C13.4678 17.7941 13.2135 17.8994 12.9482 17.8994H6.94824C6.68303 17.8994 6.42867 17.7941 6.24114 17.6065C6.0536 17.419 5.94824 17.1646 5.94824 16.8994C5.94824 16.6342 6.0536 16.3798 6.24114 16.1923C6.42867 16.0048 6.68303 15.8994 6.94824 15.8994H12.9482C13.2135 15.8994 13.4678 16.0048 13.6553 16.1923C13.8429 16.3798 13.9482 16.6342 13.9482 16.8994ZM13.9482 20.8994C13.9482 21.1646 13.8429 21.419 13.6553 21.6065C13.4678 21.7941 13.2135 21.8994 12.9482 21.8994H6.94824C6.68303 21.8994 6.42867 21.7941 6.24114 21.6065C6.0536 21.419 5.94824 21.1646 5.94824 20.8994C5.94824 20.6342 6.0536 20.3798 6.24114 20.1923C6.42867 20.0048 6.68303 19.8994 6.94824 19.8994H12.9482C13.2135 19.8994 13.4678 20.0048 13.6553 20.1923C13.8429 20.3798 13.9482 20.6342 13.9482 20.8994Z" fill="black"/>
</svg>
