<svg width="26" height="18" viewBox="0 0 26 18" fill="none" xmlns="http://www.w3.org/2000/svg">
<path d="M0 1C0 0.734784 0.105357 0.48043 0.292893 0.292893C0.48043 0.105357 0.734784 0 1 0H23C23.2652 0 23.5196 0.105357 23.7071 0.292893C23.8946 0.48043 24 0.734784 24 1C24 1.26522 23.8946 1.51957 23.7071 1.70711C23.5196 1.89464 23.2652 2 23 2H1C0.734784 2 0.48043 1.89464 0.292893 1.70711C0.105357 1.51957 0 1.26522 0 1ZM1 10H10C10.2652 10 10.5196 9.89464 10.7071 9.70711C10.8946 9.51957 11 9.26522 11 9C11 8.73478 10.8946 8.48043 10.7071 8.29289C10.5196 8.10536 10.2652 8 10 8H1C0.734784 8 0.48043 8.10536 0.292893 8.29289C0.105357 8.48043 0 8.73478 0 9C0 9.26522 0.105357 9.51957 0.292893 9.70711C0.48043 9.89464 0.734784 10 1 10ZM12 16H1C0.734784 16 0.48043 16.1054 0.292893 16.2929C0.105357 16.4804 0 16.7348 0 17C0 17.2652 0.105357 17.5196 0.292893 17.7071C0.48043 17.8946 0.734784 18 1 18H12C12.2652 18 12.5196 17.8946 12.7071 17.7071C12.8946 17.5196 13 17.2652 13 17C13 16.7348 12.8946 16.4804 12.7071 16.2929C12.5196 16.1054 12.2652 16 12 16ZM25.7075 17.7075C25.6146 17.8005 25.5043 17.8742 25.3829 17.9246C25.2615 17.9749 25.1314 18.0008 25 18.0008C24.8686 18.0008 24.7385 17.9749 24.6171 17.9246C24.4957 17.8742 24.3854 17.8005 24.2925 17.7075L21.75 15.17C20.716 15.8522 19.4657 16.1262 18.2412 15.9391C17.0167 15.752 15.9052 15.117 15.1222 14.1572C14.3392 13.1973 13.9403 11.981 14.0029 10.7439C14.0655 9.50672 14.5851 8.33686 15.461 7.46096C16.3369 6.58505 17.5067 6.06546 18.7439 6.00288C19.981 5.94029 21.1973 6.33915 22.1572 7.12219C23.117 7.90522 23.752 9.01667 23.9391 10.2412C24.1262 11.4657 23.8522 12.716 23.17 13.75L25.7075 16.2875C25.8012 16.3805 25.8756 16.4911 25.9264 16.6129C25.9772 16.7348 26.0033 16.8655 26.0033 16.9975C26.0033 17.1295 25.9772 17.2602 25.9264 17.3821C25.8756 17.5039 25.8012 17.6145 25.7075 17.7075ZM19 14C19.5933 14 20.1734 13.8241 20.6667 13.4944C21.1601 13.1648 21.5446 12.6962 21.7716 12.1481C21.9987 11.5999 22.0581 10.9967 21.9424 10.4147C21.8266 9.83278 21.5409 9.29824 21.1213 8.87868C20.7018 8.45912 20.1672 8.1734 19.5853 8.05764C19.0033 7.94189 18.4001 8.0013 17.8519 8.22836C17.3038 8.45542 16.8352 8.83994 16.5056 9.33329C16.1759 9.82664 16 10.4067 16 11C16 11.7956 16.3161 12.5587 16.8787 13.1213C17.4413 13.6839 18.2044 14 19 14Z" fill="white"/>
</svg>
