<svg width="31" height="21" viewBox="0 0 31 21" fill="none" xmlns="http://www.w3.org/2000/svg">
<path d="M26.9433 12.9922C26.2008 10.1044 24.4169 7.59297 21.9346 5.94095H29.3096C29.5748 5.94095 29.8291 5.83559 30.0167 5.64806C30.2042 5.46052 30.3096 5.20617 30.3096 4.94095C30.3096 4.67573 30.2042 4.42138 30.0167 4.23384C29.8291 4.04631 29.5748 3.94095 29.3096 3.94095H19.1846C18.9643 3.08053 18.4639 2.31791 17.7623 1.77331C17.0607 1.22871 16.1977 0.933105 15.3096 0.933105C14.4214 0.933105 13.5585 1.22871 12.8569 1.77331C12.1553 2.31791 11.6549 3.08053 11.4346 3.94095H1.30957C1.04436 3.94095 0.790002 4.04631 0.602466 4.23384C0.41493 4.42138 0.309573 4.67573 0.309573 4.94095C0.309573 5.20617 0.41493 5.46052 0.602466 5.64806C0.790002 5.83559 1.04436 5.94095 1.30957 5.94095H8.68457C6.20227 7.59297 4.41834 10.1044 3.67582 12.9922C2.71566 13.1454 1.84418 13.6431 1.22432 14.3922C0.60447 15.1413 0.278689 16.0905 0.307898 17.0624C0.337107 18.0343 0.719306 18.9622 1.38303 19.6727C2.04675 20.3833 2.94655 20.8277 3.91418 20.923C4.88181 21.0182 5.851 20.7578 6.64055 20.1904C7.43009 19.6229 7.98592 18.7873 8.20409 17.8398C8.42227 16.8923 8.28785 15.8977 7.82599 15.0421C7.36412 14.1865 6.60642 13.5285 5.69457 13.1909C6.12392 11.7106 6.8872 10.3485 7.92567 9.20948C8.96413 8.07046 10.2501 7.1849 11.6846 6.62095C12.0055 7.31299 12.5177 7.89882 13.1606 8.30936C13.8036 8.71991 14.5505 8.93804 15.3133 8.93804C16.0762 8.93804 16.8231 8.71991 17.466 8.30936C18.109 7.89882 18.6211 7.31299 18.9421 6.62095C20.3752 7.18585 21.6596 8.07183 22.6967 9.21079C23.7339 10.3498 24.496 11.7114 24.9246 13.1909C24.0123 13.5273 23.2538 14.1845 22.7908 15.0395C22.3279 15.8945 22.1922 16.8889 22.4092 17.8367C22.6262 18.7845 23.181 19.6208 23.9699 20.1892C24.7587 20.7576 25.7276 21.0193 26.6954 20.9252C27.6631 20.8311 28.5635 20.3878 29.2281 19.678C29.8927 18.9683 30.276 18.0408 30.3064 17.069C30.3368 16.0971 30.0121 15.1475 29.3932 14.3976C28.7742 13.6478 27.9033 13.1491 26.9433 12.9947V12.9922ZM6.30957 16.9409C6.30957 17.3365 6.19227 17.7232 5.97251 18.0521C5.75275 18.381 5.44039 18.6373 5.07494 18.7887C4.70949 18.9401 4.30735 18.9797 3.91939 18.9025C3.53143 18.8253 3.17506 18.6349 2.89536 18.3552C2.61565 18.0755 2.42517 17.7191 2.348 17.3311C2.27083 16.9432 2.31044 16.541 2.46181 16.1756C2.61319 15.8101 2.86953 15.4978 3.19843 15.278C3.52733 15.0582 3.91401 14.9409 4.30957 14.9409C4.84001 14.9409 5.34871 15.1517 5.72379 15.5267C6.09886 15.9018 6.30957 16.4105 6.30957 16.9409ZM15.3096 6.94095C14.914 6.94095 14.5273 6.82365 14.1984 6.60389C13.8695 6.38413 13.6132 6.07177 13.4618 5.70632C13.3104 5.34086 13.2708 4.93873 13.348 4.55077C13.4252 4.16281 13.6157 3.80644 13.8954 3.52674C14.1751 3.24703 14.5314 3.05655 14.9194 2.97938C15.3074 2.90221 15.7095 2.94181 16.0749 3.09319C16.4404 3.24457 16.7527 3.50091 16.9725 3.82981C17.1923 4.15871 17.3096 4.54539 17.3096 4.94095C17.3096 5.47138 17.0989 5.98009 16.7238 6.35516C16.3487 6.73024 15.84 6.94095 15.3096 6.94095ZM26.3096 18.9409C25.914 18.9409 25.5273 18.8237 25.1984 18.6039C24.8695 18.3841 24.6132 18.0718 24.4618 17.7063C24.3104 17.3409 24.2708 16.9387 24.348 16.5508C24.4252 16.1628 24.6157 15.8064 24.8954 15.5267C25.1751 15.247 25.5314 15.0565 25.9194 14.9794C26.3074 14.9022 26.7095 14.9418 27.0749 15.0932C27.4404 15.2446 27.7527 15.5009 27.9725 15.8298C28.1923 16.1587 28.3096 16.5454 28.3096 16.9409C28.3096 17.4714 28.0989 17.9801 27.7238 18.3552C27.3487 18.7302 26.84 18.9409 26.3096 18.9409Z" fill="black"/>
</svg>
