<svg width="27" height="27" viewBox="0 0 27 27" fill="none" xmlns="http://www.w3.org/2000/svg">
<path d="M25.0668 7.39501C26.4544 10.2973 26.7179 13.6107 25.8062 16.6957C24.8946 19.7808 22.8725 22.4188 20.1302 24.1006C17.3879 25.7825 14.1198 26.3889 10.9567 25.8029C7.79362 25.2169 4.9597 23.4799 3.00191 20.9274C1.04413 18.3748 0.101261 15.1874 0.355294 11.9805C0.609326 8.77366 2.04225 5.77454 4.3775 3.56201C6.71275 1.34949 9.7848 0.0804062 13.0007 -0.000295599C16.2166 -0.0809974 19.3485 1.0324 21.7918 3.12501L24.6255 0.290009C24.8132 0.102369 25.0676 -0.00304671 25.333 -0.00304671C25.5984 -0.00304671 25.8529 0.102369 26.0405 0.290009C26.2282 0.47765 26.3336 0.732145 26.3336 0.997509C26.3336 1.26287 26.2282 1.51737 26.0405 1.70501L14.0405 13.705C13.8529 13.8927 13.5984 13.9981 13.333 13.9981C13.0676 13.9981 12.8132 13.8927 12.6255 13.705C12.4379 13.5174 12.3325 13.2629 12.3325 12.9975C12.3325 12.7321 12.4379 12.4776 12.6255 12.29L16.0905 8.82501C15.1515 8.20395 14.0303 7.918 12.9085 8.01344C11.7867 8.10888 10.7299 8.58014 9.90928 9.35091C9.08864 10.1217 8.55215 11.1469 8.38665 12.2605C8.22116 13.3741 8.43636 14.511 8.99741 15.4871C9.55845 16.4632 10.4325 17.2214 11.4781 17.6389C12.5236 18.0564 13.6795 18.1089 14.7586 17.7877C15.8377 17.4666 16.7768 16.7906 17.4239 15.8693C18.071 14.948 18.3883 13.8353 18.3243 12.7113C18.3169 12.5799 18.3354 12.4484 18.3789 12.3243C18.4223 12.2001 18.4897 12.0858 18.5774 11.9877C18.665 11.8896 18.7711 11.8097 18.8896 11.7527C19.0081 11.6956 19.1367 11.6624 19.268 11.655C19.5332 11.6401 19.7935 11.7311 19.9916 11.9081C20.0897 11.9958 20.1695 12.1019 20.2266 12.2204C20.2837 12.3389 20.3169 12.4674 20.3243 12.5988C20.4154 14.1897 19.961 15.7642 19.0361 17.0619C18.1112 18.3596 16.7712 19.3029 15.2376 19.7359C13.704 20.1689 12.0685 20.0656 10.6015 19.4431C9.13451 18.8207 7.92382 17.7163 7.16953 16.3125C6.41524 14.9088 6.1625 13.2897 6.45309 11.7228C6.74367 10.1559 7.56019 8.73511 8.76768 7.69517C9.97517 6.65523 11.5014 6.05843 13.094 6.0034C14.6866 5.94837 16.2504 6.4384 17.5268 7.39251L20.3705 4.54876C18.2865 2.8185 15.6367 1.91921 12.9301 2.0236C10.2234 2.128 7.65078 3.22871 5.70624 5.11434C3.76171 6.99997 2.58239 9.53755 2.39481 12.2397C2.20723 14.9419 3.02461 17.6181 4.68996 19.7543C6.35531 21.8905 8.75119 23.3361 11.4175 23.8135C14.0837 24.2909 16.8323 23.7663 19.1354 22.3406C21.4385 20.9149 23.1336 18.6886 23.8953 16.0892C24.6569 13.4898 24.4313 10.7007 23.2618 8.25751C23.1474 8.01815 23.1328 7.74316 23.2212 7.49304C23.3095 7.24291 23.4937 7.03813 23.733 6.92376C23.9724 6.80938 24.2474 6.79478 24.4975 6.88316C24.7476 6.97153 24.9524 7.15565 25.0668 7.39501Z" fill="black"/>
</svg>
